<?xml version="1.0" encoding="utf-8"?>
<!-- Generator: Adobe Illustrator 16.0.0, SVG Export Plug-In . SVG Version: 6.00 Build 0)  -->
<!DOCTYPE svg PUBLIC "-//W3C//DTD SVG 1.1//EN" "http://www.w3.org/Graphics/SVG/1.1/DTD/svg11.dtd">
<svg version="1.1" xmlns="http://www.w3.org/2000/svg" xmlns:xlink="http://www.w3.org/1999/xlink" x="0px" y="0px" width="548px"
	 height="458px" viewBox="0 0 548 458" enable-background="new 0 0 548 458" xml:space="preserve">
<g id="Layer_1">
</g>
<g id="Layer_2">
	<g>
		<polygon fill="#60A69F" points="917.766,104.431 1436.508,104.431 1386.428,170.088 967.053,170.088 		"/>
		<polygon fill="#79B6D9" points="967.111,175.002 1386.162,175.002 1339.752,241.002 1015.53,240.002 		"/>
		<polygon fill="#6682BA" points="1016.886,244.5 1339.388,244.5 1295.111,310 1065.66,310 		"/>
		<polygon fill="#A37182" points="1069.886,314.182 1292.388,314.182 1223.332,382.093 1142.25,382.093 		"/>
		<polygon fill="#EDBA68" points="1220.535,386.68 1220.535,532.634 1145.045,474.575 1145.045,386.68 		"/>
	</g>
	<path fill="#9A5BA5" d="M274,11C156.92,11,62,105.92,62,223s94.92,212,212,212s212-94.92,212-212S391.08,11,274,11z M274,382.09
		c-87.86,0-159.09-71.229-159.09-159.09c0-87.86,71.23-159.09,159.09-159.09c87.86,0,159.09,71.23,159.09,159.09
		C433.09,310.86,361.86,382.09,274,382.09z"/>
	<path fill="#6682BA" d="M486,223c0,117.08-94.92,212-212,212v-52.91c87.86,0,159.09-71.229,159.09-159.09
		c0-87.86-71.229-159.09-159.09-159.09V11C391.08,11,486,105.92,486,223z"/>
	<path fill="#6682BA" d="M168,117L168,117z"/>
	<path fill="#EDBA68" d="M486,223h-52.91c0-87.86-71.229-159.09-159.09-159.09c-87.86,0-159.09,71.23-159.09,159.09H62
		c0-117.08,94.92-212,212-212S486,105.92,486,223z"/>
	<path fill="#60A69F" d="M274,11v52.91c-87.86,0-159.09,71.23-159.09,159.09H62C62,105.92,156.92,11,274,11z"/>
	<g>
	</g>
	<g>
	</g>
	<g>
	</g>
	<g>
	</g>
	<g>
	</g>
	<g>
	</g>
</g>
</svg>
