<?xml version="1.0" encoding="utf-8"?>
<!-- Generator: Adobe Illustrator 16.0.0, SVG Export Plug-In . SVG Version: 6.00 Build 0)  -->
<!DOCTYPE svg PUBLIC "-//W3C//DTD SVG 1.1//EN" "http://www.w3.org/Graphics/SVG/1.1/DTD/svg11.dtd">
<svg version="1.1" id="Layer_1" xmlns="http://www.w3.org/2000/svg" xmlns:xlink="http://www.w3.org/1999/xlink" x="0px" y="0px"
	 width="642.25px" height="111.5px" viewBox="0 0 642.25 111.5" enable-background="new 0 0 642.25 111.5" xml:space="preserve">
<polygon fill="#2176CC" points="1239.25,-24.5 1239.25,42.5 1233.25,48.5 1134.25,48.5 1134.25,-24.5 "/>
<rect x="1134.25" y="-24.5" fill="#2168A3" width="105" height="13"/>
<polygon fill="#2168A3" points="1239.25,35.5 1239.25,42.5 1233.25,48.5 1134.25,48.5 1134.25,35.5 "/>
<g>
	<rect x="1179.666" y="-20.75" fill="none" width="16.167" height="7.25"/>
	<path fill="#FFFFFF" d="M1183.576-18.553c0,1.391-0.846,2.129-1.877,2.129c-1.067,0-1.816-0.828-1.816-2.051
		c0-1.283,0.797-2.123,1.877-2.123C1182.863-20.598,1183.576-19.752,1183.576-18.553z M1180.439-18.487
		c0,0.864,0.469,1.637,1.29,1.637c0.827,0,1.296-0.762,1.296-1.679c0-0.803-0.42-1.643-1.29-1.643
		C1180.872-20.172,1180.439-19.375,1180.439-18.487z"/>
	<path fill="#FFFFFF" d="M1184.238-18.445c0-0.372-0.012-0.671-0.024-0.947h0.474l0.024,0.498h0.012
		c0.216-0.354,0.558-0.563,1.032-0.563c0.701,0,1.229,0.594,1.229,1.475c0,1.043-0.635,1.559-1.319,1.559
		c-0.384,0-0.72-0.168-0.894-0.456h-0.012v1.577h-0.521V-18.445z M1184.76-17.671c0,0.078,0.012,0.15,0.023,0.216
		c0.097,0.366,0.414,0.618,0.792,0.618c0.558,0,0.882-0.456,0.882-1.122c0-0.582-0.307-1.08-0.863-1.08
		c-0.36,0-0.696,0.258-0.798,0.654c-0.019,0.066-0.036,0.144-0.036,0.216V-17.671z"/>
	<path fill="#FFFFFF" d="M1187.945-17.846c0.013,0.714,0.469,1.008,0.996,1.008c0.378,0,0.605-0.066,0.804-0.15l0.09,0.377
		c-0.187,0.084-0.504,0.18-0.966,0.18c-0.893,0-1.427-0.588-1.427-1.463s0.516-1.565,1.361-1.565c0.947,0,1.199,0.833,1.199,1.367
		c0,0.108-0.013,0.192-0.019,0.246H1187.945z M1189.493-18.223c0.006-0.336-0.138-0.858-0.731-0.858
		c-0.533,0-0.768,0.492-0.81,0.858H1189.493z"/>
	<path fill="#FFFFFF" d="M1190.658-18.607c0-0.3-0.006-0.546-0.024-0.786h0.468l0.03,0.479h0.012
		c0.144-0.276,0.479-0.545,0.96-0.545c0.401,0,1.025,0.24,1.025,1.235v1.733h-0.527v-1.673c0-0.468-0.174-0.858-0.672-0.858
		c-0.348,0-0.618,0.246-0.708,0.54c-0.024,0.066-0.036,0.156-0.036,0.246v1.745h-0.527V-18.607z"/>
</g>
<g>
	<rect x="1171.625" y="-5" fill="none" width="30.25" height="13.5"/>
	<path fill="#FFFFFF" d="M1172.328,5.355c0-1.558,0.931-2.659,2.45-3.305l-0.019-0.057c-1.368-0.646-1.957-1.709-1.957-2.773
		c0-1.957,1.652-3.287,3.818-3.287c2.395,0,3.591,1.501,3.591,3.04c0,1.045-0.513,2.166-2.032,2.888v0.057
		c1.538,0.608,2.488,1.691,2.488,3.192c0,2.146-1.844,3.59-4.199,3.59C1173.886,8.699,1172.328,7.16,1172.328,5.355z
		 M1178.977,5.279c0-1.501-1.045-2.223-2.717-2.698c-1.443,0.418-2.223,1.368-2.223,2.546c-0.057,1.253,0.894,2.355,2.471,2.355
		C1178.008,7.483,1178.977,6.552,1178.977,5.279z M1174.379-0.895c0,1.235,0.932,1.9,2.356,2.28
		c1.063-0.361,1.881-1.121,1.881-2.242c0-0.988-0.589-2.014-2.09-2.014C1175.14-2.871,1174.379-1.958,1174.379-0.895z"/>
	<path fill="#FFFFFF" d="M1189.598-2.453h-4.711l-0.476,3.172c0.285-0.038,0.551-0.076,1.007-0.076c0.949,0,1.9,0.209,2.66,0.665
		c0.969,0.551,1.766,1.615,1.766,3.173c0,2.413-1.918,4.217-4.597,4.217c-1.349,0-2.489-0.38-3.077-0.76l0.418-1.273
		c0.512,0.304,1.52,0.684,2.641,0.684c1.576,0,2.926-1.026,2.926-2.679c-0.02-1.596-1.084-2.736-3.553-2.736
		c-0.703,0-1.254,0.076-1.71,0.133l0.798-5.927h5.908V-2.453z"/>
	<path fill="#FFFFFF" d="M1197.141,8.49V5.127h-5.737V4.025l5.509-7.884h1.805v7.675h1.729v1.311h-1.729V8.49H1197.141z
		 M1197.141,3.816v-4.123c0-0.646,0.019-1.292,0.057-1.938h-0.057c-0.381,0.722-0.684,1.254-1.026,1.824l-3.021,4.198v0.038
		H1197.141z"/>
</g>
<g>
	<polygon fill="#C42BCC" points="455.25,-139.5 455.25,-72.5 449.25,-66.5 350.25,-66.5 350.25,-139.5 	"/>
	<rect x="350.75" y="-139.5" fill="#D649E2" width="105" height="13"/>
	<polygon fill="#9F1AAA" points="455.25,-79.5 455.25,-72.5 449.25,-66.5 350.25,-66.5 350.25,-79.5 	"/>
</g>
<g>
	<polygon fill="#61B222" points="343.25,-139.5 343.25,-72.5 337.25,-66.5 238.25,-66.5 238.25,-139.5 	"/>
	<rect x="238.75" y="-139.5" fill="#54BF22" width="105" height="13"/>
	<polygon fill="#338C19" points="343.25,-79.5 343.25,-72.5 337.25,-66.5 238.25,-66.5 238.25,-79.5 	"/>
</g>
<g>
	<polygon fill="#E5173A" points="230.25,-139.5 230.25,-72.5 224.25,-66.5 125.25,-66.5 125.25,-139.5 	"/>
	<rect x="125.25" y="-139.5" fill="#F2254D" width="105" height="13"/>
	<polygon fill="#C61033" points="230.25,-79.5 230.25,-72.5 224.25,-66.5 125.25,-66.5 125.25,-79.5 	"/>
</g>
<polygon fill="#2176CC" points="117.25,-139.5 117.25,-72.5 111.25,-66.5 12.25,-66.5 12.25,-139.5 "/>
<rect x="12.25" y="-139.5" fill="#2285BC" width="105" height="13"/>
<polygon fill="#2168A3" points="117.25,-79.5 117.25,-72.5 111.25,-66.5 12.25,-66.5 12.25,-79.5 "/>
<g>
	<rect x="57.667" y="-135.75" fill="none" width="16.167" height="7.25"/>
	<path fill="#FFFFFF" d="M61.577-133.553c0,1.391-0.845,2.129-1.877,2.129c-1.067,0-1.817-0.828-1.817-2.051
		c0-1.283,0.798-2.123,1.877-2.123C60.863-135.598,61.577-134.752,61.577-133.553z M58.44-133.487c0,0.864,0.468,1.637,1.29,1.637
		c0.828,0,1.295-0.762,1.295-1.679c0-0.803-0.42-1.643-1.29-1.643C58.873-135.172,58.44-134.375,58.44-133.487z"/>
	<path fill="#FFFFFF" d="M62.239-133.445c0-0.372-0.012-0.671-0.024-0.947h0.474l0.024,0.498h0.012
		c0.216-0.354,0.558-0.563,1.032-0.563c0.702,0,1.229,0.594,1.229,1.475c0,1.043-0.635,1.559-1.319,1.559
		c-0.384,0-0.719-0.168-0.893-0.456H62.76v1.577h-0.521V-133.445z M62.76-132.671c0,0.078,0.012,0.15,0.024,0.216
		c0.096,0.366,0.414,0.618,0.792,0.618c0.558,0,0.882-0.456,0.882-1.122c0-0.582-0.306-1.08-0.864-1.08
		c-0.36,0-0.696,0.258-0.797,0.654c-0.018,0.066-0.036,0.144-0.036,0.216V-132.671z"/>
	<path fill="#FFFFFF" d="M65.946-132.846c0.012,0.714,0.468,1.008,0.996,1.008c0.378,0,0.605-0.066,0.804-0.15l0.09,0.377
		c-0.186,0.084-0.504,0.18-0.965,0.18c-0.894,0-1.427-0.588-1.427-1.463s0.516-1.565,1.361-1.565c0.947,0,1.199,0.833,1.199,1.367
		c0,0.108-0.012,0.192-0.018,0.246H65.946z M67.494-133.223c0.006-0.336-0.138-0.858-0.731-0.858c-0.534,0-0.768,0.492-0.81,0.858
		H67.494z"/>
	<path fill="#FFFFFF" d="M68.659-133.607c0-0.3-0.006-0.546-0.024-0.786h0.468l0.03,0.479h0.012c0.144-0.276,0.48-0.545,0.959-0.545
		c0.402,0,1.025,0.24,1.025,1.235v1.733h-0.527v-1.673c0-0.468-0.174-0.858-0.672-0.858c-0.348,0-0.618,0.246-0.708,0.54
		c-0.024,0.066-0.036,0.156-0.036,0.246v1.745h-0.527V-133.607z"/>
</g>
<g>
	<rect x="49.625" y="-120" fill="none" width="30.25" height="13.5"/>
	<path fill="#FFFFFF" d="M50.328-109.645c0-1.558,0.931-2.659,2.45-3.305l-0.019-0.057c-1.368-0.646-1.957-1.709-1.957-2.773
		c0-1.957,1.653-3.287,3.818-3.287c2.394,0,3.591,1.501,3.591,3.04c0,1.045-0.513,2.166-2.033,2.888v0.057
		c1.539,0.608,2.488,1.691,2.488,3.192c0,2.146-1.843,3.59-4.198,3.59C51.886-106.301,50.328-107.84,50.328-109.645z
		 M56.977-109.721c0-1.501-1.045-2.223-2.717-2.698c-1.444,0.418-2.223,1.368-2.223,2.546c-0.057,1.253,0.893,2.355,2.47,2.355
		C56.008-107.517,56.977-108.448,56.977-109.721z M52.379-115.895c0,1.235,0.931,1.9,2.356,2.28
		c1.064-0.361,1.881-1.121,1.881-2.242c0-0.988-0.589-2.014-2.09-2.014C53.14-117.871,52.379-116.958,52.379-115.895z"/>
	<path fill="#FFFFFF" d="M67.597-117.453h-4.711l-0.475,3.172c0.285-0.038,0.551-0.076,1.007-0.076c0.95,0,1.9,0.209,2.66,0.665
		c0.969,0.551,1.767,1.615,1.767,3.173c0,2.413-1.918,4.217-4.597,4.217c-1.349,0-2.489-0.38-3.078-0.76l0.418-1.273
		c0.513,0.304,1.52,0.684,2.641,0.684c1.577,0,2.926-1.026,2.926-2.679c-0.019-1.596-1.083-2.736-3.553-2.736
		c-0.703,0-1.254,0.076-1.709,0.133l0.798-5.927h5.908V-117.453z"/>
	<path fill="#FFFFFF" d="M75.14-106.51v-3.362h-5.737v-1.102l5.509-7.884h1.805v7.675h1.729v1.311h-1.729v3.362H75.14z
		 M75.14-111.184v-4.123c0-0.646,0.019-1.292,0.057-1.938H75.14c-0.38,0.722-0.684,1.254-1.026,1.824l-3.021,4.198v0.038H75.14z"/>
</g>
<g>
	<g>
		<polygon fill="#2176CC" points="198.322,263.434 198.322,348.394 190.715,356.002 65.177,356.002 65.177,263.434 		"/>
		<rect x="65.177" y="263.434" fill="#2581CC" width="133.145" height="16.484"/>
		<polygon fill="#2168A3" points="198.322,339.518 198.322,348.394 190.715,356.002 65.177,356.002 65.177,339.518 		"/>
	</g>
	<g>
		<rect x="118.625" y="270.184" fill="none" width="28.25" height="7.25"/>
		<path fill="#FFFFFF" d="M119.848,270.845h-1.229v-0.444h2.992v0.444h-1.235v3.598h-0.528V270.845z"/>
		<path fill="#FFFFFF" d="M124.246,272.968c0,1.073-0.744,1.541-1.445,1.541c-0.786,0-1.391-0.576-1.391-1.493
			c0-0.971,0.636-1.541,1.439-1.541C123.682,271.475,124.246,272.081,124.246,272.968z M121.943,272.998
			c0,0.636,0.366,1.116,0.881,1.116c0.504,0,0.881-0.474,0.881-1.127c0-0.492-0.246-1.116-0.869-1.116
			C122.212,271.871,121.943,272.446,121.943,272.998z"/>
		<path fill="#FFFFFF" d="M125.548,270.708v0.833h0.756v0.402h-0.756v1.565c0,0.36,0.102,0.564,0.396,0.564
			c0.138,0,0.24-0.018,0.306-0.036l0.024,0.396c-0.102,0.042-0.264,0.072-0.468,0.072c-0.246,0-0.443-0.078-0.569-0.222
			c-0.15-0.156-0.204-0.414-0.204-0.755v-1.583h-0.45v-0.402h0.45v-0.696L125.548,270.708z"/>
		<path fill="#FFFFFF" d="M128.506,274.443l-0.042-0.366h-0.018c-0.162,0.228-0.474,0.432-0.888,0.432
			c-0.587,0-0.887-0.414-0.887-0.833c0-0.702,0.624-1.085,1.745-1.08v-0.06c0-0.24-0.066-0.672-0.66-0.672
			c-0.27,0-0.552,0.084-0.756,0.216l-0.12-0.348c0.24-0.156,0.587-0.258,0.953-0.258c0.888,0,1.104,0.605,1.104,1.187v1.085
			c0,0.252,0.012,0.498,0.048,0.696H128.506z M128.428,272.962c-0.576-0.012-1.229,0.09-1.229,0.653
			c0,0.342,0.228,0.504,0.498,0.504c0.378,0,0.618-0.24,0.702-0.486c0.018-0.054,0.03-0.114,0.03-0.168V272.962z"/>
		<path fill="#FFFFFF" d="M129.791,270.186h0.527v4.258h-0.527V270.186z"/>
		<path fill="#FFFFFF" d="M135.951,272.38c0,1.391-0.845,2.129-1.877,2.129c-1.067,0-1.817-0.828-1.817-2.051
			c0-1.283,0.798-2.123,1.877-2.123C135.237,270.335,135.951,271.181,135.951,272.38z M132.814,272.446
			c0,0.864,0.468,1.637,1.29,1.637c0.828,0,1.295-0.762,1.295-1.679c0-0.803-0.42-1.643-1.29-1.643
			C133.247,270.761,132.814,271.559,132.814,272.446z"/>
		<path fill="#FFFFFF" d="M136.613,272.488c0-0.372-0.012-0.671-0.024-0.947h0.474l0.024,0.498h0.012
			c0.216-0.354,0.558-0.563,1.032-0.563c0.702,0,1.229,0.594,1.229,1.475c0,1.043-0.635,1.559-1.319,1.559
			c-0.384,0-0.719-0.168-0.893-0.456h-0.012v1.577h-0.521V272.488z M137.134,273.262c0,0.078,0.012,0.15,0.024,0.216
			c0.096,0.366,0.414,0.618,0.792,0.618c0.558,0,0.882-0.456,0.882-1.122c0-0.582-0.306-1.08-0.864-1.08
			c-0.36,0-0.696,0.258-0.797,0.654c-0.018,0.066-0.036,0.144-0.036,0.216V273.262z"/>
		<path fill="#FFFFFF" d="M140.32,273.088c0.012,0.714,0.468,1.008,0.996,1.008c0.378,0,0.605-0.066,0.804-0.15l0.09,0.377
			c-0.186,0.084-0.504,0.18-0.965,0.18c-0.894,0-1.427-0.588-1.427-1.463s0.516-1.565,1.361-1.565c0.947,0,1.199,0.833,1.199,1.367
			c0,0.108-0.012,0.192-0.018,0.246H140.32z M141.868,272.71c0.006-0.336-0.138-0.858-0.731-0.858c-0.534,0-0.768,0.492-0.81,0.858
			H141.868z"/>
		<path fill="#FFFFFF" d="M143.033,272.327c0-0.3-0.006-0.546-0.024-0.786h0.468l0.03,0.479h0.012
			c0.144-0.276,0.48-0.545,0.959-0.545c0.402,0,1.025,0.24,1.025,1.235v1.733h-0.527v-1.673c0-0.468-0.174-0.858-0.672-0.858
			c-0.348,0-0.618,0.246-0.708,0.54c-0.024,0.066-0.036,0.156-0.036,0.246v1.745h-0.527V272.327z"/>
	</g>
	<g>
		<rect x="116.625" y="291.718" fill="none" width="30.25" height="13.5"/>
		<path fill="#FFFFFF" d="M117.328,302.073c0-1.558,0.931-2.659,2.45-3.305l-0.019-0.057c-1.368-0.646-1.957-1.709-1.957-2.773
			c0-1.957,1.653-3.287,3.818-3.287c2.394,0,3.591,1.501,3.591,3.04c0,1.045-0.513,2.166-2.033,2.888v0.057
			c1.539,0.608,2.488,1.691,2.488,3.192c0,2.146-1.843,3.59-4.198,3.59C118.886,305.417,117.328,303.878,117.328,302.073z
			 M123.977,301.997c0-1.501-1.045-2.223-2.717-2.698c-1.444,0.418-2.223,1.368-2.223,2.546c-0.057,1.253,0.893,2.355,2.47,2.355
			C123.008,304.201,123.977,303.27,123.977,301.997z M119.379,295.823c0,1.235,0.931,1.9,2.356,2.28
			c1.064-0.361,1.881-1.121,1.881-2.242c0-0.988-0.589-2.014-2.09-2.014C120.14,293.847,119.379,294.759,119.379,295.823z"/>
		<path fill="#FFFFFF" d="M134.597,294.265h-4.711l-0.475,3.172c0.285-0.038,0.551-0.076,1.007-0.076c0.95,0,1.9,0.209,2.66,0.665
			c0.969,0.551,1.767,1.615,1.767,3.173c0,2.413-1.918,4.217-4.597,4.217c-1.349,0-2.489-0.38-3.078-0.76l0.418-1.273
			c0.513,0.304,1.52,0.684,2.641,0.684c1.577,0,2.926-1.026,2.926-2.679c-0.019-1.596-1.083-2.736-3.553-2.736
			c-0.703,0-1.254,0.076-1.709,0.133l0.798-5.927h5.908V294.265z"/>
		<path fill="#FFFFFF" d="M142.14,305.208v-3.362h-5.737v-1.102l5.509-7.884h1.805v7.675h1.729v1.311h-1.729v3.362H142.14z
			 M142.14,300.534v-4.123c0-0.646,0.019-1.292,0.057-1.938h-0.057c-0.38,0.722-0.684,1.254-1.026,1.824l-3.021,4.198v0.038H142.14z
			"/>
	</g>
</g>
<g>
	<polygon fill="#C42BCC" points="99.322,143.716 99.322,228.676 91.715,236.284 -33.823,236.284 -33.823,143.716 	"/>
	<rect x="-33.823" y="143.716" fill="#D649E2" width="133.145" height="16.484"/>
	<polygon fill="#9F1AAA" points="99.322,219.8 99.322,228.676 91.715,236.284 -33.823,236.284 -33.823,219.8 	"/>
	<g>
		<rect x="10.5" y="150" fill="none" width="46.5" height="7.25"/>
		<path fill="#FFFFFF" d="M11.478,150.218v4.042h-0.522v-4.042H11.478z"/>
		<path fill="#FFFFFF" d="M12.432,152.143c0-0.3-0.006-0.546-0.024-0.786h0.468l0.03,0.479h0.012
			c0.144-0.276,0.48-0.545,0.959-0.545c0.402,0,1.025,0.24,1.025,1.235v1.733h-0.527v-1.673c0-0.468-0.174-0.858-0.672-0.858
			c-0.348,0-0.618,0.246-0.708,0.54c-0.024,0.066-0.036,0.156-0.036,0.246v1.745h-0.527V152.143z"/>
		<path fill="#FFFFFF" d="M16.374,150.524v0.833h0.756v0.402h-0.756v1.565c0,0.36,0.102,0.564,0.396,0.564
			c0.138,0,0.24-0.018,0.306-0.036l0.024,0.396c-0.102,0.042-0.264,0.072-0.468,0.072c-0.246,0-0.443-0.078-0.569-0.222
			c-0.15-0.156-0.204-0.414-0.204-0.755v-1.583h-0.45v-0.402h0.45v-0.696L16.374,150.524z"/>
		<path fill="#FFFFFF" d="M17.981,152.904c0.012,0.714,0.468,1.008,0.996,1.008c0.378,0,0.605-0.066,0.804-0.15l0.09,0.377
			c-0.186,0.084-0.504,0.18-0.965,0.18c-0.894,0-1.427-0.588-1.427-1.463s0.516-1.565,1.361-1.565c0.947,0,1.199,0.833,1.199,1.367
			c0,0.108-0.012,0.192-0.018,0.246H17.981z M19.529,152.527c0.006-0.336-0.138-0.858-0.731-0.858c-0.534,0-0.768,0.492-0.81,0.858
			H19.529z"/>
		<path fill="#FFFFFF" d="M20.694,152.263c0-0.342-0.006-0.635-0.024-0.905h0.462l0.018,0.57h0.024
			c0.132-0.39,0.45-0.636,0.804-0.636c0.06,0,0.102,0.006,0.15,0.018v0.498c-0.054-0.012-0.108-0.018-0.18-0.018
			c-0.372,0-0.635,0.282-0.708,0.678c-0.012,0.072-0.024,0.156-0.024,0.246v1.547h-0.521V152.263z"/>
		<path fill="#FFFFFF" d="M23.009,151.357l0.57,1.631c0.096,0.264,0.174,0.504,0.234,0.744h0.018c0.066-0.24,0.15-0.479,0.246-0.744
			l0.564-1.631h0.551l-1.139,2.902h-0.504l-1.103-2.902H23.009z"/>
		<path fill="#FFFFFF" d="M26.279,150.542c0.006,0.18-0.126,0.324-0.336,0.324c-0.186,0-0.318-0.144-0.318-0.324
			c0-0.186,0.138-0.33,0.33-0.33C26.153,150.212,26.279,150.356,26.279,150.542z M25.691,154.26v-2.902h0.527v2.902H25.691z"/>
		<path fill="#FFFFFF" d="M27.389,152.904c0.012,0.714,0.468,1.008,0.996,1.008c0.378,0,0.605-0.066,0.804-0.15l0.09,0.377
			c-0.186,0.084-0.504,0.18-0.965,0.18c-0.894,0-1.427-0.588-1.427-1.463s0.516-1.565,1.361-1.565c0.947,0,1.199,0.833,1.199,1.367
			c0,0.108-0.012,0.192-0.018,0.246H27.389z M28.936,152.527c0.006-0.336-0.138-0.858-0.731-0.858c-0.534,0-0.768,0.492-0.81,0.858
			H28.936z"/>
		<path fill="#FFFFFF" d="M30.311,151.357l0.384,1.475c0.084,0.324,0.162,0.624,0.216,0.923h0.018
			c0.066-0.293,0.162-0.605,0.258-0.917l0.474-1.481h0.443l0.45,1.451c0.108,0.348,0.192,0.654,0.258,0.947h0.018
			c0.048-0.293,0.126-0.6,0.222-0.941l0.414-1.457h0.522l-0.936,2.902h-0.48l-0.443-1.385c-0.102-0.324-0.186-0.612-0.258-0.954
			h-0.012c-0.072,0.348-0.162,0.648-0.264,0.959l-0.468,1.379h-0.48l-0.875-2.902H30.311z"/>
		<path fill="#FFFFFF" d="M35.807,150.266c0.252-0.042,0.582-0.078,1.001-0.078c0.516,0,0.894,0.12,1.133,0.336
			c0.222,0.192,0.354,0.486,0.354,0.845c0,0.366-0.108,0.654-0.312,0.864c-0.275,0.294-0.726,0.444-1.235,0.444
			c-0.156,0-0.3-0.006-0.42-0.036v1.619h-0.522V150.266z M36.329,152.215c0.114,0.03,0.258,0.042,0.432,0.042
			c0.63,0,1.014-0.306,1.014-0.863c0-0.534-0.378-0.792-0.954-0.792c-0.228,0-0.402,0.018-0.492,0.042V152.215z"/>
		<path fill="#FFFFFF" d="M38.885,152.263c0-0.342-0.006-0.635-0.024-0.905h0.462l0.018,0.57h0.024
			c0.132-0.39,0.45-0.636,0.804-0.636c0.06,0,0.102,0.006,0.15,0.018v0.498c-0.054-0.012-0.108-0.018-0.18-0.018
			c-0.372,0-0.635,0.282-0.708,0.678c-0.012,0.072-0.024,0.156-0.024,0.246v1.547h-0.521V152.263z"/>
		<path fill="#FFFFFF" d="M43.414,152.785c0,1.073-0.744,1.541-1.445,1.541c-0.786,0-1.391-0.576-1.391-1.493
			c0-0.971,0.636-1.541,1.439-1.541C42.85,151.292,43.414,151.897,43.414,152.785z M41.111,152.814c0,0.636,0.366,1.116,0.881,1.116
			c0.504,0,0.881-0.474,0.881-1.127c0-0.492-0.246-1.116-0.869-1.116C41.38,151.687,41.111,152.263,41.111,152.814z"/>
		<path fill="#FFFFFF" d="M46.582,151.357c-0.012,0.21-0.024,0.444-0.024,0.797v1.685c0,0.666-0.132,1.074-0.414,1.325
			c-0.282,0.264-0.689,0.348-1.055,0.348c-0.348,0-0.732-0.084-0.965-0.24l0.132-0.402c0.192,0.12,0.492,0.228,0.852,0.228
			c0.54,0,0.936-0.282,0.936-1.013v-0.324H46.03c-0.162,0.27-0.474,0.485-0.923,0.485c-0.72,0-1.235-0.611-1.235-1.415
			c0-0.983,0.642-1.541,1.307-1.541c0.504,0,0.78,0.264,0.905,0.503h0.012l0.024-0.438H46.582z M46.036,152.503
			c0-0.09-0.006-0.168-0.03-0.24c-0.096-0.306-0.354-0.558-0.738-0.558c-0.503,0-0.863,0.426-0.863,1.098
			c0,0.569,0.288,1.043,0.857,1.043c0.324,0,0.618-0.204,0.731-0.54c0.03-0.09,0.042-0.192,0.042-0.282V152.503z"/>
		<path fill="#FFFFFF" d="M47.399,152.263c0-0.342-0.006-0.635-0.024-0.905h0.462l0.018,0.57h0.024
			c0.132-0.39,0.45-0.636,0.804-0.636c0.06,0,0.102,0.006,0.15,0.018v0.498c-0.054-0.012-0.108-0.018-0.18-0.018
			c-0.372,0-0.635,0.282-0.708,0.678c-0.012,0.072-0.024,0.156-0.024,0.246v1.547h-0.521V152.263z"/>
		<path fill="#FFFFFF" d="M49.594,152.904c0.012,0.714,0.468,1.008,0.996,1.008c0.378,0,0.605-0.066,0.804-0.15l0.09,0.377
			c-0.186,0.084-0.504,0.18-0.965,0.18c-0.894,0-1.427-0.588-1.427-1.463s0.516-1.565,1.361-1.565c0.947,0,1.199,0.833,1.199,1.367
			c0,0.108-0.012,0.192-0.018,0.246H49.594z M51.142,152.527c0.006-0.336-0.138-0.858-0.731-0.858c-0.534,0-0.768,0.492-0.81,0.858
			H51.142z"/>
		<path fill="#FFFFFF" d="M52.234,153.72c0.156,0.102,0.432,0.21,0.696,0.21c0.384,0,0.563-0.192,0.563-0.432
			c0-0.252-0.15-0.39-0.54-0.534c-0.522-0.186-0.768-0.474-0.768-0.821c0-0.468,0.378-0.852,1.001-0.852
			c0.294,0,0.552,0.084,0.713,0.18l-0.132,0.384c-0.114-0.072-0.324-0.168-0.594-0.168c-0.312,0-0.485,0.18-0.485,0.396
			c0,0.24,0.174,0.348,0.551,0.492c0.504,0.192,0.762,0.444,0.762,0.875c0,0.51-0.396,0.87-1.085,0.87
			c-0.318,0-0.611-0.078-0.815-0.198L52.234,153.72z"/>
		<path fill="#FFFFFF" d="M54.61,153.72c0.156,0.102,0.432,0.21,0.696,0.21c0.384,0,0.563-0.192,0.563-0.432
			c0-0.252-0.15-0.39-0.54-0.534c-0.522-0.186-0.768-0.474-0.768-0.821c0-0.468,0.378-0.852,1.001-0.852
			c0.294,0,0.552,0.084,0.713,0.18l-0.132,0.384c-0.114-0.072-0.324-0.168-0.594-0.168c-0.312,0-0.485,0.18-0.485,0.396
			c0,0.24,0.174,0.348,0.551,0.492c0.504,0.192,0.762,0.444,0.762,0.875c0,0.51-0.396,0.87-1.085,0.87
			c-0.318,0-0.611-0.078-0.815-0.198L54.61,153.72z"/>
	</g>
	<g>
		<rect x="13.25" y="171.534" fill="none" width="39" height="13.5"/>
		<path fill="#FFFFFF" d="M17.733,174.233h-0.038l-2.146,1.159l-0.323-1.273l2.698-1.444h1.425v12.348h-1.615V174.233z"/>
		<path fill="#FFFFFF" d="M24.25,183.105c0.475,0.304,1.577,0.779,2.735,0.779c2.147,0,2.812-1.368,2.793-2.394
			c-0.019-1.729-1.577-2.469-3.192-2.469h-0.931v-1.254h0.931c1.216,0,2.755-0.627,2.755-2.09c0-0.988-0.627-1.862-2.166-1.862
			c-0.988,0-1.938,0.437-2.469,0.817l-0.437-1.216c0.646-0.475,1.899-0.95,3.229-0.95c2.432,0,3.533,1.444,3.533,2.944
			c0,1.273-0.76,2.356-2.279,2.907v0.038c1.52,0.304,2.754,1.444,2.754,3.172c0,1.976-1.539,3.705-4.502,3.705
			c-1.387,0-2.603-0.437-3.21-0.836L24.25,183.105z"/>
		<path fill="#FFFFFF" d="M40.969,174.082h-4.711l-0.475,3.172c0.285-0.038,0.551-0.076,1.007-0.076c0.95,0,1.9,0.209,2.66,0.665
			c0.969,0.551,1.767,1.615,1.767,3.173c0,2.413-1.918,4.217-4.597,4.217c-1.349,0-2.489-0.38-3.078-0.76l0.418-1.273
			c0.513,0.304,1.52,0.684,2.641,0.684c1.577,0,2.926-1.026,2.926-2.679c-0.019-1.596-1.083-2.736-3.553-2.736
			c-0.703,0-1.254,0.076-1.71,0.133l0.798-5.927h5.908V174.082z"/>
		<path fill="#FFFFFF" d="M51.551,178.717c0,4.198-1.558,6.516-4.293,6.516c-2.413,0-4.046-2.261-4.084-6.345
			c0-4.141,1.786-6.421,4.293-6.421C50.07,172.467,51.551,174.785,51.551,178.717z M44.845,178.907c0,3.21,0.988,5.034,2.508,5.034
			c1.71,0,2.527-1.995,2.527-5.148c0-3.04-0.779-5.034-2.508-5.034C45.909,173.759,44.845,175.544,44.845,178.907z"/>
	</g>
</g>
<g>
	<polygon fill="#1DDD6B" points="724.322,-152.284 724.322,-67.324 716.715,-59.716 591.177,-59.716 591.177,-152.284 	"/>
	<rect x="591.25" y="-152.5" fill="#30E278" width="133" height="17"/>
	<polygon fill="#1DB75B" points="724.322,-76.2 724.322,-67.324 716.715,-59.716 591.177,-59.716 591.177,-76.2 	"/>
	<g>
		<rect x="620.083" y="-146.167" fill="none" width="75.333" height="10.367"/>
		<path fill="#FFFFFF" d="M650.715-145.949h0.521v2.705c0,1.074-0.527,1.403-1.224,1.403c-0.192,0-0.426-0.042-0.558-0.096
			l0.078-0.426c0.107,0.042,0.264,0.078,0.438,0.078c0.468,0,0.744-0.21,0.744-1.001V-145.949z"/>
		<path fill="#FFFFFF" d="M654.716-143.382c0,1.073-0.743,1.541-1.445,1.541c-0.786,0-1.392-0.576-1.392-1.493
			c0-0.972,0.636-1.541,1.439-1.541C654.152-144.875,654.716-144.27,654.716-143.382z M652.413-143.352
			c0,0.636,0.366,1.116,0.882,1.116c0.504,0,0.881-0.474,0.881-1.127c0-0.492-0.246-1.116-0.869-1.116
			C652.683-144.479,652.413-143.904,652.413-143.352z"/>
		<path fill="#FFFFFF" d="M655.971-145.625c0.006,0.18-0.126,0.324-0.336,0.324c-0.186,0-0.318-0.144-0.318-0.324
			c0-0.186,0.139-0.33,0.33-0.33C655.845-145.955,655.971-145.811,655.971-145.625z M655.383-141.907v-2.902h0.527v2.902H655.383z"
			/>
		<path fill="#FFFFFF" d="M656.787-144.023c0-0.3-0.006-0.546-0.024-0.786h0.468l0.03,0.479h0.012
			c0.144-0.276,0.479-0.545,0.96-0.545c0.401,0,1.025,0.24,1.025,1.235v1.733h-0.527v-1.673c0-0.468-0.175-0.858-0.672-0.858
			c-0.348,0-0.618,0.246-0.708,0.54c-0.024,0.066-0.036,0.156-0.036,0.246v1.745h-0.527V-144.023z"/>
		<path fill="#FFFFFF" d="M660.41-143.262c0.013,0.714,0.469,1.008,0.996,1.008c0.378,0,0.605-0.066,0.804-0.15l0.09,0.377
			c-0.187,0.084-0.504,0.18-0.966,0.18c-0.893,0-1.427-0.588-1.427-1.463s0.516-1.565,1.361-1.565c0.947,0,1.199,0.833,1.199,1.367
			c0,0.108-0.013,0.192-0.019,0.246H660.41z M661.958-143.64c0.006-0.336-0.138-0.857-0.731-0.857c-0.533,0-0.768,0.492-0.81,0.857
			H661.958z"/>
		<path fill="#FFFFFF" d="M665.629-146.165v3.508c0,0.258,0.006,0.552,0.024,0.75h-0.474l-0.023-0.504h-0.013
			c-0.161,0.324-0.516,0.57-0.989,0.57c-0.701,0-1.241-0.594-1.241-1.475c-0.007-0.965,0.594-1.559,1.302-1.559
			c0.443,0,0.743,0.21,0.875,0.444h0.012v-1.733H665.629z M665.102-143.628c0-0.066-0.006-0.156-0.023-0.222
			c-0.078-0.336-0.366-0.612-0.762-0.612c-0.546,0-0.869,0.48-0.869,1.122c0,0.587,0.287,1.073,0.857,1.073
			c0.354,0,0.678-0.234,0.773-0.629c0.018-0.072,0.023-0.144,0.023-0.228V-143.628z"/>
	</g>
	<g>
		<rect x="616" y="-124" fill="none" width="83.5" height="29.5"/>
		<path fill="#FFFFFF" d="M644.384-112.429c0.475,0.304,1.577,0.779,2.735,0.779c2.146,0,2.812-1.368,2.793-2.394
			c-0.02-1.729-1.577-2.469-3.192-2.469h-0.931v-1.254h0.931c1.216,0,2.754-0.627,2.754-2.09c0-0.988-0.626-1.862-2.166-1.862
			c-0.988,0-1.938,0.437-2.469,0.817l-0.437-1.216c0.646-0.475,1.899-0.95,3.229-0.95c2.432,0,3.534,1.444,3.534,2.944
			c0,1.273-0.76,2.356-2.28,2.907v0.038c1.52,0.304,2.754,1.444,2.754,3.172c0,1.976-1.539,3.705-4.502,3.705
			c-1.387,0-2.603-0.437-3.21-0.836L644.384-112.429z"/>
		<path fill="#FFFFFF" d="M658.898-110.51v-3.362h-5.736v-1.102l5.508-7.884h1.806v7.675h1.729v1.311h-1.729v3.362H658.898z
			 M658.898-115.184v-4.123c0-0.646,0.02-1.292,0.057-1.938h-0.057c-0.38,0.722-0.684,1.254-1.025,1.824l-3.021,4.198v0.038H658.898
			z"/>
		<path fill="#FFFFFF" d="M670.849-121.453h-4.711l-0.476,3.172c0.285-0.038,0.551-0.076,1.008-0.076
			c0.949,0,1.899,0.209,2.659,0.665c0.969,0.551,1.767,1.615,1.767,3.173c0,2.413-1.918,4.217-4.598,4.217
			c-1.348,0-2.488-0.38-3.077-0.76l0.418-1.273c0.513,0.304,1.52,0.684,2.641,0.684c1.577,0,2.926-1.026,2.926-2.679
			c-0.019-1.596-1.083-2.736-3.553-2.736c-0.702,0-1.254,0.076-1.71,0.133l0.799-5.927h5.907V-121.453z"/>
	</g>
</g>
<g>
	<g>
		<polygon fill="#61B222" points="521.615,264.042 521.615,348.404 514.061,355.958 389.405,355.958 389.405,264.042 		"/>
		<rect x="389.385" y="264.042" fill="#5ACE1D" width="132.21" height="16.369"/>
		<polygon fill="#338C19" points="521.615,339.59 521.615,348.404 514.061,355.958 389.405,355.958 389.405,339.59 		"/>
	</g>
	<g>
		<rect x="417.824" y="270.333" fill="none" width="75.333" height="10.367"/>
		<path fill="#FFFFFF" d="M439.284,273.958c0.234,0.144,0.576,0.264,0.936,0.264c0.534,0,0.846-0.282,0.846-0.69
			c0-0.377-0.216-0.594-0.762-0.803c-0.66-0.234-1.067-0.576-1.067-1.146c0-0.63,0.521-1.098,1.307-1.098
			c0.414,0,0.714,0.096,0.894,0.198l-0.144,0.426c-0.132-0.072-0.402-0.192-0.768-0.192c-0.552,0-0.762,0.33-0.762,0.605
			c0,0.378,0.246,0.563,0.804,0.78c0.684,0.264,1.032,0.593,1.032,1.187c0,0.624-0.462,1.164-1.416,1.164
			c-0.39,0-0.815-0.114-1.031-0.258L439.284,273.958z"/>
		<path fill="#FFFFFF" d="M444.959,273.118c0,1.073-0.744,1.541-1.445,1.541c-0.786,0-1.391-0.576-1.391-1.493
			c0-0.972,0.635-1.541,1.439-1.541C444.395,271.625,444.959,272.23,444.959,273.118z M442.656,273.148
			c0,0.636,0.366,1.116,0.881,1.116c0.504,0,0.881-0.474,0.881-1.127c0-0.492-0.246-1.116-0.869-1.116
			C442.926,272.021,442.656,272.596,442.656,273.148z"/>
		<path fill="#FFFFFF" d="M448.055,273.802c0,0.3,0.006,0.563,0.024,0.792h-0.468l-0.03-0.474h-0.012
			c-0.138,0.234-0.444,0.54-0.959,0.54c-0.456,0-1.001-0.252-1.001-1.271v-1.697h0.527v1.607c0,0.552,0.168,0.924,0.648,0.924
			c0.354,0,0.6-0.246,0.695-0.48c0.03-0.078,0.048-0.174,0.048-0.27v-1.781h0.527V273.802z"/>
		<path fill="#FFFFFF" d="M448.933,272.596c0-0.342-0.006-0.635-0.024-0.905h0.462l0.018,0.57h0.024
			c0.132-0.39,0.45-0.636,0.804-0.636c0.06,0,0.102,0.006,0.15,0.018v0.498c-0.054-0.012-0.108-0.018-0.18-0.018
			c-0.372,0-0.636,0.282-0.708,0.678c-0.012,0.072-0.024,0.156-0.024,0.246v1.547h-0.521V272.596z"/>
		<path fill="#FFFFFF" d="M452.903,274.485c-0.138,0.072-0.444,0.168-0.834,0.168c-0.875,0-1.445-0.594-1.445-1.481
			c0-0.894,0.611-1.541,1.559-1.541c0.312,0,0.587,0.078,0.731,0.15l-0.12,0.408c-0.125-0.072-0.324-0.138-0.611-0.138
			c-0.666,0-1.025,0.492-1.025,1.097c0,0.672,0.432,1.085,1.007,1.085c0.3,0,0.498-0.078,0.647-0.144L452.903,274.485z"/>
		<path fill="#FFFFFF" d="M453.78,273.238c0.012,0.714,0.468,1.008,0.996,1.008c0.378,0,0.605-0.066,0.804-0.15l0.09,0.377
			c-0.186,0.084-0.504,0.18-0.965,0.18c-0.894,0-1.427-0.588-1.427-1.463s0.516-1.565,1.361-1.565c0.947,0,1.199,0.833,1.199,1.367
			c0,0.108-0.012,0.192-0.018,0.246H453.78z M455.327,272.86c0.006-0.336-0.138-0.857-0.731-0.857c-0.534,0-0.768,0.492-0.81,0.857
			H455.327z"/>
		<path fill="#FFFFFF" d="M458.999,270.335v3.508c0,0.258,0.006,0.552,0.024,0.75h-0.474l-0.024-0.504h-0.012
			c-0.162,0.324-0.516,0.57-0.989,0.57c-0.702,0-1.241-0.594-1.241-1.475c-0.006-0.965,0.594-1.559,1.301-1.559
			c0.444,0,0.744,0.21,0.875,0.444h0.012v-1.733H458.999z M458.471,272.872c0-0.066-0.006-0.156-0.024-0.222
			c-0.078-0.336-0.366-0.612-0.761-0.612c-0.546,0-0.87,0.48-0.87,1.122c0,0.587,0.288,1.073,0.857,1.073
			c0.354,0,0.678-0.234,0.773-0.629c0.018-0.072,0.024-0.144,0.024-0.228V272.872z"/>
		<path fill="#FFFFFF" d="M461.166,274.593v-4.042h0.57l1.295,2.045c0.3,0.474,0.534,0.9,0.726,1.313l0.012-0.006
			c-0.048-0.54-0.06-1.032-0.06-1.661v-1.691h0.492v4.042h-0.528l-1.283-2.051c-0.282-0.45-0.552-0.912-0.756-1.349l-0.018,0.006
			c0.03,0.51,0.042,0.995,0.042,1.667v1.727H461.166z"/>
		<path fill="#FFFFFF" d="M465.389,273.238c0.012,0.714,0.468,1.008,0.996,1.008c0.378,0,0.605-0.066,0.804-0.15l0.09,0.377
			c-0.186,0.084-0.504,0.18-0.965,0.18c-0.894,0-1.427-0.588-1.427-1.463s0.516-1.565,1.361-1.565c0.947,0,1.199,0.833,1.199,1.367
			c0,0.108-0.012,0.192-0.018,0.246H465.389z M466.937,272.86c0.006-0.336-0.138-0.857-0.731-0.857c-0.534,0-0.768,0.492-0.81,0.857
			H466.937z"/>
		<path fill="#FFFFFF" d="M468.311,271.691l0.384,1.475c0.084,0.324,0.162,0.624,0.216,0.923h0.018
			c0.066-0.293,0.162-0.605,0.258-0.917l0.474-1.481h0.443l0.45,1.451c0.108,0.348,0.192,0.654,0.258,0.947h0.018
			c0.048-0.293,0.125-0.6,0.222-0.941l0.414-1.457h0.522l-0.936,2.902h-0.48l-0.443-1.385c-0.102-0.324-0.186-0.612-0.258-0.954
			h-0.012c-0.072,0.348-0.162,0.648-0.264,0.959l-0.468,1.379h-0.48l-0.875-2.902H468.311z"/>
	</g>
	<g>
		<rect x="413.74" y="292.5" fill="none" width="83.5" height="29.5"/>
		<path fill="#FFFFFF" d="M445.354,295.199h-0.038l-2.146,1.159l-0.323-1.273l2.698-1.444h1.425v12.348h-1.615V295.199z"/>
		<path fill="#FFFFFF" d="M456.639,305.99v-3.362h-5.737v-1.102l5.509-7.884h1.805v7.675h1.729v1.311h-1.729v3.362H456.639z
			 M456.639,301.316v-4.123c0-0.646,0.019-1.292,0.057-1.938h-0.057c-0.38,0.722-0.684,1.254-1.026,1.824l-3.021,4.198v0.038
			H456.639z"/>
		<path fill="#FFFFFF" d="M466.385,305.99v-3.362h-5.737v-1.102l5.509-7.884h1.805v7.675h1.729v1.311h-1.729v3.362H466.385z
			 M466.385,301.316v-4.123c0-0.646,0.019-1.292,0.057-1.938h-0.057c-0.38,0.722-0.684,1.254-1.026,1.824l-3.021,4.198v0.038
			H466.385z"/>
	</g>
</g>
<g>
	<g>
		<polygon fill="#E5173A" points="684.997,263.552 684.997,350.648 677.197,358.448 548.502,358.448 548.502,263.552 		"/>
		<rect x="548.502" y="263.552" fill="#F2254D" width="136.495" height="16.899"/>
		<polygon fill="#C61033" points="684.997,341.549 684.997,350.648 677.197,358.448 548.502,358.448 548.502,341.549 		"/>
	</g>
	<g>
		<rect x="580.583" y="270.417" fill="none" width="75.333" height="10.367"/>
		<path fill="#FFFFFF" d="M608.667,270.683c0.252-0.042,0.582-0.078,1.001-0.078c0.516,0,0.894,0.12,1.134,0.336
			c0.222,0.192,0.354,0.486,0.354,0.845c0,0.366-0.108,0.654-0.312,0.864c-0.275,0.294-0.726,0.444-1.235,0.444
			c-0.156,0-0.3-0.006-0.42-0.036v1.619h-0.522V270.683z M609.189,272.631c0.114,0.03,0.258,0.042,0.432,0.042
			c0.63,0,1.014-0.306,1.014-0.863c0-0.534-0.378-0.792-0.954-0.792c-0.228,0-0.402,0.018-0.492,0.042V272.631z"/>
		<path fill="#FFFFFF" d="M612.333,270.958c0.006,0.18-0.126,0.324-0.336,0.324c-0.186,0-0.318-0.144-0.318-0.324
			c0-0.186,0.138-0.33,0.33-0.33C612.207,270.628,612.333,270.772,612.333,270.958z M611.746,274.676v-2.902h0.527v2.902H611.746z"
			/>
		<path fill="#FFFFFF" d="M613.15,272.721c0-0.372-0.012-0.671-0.024-0.947h0.474l0.024,0.498h0.012
			c0.216-0.354,0.558-0.563,1.032-0.563c0.702,0,1.229,0.594,1.229,1.475c0,1.043-0.635,1.559-1.319,1.559
			c-0.384,0-0.719-0.168-0.893-0.456h-0.012v1.577h-0.521V272.721z M613.671,273.495c0,0.078,0.012,0.15,0.024,0.216
			c0.096,0.366,0.414,0.618,0.792,0.618c0.558,0,0.882-0.456,0.882-1.122c0-0.582-0.306-1.08-0.864-1.08
			c-0.36,0-0.696,0.258-0.797,0.654c-0.018,0.066-0.036,0.144-0.036,0.216V273.495z"/>
		<path fill="#FFFFFF" d="M616.857,273.321c0.012,0.714,0.468,1.008,0.996,1.008c0.378,0,0.605-0.066,0.804-0.15l0.09,0.377
			c-0.186,0.084-0.504,0.18-0.965,0.18c-0.894,0-1.427-0.588-1.427-1.463s0.516-1.565,1.361-1.565c0.947,0,1.199,0.833,1.199,1.367
			c0,0.108-0.012,0.192-0.018,0.246H616.857z M618.405,272.943c0.006-0.336-0.138-0.857-0.731-0.857
			c-0.534,0-0.768,0.492-0.81,0.857H618.405z"/>
		<path fill="#FFFFFF" d="M619.57,270.418h0.527v4.258h-0.527V270.418z"/>
		<path fill="#FFFFFF" d="M621.573,270.958c0.006,0.18-0.126,0.324-0.336,0.324c-0.186,0-0.318-0.144-0.318-0.324
			c0-0.186,0.138-0.33,0.33-0.33C621.447,270.628,621.573,270.772,621.573,270.958z M620.986,274.676v-2.902h0.527v2.902H620.986z"
			/>
		<path fill="#FFFFFF" d="M622.389,272.56c0-0.3-0.006-0.546-0.024-0.786h0.468l0.03,0.479h0.012
			c0.144-0.276,0.48-0.545,0.959-0.545c0.402,0,1.025,0.24,1.025,1.235v1.733h-0.527v-1.673c0-0.468-0.174-0.858-0.672-0.858
			c-0.348,0-0.618,0.246-0.708,0.54c-0.024,0.066-0.036,0.156-0.036,0.246v1.745h-0.527V272.56z"/>
		<path fill="#FFFFFF" d="M626.013,273.321c0.012,0.714,0.468,1.008,0.996,1.008c0.378,0,0.605-0.066,0.804-0.15l0.09,0.377
			c-0.186,0.084-0.504,0.18-0.965,0.18c-0.894,0-1.427-0.588-1.427-1.463s0.516-1.565,1.361-1.565c0.947,0,1.199,0.833,1.199,1.367
			c0,0.108-0.012,0.192-0.018,0.246H626.013z M627.56,272.943c0.006-0.336-0.138-0.857-0.731-0.857c-0.534,0-0.768,0.492-0.81,0.857
			H627.56z"/>
	</g>
	<g>
		<rect x="576.5" y="292.583" fill="none" width="83.5" height="29.5"/>
		<path fill="#FFFFFF" d="M609.652,306.073v-3.362h-5.737v-1.102l5.509-7.884h1.805v7.675h1.729v1.311h-1.729v3.362H609.652z
			 M609.652,301.399v-4.123c0-0.646,0.019-1.292,0.057-1.938h-0.057c-0.38,0.722-0.684,1.254-1.026,1.824l-3.021,4.198v0.038
			H609.652z"/>
		<path fill="#FFFFFF" d="M621.279,294.902c-0.342-0.019-0.779,0-1.254,0.076c-2.622,0.437-4.008,2.355-4.293,4.388h0.057
			c0.589-0.779,1.615-1.425,2.982-1.425c2.185,0,3.724,1.577,3.724,3.989c0,2.261-1.539,4.351-4.104,4.351
			c-2.641,0-4.369-2.052-4.369-5.262c0-2.432,0.874-4.351,2.09-5.566c1.025-1.007,2.394-1.634,3.951-1.824
			c0.494-0.076,0.912-0.095,1.216-0.095V294.902z M620.804,302.026c0-1.767-1.007-2.831-2.545-2.831
			c-1.007,0-1.938,0.627-2.394,1.52c-0.114,0.19-0.19,0.437-0.19,0.741c0.038,2.033,0.969,3.533,2.716,3.533
			C619.835,304.99,620.804,303.793,620.804,302.026z"/>
		<path fill="#FFFFFF" d="M623.826,302.938c0-1.558,0.931-2.659,2.45-3.305l-0.019-0.057c-1.368-0.646-1.957-1.709-1.957-2.773
			c0-1.957,1.653-3.287,3.818-3.287c2.394,0,3.591,1.501,3.591,3.04c0,1.045-0.513,2.166-2.033,2.888v0.057
			c1.539,0.608,2.488,1.691,2.488,3.192c0,2.146-1.843,3.59-4.198,3.59C625.384,306.282,623.826,304.743,623.826,302.938z
			 M630.475,302.862c0-1.501-1.045-2.223-2.717-2.698c-1.444,0.418-2.223,1.368-2.223,2.546c-0.057,1.253,0.893,2.355,2.47,2.355
			C629.506,305.066,630.475,304.135,630.475,302.862z M625.877,296.688c0,1.235,0.931,1.9,2.356,2.28
			c1.064-0.361,1.881-1.121,1.881-2.242c0-0.988-0.589-2.014-2.09-2.014C626.638,294.712,625.877,295.625,625.877,296.688z"/>
	</g>
</g>
<g>
	<g>
		<polygon fill="#F79B16" points="360.25,262.5 360.25,349.59 352.392,357.5 223.25,357.5 223.25,262.5 		"/>
		<rect x="223.25" y="262.5" fill="#F7A231" width="137" height="16"/>
		<polygon fill="#EF8D0A" points="360.25,340.5 360.25,349.59 352.407,357.5 223.25,357.5 223.25,340.5 		"/>
	</g>
	<g>
		<rect x="254.097" y="268.436" fill="none" width="75.333" height="10.367"/>
		<path fill="#FFFFFF" d="M286.199,270.633c0,1.392-0.845,2.129-1.877,2.129c-1.067,0-1.817-0.828-1.817-2.051
			c0-1.283,0.798-2.123,1.877-2.123C285.486,268.588,286.199,269.434,286.199,270.633z M283.063,270.699
			c0,0.864,0.468,1.637,1.29,1.637c0.828,0,1.295-0.762,1.295-1.679c0-0.803-0.419-1.643-1.289-1.643
			C283.495,269.014,283.063,269.812,283.063,270.699z"/>
		<path fill="#FFFFFF" d="M288.75,272.696v-2.5h-1.217v2.5h-0.522v-2.5h-0.408v-0.402h0.408v-0.096c0-0.408,0.096-0.761,0.324-0.989
			c0.168-0.168,0.408-0.27,0.732-0.27c0.167,0,0.324,0.054,0.414,0.102l-0.108,0.39c-0.078-0.036-0.192-0.072-0.312-0.072
			c-0.414,0-0.527,0.354-0.527,0.81v0.126h1.217v-0.138c0-0.408,0.096-0.779,0.342-1.013c0.198-0.192,0.461-0.27,0.702-0.27
			c0.192,0,0.348,0.042,0.45,0.084l-0.066,0.408c-0.084-0.036-0.186-0.066-0.342-0.066c-0.444,0-0.564,0.396-0.564,0.84v0.156h0.702
			v0.402h-0.696v2.5H288.75z"/>
		<path fill="#FFFFFF" d="M290.671,271.34c0.012,0.714,0.468,1.008,0.996,1.008c0.378,0,0.605-0.066,0.804-0.15l0.09,0.377
			c-0.186,0.084-0.504,0.18-0.965,0.18c-0.894,0-1.427-0.588-1.427-1.463s0.516-1.565,1.361-1.565c0.947,0,1.199,0.833,1.199,1.367
			c0,0.108-0.012,0.192-0.018,0.246H290.671z M292.218,270.963c0.006-0.336-0.138-0.857-0.731-0.857
			c-0.534,0-0.768,0.492-0.81,0.857H292.218z"/>
		<path fill="#FFFFFF" d="M293.383,270.699c0-0.342-0.006-0.635-0.024-0.905h0.462l0.018,0.57h0.024
			c0.132-0.39,0.45-0.636,0.804-0.636c0.06,0,0.102,0.006,0.15,0.018v0.498c-0.054-0.012-0.108-0.018-0.18-0.018
			c-0.372,0-0.635,0.282-0.708,0.678c-0.012,0.072-0.024,0.156-0.024,0.246v1.547h-0.521V270.699z"/>
		<path fill="#FFFFFF" d="M295.579,271.34c0.012,0.714,0.468,1.008,0.996,1.008c0.378,0,0.605-0.066,0.804-0.15l0.09,0.377
			c-0.186,0.084-0.504,0.18-0.965,0.18c-0.894,0-1.427-0.588-1.427-1.463s0.516-1.565,1.361-1.565c0.947,0,1.199,0.833,1.199,1.367
			c0,0.108-0.012,0.192-0.018,0.246H295.579z M297.126,270.963c0.006-0.336-0.138-0.857-0.731-0.857
			c-0.534,0-0.768,0.492-0.81,0.857H297.126z"/>
		<path fill="#FFFFFF" d="M300.797,268.438v3.508c0,0.258,0.006,0.552,0.024,0.75h-0.474l-0.024-0.504h-0.012
			c-0.162,0.324-0.516,0.57-0.989,0.57c-0.702,0-1.241-0.594-1.241-1.475c-0.006-0.965,0.594-1.559,1.301-1.559
			c0.444,0,0.744,0.21,0.875,0.444h0.012v-1.733H300.797z M300.27,270.975c0-0.066-0.006-0.156-0.024-0.222
			c-0.078-0.336-0.366-0.612-0.761-0.612c-0.546,0-0.87,0.48-0.87,1.122c0,0.587,0.288,1.073,0.857,1.073
			c0.354,0,0.678-0.234,0.773-0.629c0.018-0.072,0.024-0.144,0.024-0.228V270.975z"/>
	</g>
	<g>
		<rect x="250.014" y="290.603" fill="none" width="83.5" height="29.5"/>
		<path fill="#FFFFFF" d="M276.753,293.302h-0.038l-2.146,1.159l-0.323-1.273l2.698-1.444h1.425v12.348h-1.615V293.302z"/>
		<path fill="#FFFFFF" d="M282.872,304.092v-1.026l1.311-1.273c3.154-3.001,4.579-4.597,4.598-6.459
			c0-1.254-0.608-2.413-2.451-2.413c-1.121,0-2.052,0.57-2.622,1.045l-0.532-1.178c0.855-0.722,2.071-1.254,3.496-1.254
			c2.66,0,3.78,1.824,3.78,3.59c0,2.28-1.652,4.123-4.255,6.63l-0.988,0.912v0.038h5.547v1.387H282.872z"/>
		<path fill="#FFFFFF" d="M292.618,304.092v-1.026l1.311-1.273c3.154-3.001,4.579-4.597,4.598-6.459
			c0-1.254-0.608-2.413-2.451-2.413c-1.121,0-2.052,0.57-2.622,1.045l-0.532-1.178c0.855-0.722,2.071-1.254,3.496-1.254
			c2.66,0,3.78,1.824,3.78,3.59c0,2.28-1.652,4.123-4.255,6.63l-0.988,0.912v0.038h5.547v1.387H292.618z"/>
		<path fill="#FFFFFF" d="M302.764,302.173c0.475,0.304,1.577,0.779,2.735,0.779c2.147,0,2.812-1.368,2.793-2.394
			c-0.019-1.729-1.577-2.469-3.192-2.469h-0.931v-1.254h0.931c1.216,0,2.755-0.627,2.755-2.09c0-0.988-0.627-1.862-2.166-1.862
			c-0.988,0-1.938,0.437-2.469,0.817l-0.437-1.216c0.646-0.475,1.899-0.95,3.229-0.95c2.432,0,3.533,1.444,3.533,2.944
			c0,1.273-0.76,2.356-2.279,2.907v0.038c1.52,0.304,2.754,1.444,2.754,3.172c0,1.976-1.539,3.705-4.502,3.705
			c-1.387,0-2.603-0.437-3.21-0.836L302.764,302.173z"/>
	</g>
</g>
<g>
	<g>
		<polygon fill="#F79B16" points="601.25,157.5 601.25,244.59 593.392,252.5 464.25,252.5 464.25,157.5 		"/>
		<rect x="464.25" y="157.5" fill="#F7A231" width="137" height="16"/>
		<polygon fill="#EF8D0A" points="601.25,235.5 601.25,244.59 593.407,252.5 464.25,252.5 464.25,235.5 		"/>
	</g>
	<g>
		<rect x="495.097" y="163.436" fill="none" width="75.333" height="10.367"/>
		<path fill="#FFFFFF" d="M527.199,165.633c0,1.392-0.845,2.129-1.877,2.129c-1.067,0-1.817-0.828-1.817-2.051
			c0-1.283,0.798-2.123,1.877-2.123C526.486,163.588,527.199,164.434,527.199,165.633z M524.063,165.699
			c0,0.864,0.468,1.637,1.29,1.637c0.828,0,1.295-0.762,1.295-1.679c0-0.803-0.419-1.643-1.289-1.643
			C524.495,164.014,524.063,164.812,524.063,165.699z"/>
		<path fill="#FFFFFF" d="M529.75,167.696v-2.5h-1.217v2.5h-0.522v-2.5h-0.408v-0.402h0.408v-0.096c0-0.408,0.096-0.761,0.324-0.989
			c0.168-0.168,0.408-0.27,0.732-0.27c0.167,0,0.324,0.054,0.414,0.102l-0.108,0.39c-0.078-0.036-0.192-0.072-0.312-0.072
			c-0.414,0-0.527,0.354-0.527,0.81v0.126h1.217v-0.138c0-0.408,0.096-0.779,0.342-1.013c0.198-0.192,0.461-0.27,0.702-0.27
			c0.192,0,0.348,0.042,0.45,0.084l-0.066,0.408c-0.084-0.036-0.186-0.066-0.342-0.066c-0.444,0-0.564,0.396-0.564,0.84v0.156h0.702
			v0.402h-0.696v2.5H529.75z"/>
		<path fill="#FFFFFF" d="M531.671,166.34c0.012,0.714,0.468,1.008,0.996,1.008c0.378,0,0.605-0.066,0.804-0.15l0.09,0.377
			c-0.186,0.084-0.504,0.18-0.965,0.18c-0.894,0-1.427-0.588-1.427-1.463s0.516-1.565,1.361-1.565c0.947,0,1.199,0.833,1.199,1.367
			c0,0.108-0.012,0.192-0.018,0.246H531.671z M533.218,165.963c0.006-0.336-0.138-0.857-0.731-0.857
			c-0.534,0-0.768,0.492-0.81,0.857H533.218z"/>
		<path fill="#FFFFFF" d="M534.383,165.699c0-0.342-0.006-0.635-0.024-0.905h0.462l0.018,0.57h0.024
			c0.132-0.39,0.45-0.636,0.804-0.636c0.06,0,0.102,0.006,0.15,0.018v0.498c-0.054-0.012-0.108-0.018-0.18-0.018
			c-0.372,0-0.635,0.282-0.708,0.678c-0.012,0.072-0.024,0.156-0.024,0.246v1.547h-0.521V165.699z"/>
		<path fill="#FFFFFF" d="M536.579,166.34c0.012,0.714,0.468,1.008,0.996,1.008c0.378,0,0.605-0.066,0.804-0.15l0.09,0.377
			c-0.186,0.084-0.504,0.18-0.965,0.18c-0.894,0-1.427-0.588-1.427-1.463s0.516-1.565,1.361-1.565c0.947,0,1.199,0.833,1.199,1.367
			c0,0.108-0.012,0.192-0.018,0.246H536.579z M538.126,165.963c0.006-0.336-0.138-0.857-0.731-0.857
			c-0.534,0-0.768,0.492-0.81,0.857H538.126z"/>
		<path fill="#FFFFFF" d="M541.797,163.438v3.508c0,0.258,0.006,0.552,0.024,0.75h-0.474l-0.024-0.504h-0.012
			c-0.162,0.324-0.516,0.57-0.989,0.57c-0.702,0-1.241-0.594-1.241-1.475c-0.006-0.965,0.594-1.559,1.301-1.559
			c0.444,0,0.744,0.21,0.875,0.444h0.012v-1.733H541.797z M541.27,165.975c0-0.066-0.006-0.156-0.024-0.222
			c-0.078-0.336-0.366-0.612-0.761-0.612c-0.546,0-0.87,0.48-0.87,1.122c0,0.587,0.288,1.073,0.857,1.073
			c0.354,0,0.678-0.234,0.773-0.629c0.018-0.072,0.024-0.144,0.024-0.228V165.975z"/>
	</g>
	<g>
		<rect x="491.014" y="185.603" fill="none" width="83.5" height="29.5"/>
		<path fill="#FFFFFF" d="M517.753,188.302h-0.038l-2.146,1.159l-0.323-1.273l2.698-1.444h1.425v12.348h-1.615V188.302z"/>
		<path fill="#FFFFFF" d="M523.872,199.092v-1.026l1.311-1.273c3.154-3.001,4.579-4.597,4.598-6.459
			c0-1.254-0.608-2.413-2.451-2.413c-1.121,0-2.052,0.57-2.622,1.045l-0.532-1.178c0.855-0.722,2.071-1.254,3.496-1.254
			c2.66,0,3.78,1.824,3.78,3.59c0,2.28-1.652,4.123-4.255,6.63l-0.988,0.912v0.038h5.547v1.387H523.872z"/>
		<path fill="#FFFFFF" d="M533.618,199.092v-1.026l1.311-1.273c3.154-3.001,4.579-4.597,4.598-6.459
			c0-1.254-0.608-2.413-2.451-2.413c-1.121,0-2.052,0.57-2.622,1.045l-0.532-1.178c0.855-0.722,2.071-1.254,3.496-1.254
			c2.66,0,3.78,1.824,3.78,3.59c0,2.28-1.652,4.123-4.255,6.63l-0.988,0.912v0.038h5.547v1.387H533.618z"/>
		<path fill="#FFFFFF" d="M543.764,197.173c0.475,0.304,1.577,0.779,2.735,0.779c2.147,0,2.812-1.368,2.793-2.394
			c-0.019-1.729-1.577-2.469-3.192-2.469h-0.931v-1.254h0.931c1.216,0,2.755-0.627,2.755-2.09c0-0.988-0.627-1.862-2.166-1.862
			c-0.988,0-1.938,0.437-2.469,0.817l-0.437-1.216c0.646-0.475,1.899-0.95,3.229-0.95c2.432,0,3.533,1.444,3.533,2.944
			c0,1.273-0.76,2.356-2.279,2.907v0.038c1.52,0.304,2.754,1.444,2.754,3.172c0,1.976-1.539,3.705-4.502,3.705
			c-1.387,0-2.603-0.437-3.21-0.836L543.764,197.173z"/>
	</g>
</g>
<g>
	<g>
		<polygon fill="#F79B16" points="319.25,147.5 319.25,234.59 311.392,242.5 182.25,242.5 182.25,147.5 		"/>
		<rect x="182.25" y="147.5" fill="#F7A231" width="137" height="16"/>
		<polygon fill="#EF8D0A" points="319.25,225.5 319.25,234.59 311.407,242.5 182.25,242.5 182.25,225.5 		"/>
	</g>
	<g>
		<rect x="213.097" y="153.436" fill="none" width="75.333" height="10.367"/>
		<path fill="#FFFFFF" d="M245.199,155.633c0,1.392-0.845,2.129-1.877,2.129c-1.067,0-1.817-0.828-1.817-2.051
			c0-1.283,0.798-2.123,1.877-2.123C244.486,153.588,245.199,154.434,245.199,155.633z M242.063,155.699
			c0,0.864,0.468,1.637,1.29,1.637c0.828,0,1.295-0.762,1.295-1.679c0-0.803-0.419-1.643-1.289-1.643
			C242.495,154.014,242.063,154.812,242.063,155.699z"/>
		<path fill="#FFFFFF" d="M247.75,157.696v-2.5h-1.217v2.5h-0.522v-2.5h-0.408v-0.402h0.408v-0.096c0-0.408,0.096-0.761,0.324-0.989
			c0.168-0.168,0.408-0.27,0.732-0.27c0.167,0,0.324,0.054,0.414,0.102l-0.108,0.39c-0.078-0.036-0.192-0.072-0.312-0.072
			c-0.414,0-0.527,0.354-0.527,0.81v0.126h1.217v-0.138c0-0.408,0.096-0.779,0.342-1.013c0.198-0.192,0.461-0.27,0.702-0.27
			c0.192,0,0.348,0.042,0.45,0.084l-0.066,0.408c-0.084-0.036-0.186-0.066-0.342-0.066c-0.444,0-0.564,0.396-0.564,0.84v0.156h0.702
			v0.402h-0.696v2.5H247.75z"/>
		<path fill="#FFFFFF" d="M249.671,156.34c0.012,0.714,0.468,1.008,0.996,1.008c0.378,0,0.605-0.066,0.804-0.15l0.09,0.377
			c-0.186,0.084-0.504,0.18-0.965,0.18c-0.894,0-1.427-0.588-1.427-1.463s0.516-1.565,1.361-1.565c0.947,0,1.199,0.833,1.199,1.367
			c0,0.108-0.012,0.192-0.018,0.246H249.671z M251.218,155.963c0.006-0.336-0.138-0.857-0.731-0.857
			c-0.534,0-0.768,0.492-0.81,0.857H251.218z"/>
		<path fill="#FFFFFF" d="M252.383,155.699c0-0.342-0.006-0.635-0.024-0.905h0.462l0.018,0.57h0.024
			c0.132-0.39,0.45-0.636,0.804-0.636c0.06,0,0.102,0.006,0.15,0.018v0.498c-0.054-0.012-0.108-0.018-0.18-0.018
			c-0.372,0-0.635,0.282-0.708,0.678c-0.012,0.072-0.024,0.156-0.024,0.246v1.547h-0.521V155.699z"/>
		<path fill="#FFFFFF" d="M254.579,156.34c0.012,0.714,0.468,1.008,0.996,1.008c0.378,0,0.605-0.066,0.804-0.15l0.09,0.377
			c-0.186,0.084-0.504,0.18-0.965,0.18c-0.894,0-1.427-0.588-1.427-1.463s0.516-1.565,1.361-1.565c0.947,0,1.199,0.833,1.199,1.367
			c0,0.108-0.012,0.192-0.018,0.246H254.579z M256.126,155.963c0.006-0.336-0.138-0.857-0.731-0.857
			c-0.534,0-0.768,0.492-0.81,0.857H256.126z"/>
		<path fill="#FFFFFF" d="M259.797,153.438v3.508c0,0.258,0.006,0.552,0.024,0.75h-0.474l-0.024-0.504h-0.012
			c-0.162,0.324-0.516,0.57-0.989,0.57c-0.702,0-1.241-0.594-1.241-1.475c-0.006-0.965,0.594-1.559,1.301-1.559
			c0.444,0,0.744,0.21,0.875,0.444h0.012v-1.733H259.797z M259.27,155.975c0-0.066-0.006-0.156-0.024-0.222
			c-0.078-0.336-0.366-0.612-0.761-0.612c-0.546,0-0.87,0.48-0.87,1.122c0,0.587,0.288,1.073,0.857,1.073
			c0.354,0,0.678-0.234,0.773-0.629c0.018-0.072,0.024-0.144,0.024-0.228V155.975z"/>
	</g>
	<g>
		<rect x="209.014" y="175.603" fill="none" width="83.5" height="29.5"/>
		<path fill="#FFFFFF" d="M235.753,178.302h-0.038l-2.146,1.159l-0.323-1.273l2.698-1.444h1.425v12.348h-1.615V178.302z"/>
		<path fill="#FFFFFF" d="M241.872,189.092v-1.026l1.311-1.273c3.154-3.001,4.579-4.597,4.598-6.459
			c0-1.254-0.608-2.413-2.451-2.413c-1.121,0-2.052,0.57-2.622,1.045l-0.532-1.178c0.855-0.722,2.071-1.254,3.496-1.254
			c2.66,0,3.78,1.824,3.78,3.59c0,2.28-1.652,4.123-4.255,6.63l-0.988,0.912v0.038h5.547v1.387H241.872z"/>
		<path fill="#FFFFFF" d="M251.618,189.092v-1.026l1.311-1.273c3.154-3.001,4.579-4.597,4.598-6.459
			c0-1.254-0.608-2.413-2.451-2.413c-1.121,0-2.052,0.57-2.622,1.045l-0.532-1.178c0.855-0.722,2.071-1.254,3.496-1.254
			c2.66,0,3.78,1.824,3.78,3.59c0,2.28-1.652,4.123-4.255,6.63l-0.988,0.912v0.038h5.547v1.387H251.618z"/>
		<path fill="#FFFFFF" d="M261.764,187.173c0.475,0.304,1.577,0.779,2.735,0.779c2.147,0,2.812-1.368,2.793-2.394
			c-0.019-1.729-1.577-2.469-3.192-2.469h-0.931v-1.254h0.931c1.216,0,2.755-0.627,2.755-2.09c0-0.988-0.627-1.862-2.166-1.862
			c-0.988,0-1.938,0.437-2.469,0.817l-0.437-1.216c0.646-0.475,1.899-0.95,3.229-0.95c2.432,0,3.533,1.444,3.533,2.944
			c0,1.273-0.76,2.356-2.279,2.907v0.038c1.52,0.304,2.754,1.444,2.754,3.172c0,1.976-1.539,3.705-4.502,3.705
			c-1.387,0-2.603-0.437-3.21-0.836L261.764,187.173z"/>
	</g>
</g>
<g>
</g>
<g>
</g>
<path fill="#227FDD" d="M177.44,55.39c-0.19-29.38-23.96-53.14-53.39-53.14c-29.432,0-53.45,23.76-53.641,53.14
	c-0.01,0.06-0.16,0.12-0.16,0.18v0.18c0,0.35,0.2,0.7,0.221,1.04c0.539,29.07,24.379,52.46,53.58,52.46
	c29.199,0,52.789-23.39,53.33-52.46c0.02-0.34-0.131-0.69-0.131-1.04v-0.18C177.25,55.51,177.45,55.45,177.44,55.39z M124.15,17.85
	c20.81,0,37.709,16.78,37.899,37.54c0,0.33,0,0.66-0.01,0.98c-0.33,20.64-17.17,37.28-37.89,37.28
	c-20.721,0-37.561-16.64-37.891-37.28c-0.01-0.32-0.01-0.65-0.01-0.98C86.439,34.63,103.34,17.85,124.15,17.85z"/>
<g>
	<path d="M972.27,283.617c0,2.318-1.408,3.548-3.128,3.548c-1.779,0-3.028-1.379-3.028-3.418c0-2.139,1.329-3.538,3.129-3.538
		C971.08,280.209,972.27,281.618,972.27,283.617z M967.043,283.727c0,1.439,0.779,2.729,2.148,2.729c1.379,0,2.158-1.27,2.158-2.798
		c0-1.339-0.699-2.739-2.148-2.739C967.762,280.918,967.043,282.248,967.043,283.727z"/>
	<path d="M973.373,283.797c0-0.62-0.02-1.119-0.04-1.579h0.79l0.039,0.83h0.021c0.36-0.59,0.93-0.939,1.72-0.939
		c1.169,0,2.049,0.989,2.049,2.458c0,1.739-1.061,2.599-2.199,2.599c-0.64,0-1.199-0.28-1.489-0.759h-0.021v2.628h-0.869V283.797z
		 M974.242,285.086c0,0.13,0.021,0.25,0.041,0.36c0.159,0.609,0.689,1.029,1.318,1.029c0.93,0,1.47-0.76,1.47-1.869
		c0-0.969-0.51-1.799-1.439-1.799c-0.6,0-1.159,0.43-1.329,1.089c-0.03,0.11-0.061,0.24-0.061,0.36V285.086z"/>
	<path d="M979.553,284.796c0.02,1.189,0.779,1.679,1.659,1.679c0.63,0,1.009-0.11,1.339-0.25l0.15,0.63
		c-0.311,0.14-0.84,0.3-1.609,0.3c-1.488,0-2.379-0.979-2.379-2.439c0-1.459,0.859-2.608,2.27-2.608
		c1.578,0,1.998,1.389,1.998,2.279c0,0.18-0.02,0.32-0.029,0.41H979.553z M982.131,284.167c0.011-0.56-0.229-1.43-1.219-1.43
		c-0.89,0-1.279,0.82-1.35,1.43H982.131z"/>
	<path d="M984.072,283.527c0-0.5-0.01-0.91-0.039-1.31h0.779l0.05,0.8h0.021c0.239-0.46,0.799-0.91,1.599-0.91
		c0.67,0,1.709,0.4,1.709,2.059v2.888h-0.88v-2.789c0-0.779-0.289-1.429-1.119-1.429c-0.58,0-1.029,0.41-1.18,0.899
		c-0.039,0.11-0.06,0.26-0.06,0.41v2.908h-0.88V283.527z"/>
	<path d="M959.328,290.399c0.42-0.07,0.97-0.13,1.67-0.13c0.859,0,1.488,0.2,1.889,0.56c0.369,0.32,0.59,0.81,0.59,1.409
		c0,0.61-0.18,1.089-0.52,1.439c-0.461,0.49-1.21,0.739-2.06,0.739c-0.26,0-0.499-0.01-0.7-0.06v2.699h-0.869V290.399z
		 M960.197,293.647c0.19,0.05,0.431,0.07,0.721,0.07c1.049,0,1.688-0.509,1.688-1.439c0-0.89-0.63-1.319-1.589-1.319
		c-0.38,0-0.67,0.03-0.82,0.07V293.647z"/>
	<path d="M968.746,294.597c0,1.789-1.24,2.568-2.408,2.568c-1.311,0-2.319-0.959-2.319-2.489c0-1.619,1.06-2.568,2.398-2.568
		C967.807,292.108,968.746,293.117,968.746,294.597z M964.908,294.646c0,1.06,0.609,1.859,1.469,1.859
		c0.84,0,1.469-0.79,1.469-1.879c0-0.819-0.409-1.859-1.449-1.859C965.357,292.768,964.908,293.727,964.908,294.646z"/>
	<path d="M969.738,296.156c0.26,0.17,0.719,0.35,1.159,0.35c0.64,0,0.939-0.32,0.939-0.72c0-0.419-0.25-0.649-0.899-0.889
		c-0.869-0.31-1.279-0.79-1.279-1.369c0-0.78,0.629-1.419,1.669-1.419c0.489,0,0.919,0.14,1.189,0.3l-0.22,0.64
		c-0.189-0.12-0.54-0.28-0.99-0.28c-0.52,0-0.809,0.3-0.809,0.66c0,0.4,0.289,0.58,0.919,0.819c0.84,0.32,1.27,0.74,1.27,1.459
		c0,0.85-0.659,1.449-1.81,1.449c-0.529,0-1.02-0.13-1.359-0.33L969.738,296.156z"/>
	<path d="M974.797,290.858c0.011,0.3-0.209,0.54-0.559,0.54c-0.311,0-0.53-0.24-0.53-0.54c0-0.31,0.229-0.549,0.55-0.549
		C974.588,290.309,974.797,290.549,974.797,290.858z M973.818,297.055v-4.837h0.879v4.837H973.818z"/>
	<path d="M977.217,290.829v1.389h1.26v0.67h-1.26v2.608c0,0.6,0.17,0.939,0.66,0.939c0.23,0,0.4-0.03,0.51-0.06l0.04,0.66
		c-0.17,0.07-0.44,0.12-0.78,0.12c-0.409,0-0.739-0.13-0.949-0.37c-0.25-0.26-0.34-0.689-0.34-1.259v-2.638h-0.75v-0.67h0.75v-1.159
		L977.217,290.829z"/>
	<path d="M980.447,290.858c0.01,0.3-0.21,0.54-0.56,0.54c-0.31,0-0.53-0.24-0.53-0.54c0-0.31,0.23-0.549,0.551-0.549
		C980.237,290.309,980.447,290.549,980.447,290.858z M979.468,297.055v-4.837h0.88v4.837H979.468z"/>
	<path d="M986.186,294.597c0,1.789-1.24,2.568-2.408,2.568c-1.311,0-2.319-0.959-2.319-2.489c0-1.619,1.06-2.568,2.398-2.568
		C985.246,292.108,986.186,293.117,986.186,294.597z M982.348,294.646c0,1.06,0.609,1.859,1.469,1.859
		c0.84,0,1.469-0.79,1.469-1.879c0-0.819-0.409-1.859-1.449-1.859C982.797,292.768,982.348,293.727,982.348,294.646z"/>
	<path d="M987.297,293.527c0-0.5-0.01-0.91-0.039-1.31h0.779l0.05,0.8h0.021c0.239-0.46,0.799-0.91,1.599-0.91
		c0.67,0,1.709,0.4,1.709,2.059v2.888h-0.88v-2.789c0-0.779-0.289-1.429-1.119-1.429c-0.58,0-1.029,0.41-1.18,0.899
		c-0.039,0.11-0.06,0.26-0.06,0.41v2.908h-0.88V293.527z"/>
	<path d="M992.728,296.156c0.26,0.17,0.72,0.35,1.159,0.35c0.64,0,0.939-0.32,0.939-0.72c0-0.419-0.25-0.649-0.899-0.889
		c-0.87-0.31-1.279-0.79-1.279-1.369c0-0.78,0.63-1.419,1.669-1.419c0.49,0,0.92,0.14,1.189,0.3l-0.22,0.64
		c-0.19-0.12-0.54-0.28-0.989-0.28c-0.52,0-0.811,0.3-0.811,0.66c0,0.4,0.291,0.58,0.92,0.819c0.84,0.32,1.27,0.74,1.27,1.459
		c0,0.85-0.66,1.449-1.809,1.449c-0.53,0-1.02-0.13-1.359-0.33L992.728,296.156z"/>
</g>
<g>
	<path d="M965.201,325.702c0.342,0.036,0.738,0,1.278-0.054c0.919-0.126,1.782-0.504,2.448-1.134
		c0.775-0.702,1.333-1.729,1.549-3.115h-0.054c-0.648,0.792-1.585,1.26-2.755,1.26c-2.107,0-3.457-1.584-3.457-3.583
		c0-2.215,1.603-4.159,3.997-4.159c2.396,0,3.871,1.944,3.871,4.933c0,2.575-0.864,4.375-2.017,5.492
		c-0.9,0.882-2.143,1.422-3.402,1.566c-0.576,0.09-1.081,0.108-1.459,0.09V325.702z M965.777,318.968
		c0,1.458,0.883,2.484,2.25,2.484c1.063,0,1.891-0.522,2.305-1.224c0.091-0.144,0.145-0.324,0.145-0.576
		c0-1.999-0.738-3.529-2.395-3.529C966.731,316.123,965.777,317.312,965.777,318.968z"/>
	<path d="M980.503,316.447h-4.466l-0.449,3.007c0.27-0.036,0.521-0.072,0.953-0.072c0.9,0,1.801,0.198,2.521,0.63
		c0.918,0.522,1.674,1.531,1.674,3.007c0,2.287-1.818,3.998-4.357,3.998c-1.277,0-2.357-0.36-2.916-0.72l0.396-1.207
		c0.486,0.288,1.439,0.648,2.502,0.648c1.494,0,2.773-0.972,2.773-2.539c-0.018-1.512-1.027-2.593-3.367-2.593
		c-0.666,0-1.188,0.072-1.621,0.126l0.757-5.618h5.6V316.447z"/>
	<path d="M987.648,326.818v-3.187h-5.438v-1.044l5.221-7.472h1.711v7.274h1.639v1.242h-1.639v3.187H987.648z M987.648,322.389
		v-3.907c0-0.612,0.018-1.225,0.054-1.836h-0.054c-0.36,0.684-0.648,1.188-0.973,1.729l-2.863,3.979v0.036H987.648z"/>
</g>
<path fill="#61B222" d="M307.891,55.39c-0.191-29.38-23.936-53.14-53.365-53.14c-29.431,0-53.488,23.76-53.678,53.14
	c-0.01,0.06-0.197,0.12-0.197,0.18v0.18c0,0.35,0.25,0.7,0.27,1.04c0.54,29.07,24.404,52.46,53.605,52.46
	c29.199,0,52.752-23.39,53.292-52.46c0.021-0.34-0.167-0.69-0.167-1.04v-0.18C307.65,55.51,307.9,55.45,307.891,55.39z
	 M254.65,17.85c20.81,0,37.709,16.78,37.899,37.54c0,0.33,0,0.66-0.01,0.98c-0.33,20.64-17.17,37.28-37.89,37.28
	c-20.721,0-37.561-16.64-37.891-37.28c-0.01-0.32-0.01-0.65-0.01-0.98C216.939,34.63,233.84,17.85,254.65,17.85z"/>
<g>
	<path d="M1091.348,285.996c0.391,0.24,0.96,0.44,1.56,0.44c0.89,0,1.409-0.47,1.409-1.149c0-0.63-0.359-0.989-1.27-1.339
		c-1.1-0.39-1.779-0.959-1.779-1.909c0-1.05,0.87-1.829,2.18-1.829c0.689,0,1.189,0.16,1.488,0.33l-0.239,0.71
		c-0.22-0.12-0.669-0.32-1.279-0.32c-0.919,0-1.269,0.549-1.269,1.009c0,0.63,0.409,0.939,1.338,1.299
		c1.141,0.44,1.72,0.989,1.72,1.979c0,1.04-0.77,1.939-2.358,1.939c-0.65,0-1.359-0.19-1.719-0.43L1091.348,285.996z"/>
	<path d="M1100.807,284.597c0,1.789-1.24,2.568-2.409,2.568c-1.31,0-2.319-0.959-2.319-2.489c0-1.619,1.061-2.568,2.398-2.568
		C1099.866,282.108,1100.807,283.117,1100.807,284.597z M1096.969,284.646c0,1.06,0.609,1.859,1.469,1.859
		c0.84,0,1.469-0.79,1.469-1.879c0-0.819-0.41-1.859-1.449-1.859S1096.969,283.727,1096.969,284.646z"/>
	<path d="M1105.966,285.736c0,0.5,0.011,0.939,0.04,1.319h-0.779l-0.051-0.79h-0.02c-0.23,0.39-0.74,0.899-1.6,0.899
		c-0.76,0-1.668-0.42-1.668-2.119v-2.829h0.879v2.679c0,0.919,0.279,1.539,1.08,1.539c0.589,0,0.999-0.41,1.158-0.8
		c0.051-0.13,0.08-0.29,0.08-0.45v-2.968h0.88V285.736z"/>
	<path d="M1107.428,283.727c0-0.57-0.01-1.06-0.04-1.509h0.77l0.03,0.95h0.04c0.22-0.65,0.749-1.06,1.339-1.06
		c0.1,0,0.17,0.01,0.25,0.03v0.83c-0.09-0.02-0.18-0.03-0.3-0.03c-0.62,0-1.06,0.47-1.179,1.129c-0.021,0.12-0.041,0.26-0.041,0.41
		v2.579h-0.869V283.727z"/>
	<path d="M1114.046,286.875c-0.229,0.12-0.739,0.28-1.39,0.28c-1.459,0-2.408-0.99-2.408-2.469c0-1.489,1.02-2.569,2.599-2.569
		c0.52,0,0.979,0.13,1.22,0.25l-0.201,0.68c-0.209-0.12-0.539-0.23-1.019-0.23c-1.109,0-1.709,0.82-1.709,1.829
		c0,1.12,0.72,1.809,1.679,1.809c0.5,0,0.83-0.13,1.08-0.24L1114.046,286.875z"/>
	<path d="M1115.508,284.796c0.02,1.189,0.779,1.679,1.658,1.679c0.631,0,1.01-0.11,1.34-0.25l0.15,0.63
		c-0.311,0.14-0.84,0.3-1.609,0.3c-1.489,0-2.379-0.979-2.379-2.439c0-1.459,0.859-2.608,2.269-2.608
		c1.579,0,1.999,1.389,1.999,2.279c0,0.18-0.02,0.32-0.029,0.41H1115.508z M1118.086,284.167c0.01-0.56-0.23-1.43-1.219-1.43
		c-0.891,0-1.279,0.82-1.35,1.43H1118.086z"/>
	<path d="M1124.205,279.959v5.847c0,0.43,0.01,0.92,0.04,1.25h-0.79l-0.039-0.839h-0.021c-0.27,0.54-0.859,0.949-1.649,0.949
		c-1.169,0-2.068-0.989-2.068-2.458c-0.01-1.609,0.989-2.599,2.169-2.599c0.739,0,1.239,0.35,1.459,0.74h0.021v-2.889H1124.205z
		 M1123.326,284.187c0-0.11-0.011-0.26-0.041-0.37c-0.129-0.56-0.609-1.02-1.27-1.02c-0.908,0-1.448,0.8-1.448,1.869
		c0,0.979,0.479,1.789,1.429,1.789c0.59,0,1.13-0.39,1.289-1.049c0.03-0.12,0.041-0.24,0.041-0.38V284.187z"/>
</g>
<g>
	<path d="M1091.084,325.702c0.343,0.036,0.738,0,1.279-0.054c0.918-0.126,1.782-0.504,2.448-1.134
		c0.774-0.702,1.333-1.729,1.548-3.115h-0.053c-0.648,0.792-1.585,1.26-2.756,1.26c-2.105,0-3.457-1.584-3.457-3.583
		c0-2.215,1.604-4.159,3.998-4.159s3.871,1.944,3.871,4.933c0,2.575-0.865,4.375-2.018,5.492c-0.9,0.882-2.143,1.422-3.402,1.566
		c-0.576,0.09-1.08,0.108-1.459,0.09V325.702z M1091.66,318.968c0,1.458,0.883,2.484,2.251,2.484c1.063,0,1.891-0.522,2.305-1.224
		c0.091-0.144,0.144-0.324,0.144-0.576c0-1.999-0.738-3.529-2.395-3.529C1092.615,316.123,1091.66,317.312,1091.66,318.968z"/>
	<path d="M1099.256,323.848c0-1.477,0.883-2.521,2.322-3.133l-0.018-0.054c-1.297-0.612-1.854-1.621-1.854-2.629
		c0-1.854,1.566-3.115,3.619-3.115c2.269,0,3.403,1.422,3.403,2.881c0,0.99-0.486,2.052-1.927,2.737v0.054
		c1.458,0.576,2.358,1.603,2.358,3.025c0,2.035-1.746,3.403-3.979,3.403C1100.732,327.017,1099.256,325.558,1099.256,323.848z
		 M1105.559,323.775c0-1.422-0.99-2.106-2.576-2.557c-1.367,0.396-2.105,1.296-2.105,2.413c-0.055,1.188,0.846,2.233,2.34,2.233
		C1104.64,325.864,1105.559,324.982,1105.559,323.775z M1101.201,317.924c0,1.17,0.882,1.8,2.232,2.161
		c1.008-0.342,1.782-1.063,1.782-2.125c0-0.936-0.558-1.908-1.98-1.908C1101.921,316.051,1101.201,316.916,1101.201,317.924z"/>
	<path d="M1113.531,326.818v-3.187h-5.438v-1.044l5.222-7.472h1.71v7.274h1.639v1.242h-1.639v3.187H1113.531z M1113.531,322.389
		v-3.907c0-0.612,0.018-1.225,0.055-1.836h-0.055c-0.359,0.684-0.648,1.188-0.973,1.729l-2.862,3.979v0.036H1113.531z"/>
	<path d="M1124.854,316.447h-4.465l-0.45,3.007c0.271-0.036,0.522-0.072,0.954-0.072c0.9,0,1.801,0.198,2.521,0.63
		c0.918,0.522,1.674,1.531,1.674,3.007c0,2.287-1.818,3.998-4.357,3.998c-1.278,0-2.358-0.36-2.916-0.72l0.396-1.207
		c0.486,0.288,1.44,0.648,2.503,0.648c1.494,0,2.772-0.972,2.772-2.539c-0.019-1.512-1.026-2.593-3.366-2.593
		c-0.667,0-1.189,0.072-1.621,0.126l0.756-5.618h5.6V316.447z"/>
</g>
<path fill="#F79B16" d="M437.94,55.39c-0.19-29.38-23.71-53.14-53.14-53.14c-29.432,0-53.825,23.76-54.016,53.14
	c-0.01,0.06-0.535,0.12-0.535,0.18v0.18c0,0.35,0.7,0.7,0.721,1.04c0.539,29.07,24.629,52.46,53.83,52.46
	c29.199,0,52.414-23.39,52.955-52.46c0.02-0.34-0.506-0.69-0.506-1.04v-0.18C437.25,55.51,437.95,55.45,437.94,55.39z M385.15,17.85
	c20.81,0,37.709,16.78,37.899,37.54c0,0.33,0,0.66-0.01,0.98c-0.33,20.64-17.17,37.28-37.89,37.28
	c-20.721,0-37.561-16.64-37.891-37.28c-0.01-0.32-0.01-0.65-0.01-0.98C347.439,34.63,364.34,17.85,385.15,17.85z"/>
<g>
	<path d="M1220.303,277.32v6.736h-0.869v-6.736H1220.303z"/>
	<path d="M1221.893,280.528c0-0.5-0.01-0.91-0.039-1.31h0.779l0.05,0.8h0.021c0.239-0.46,0.799-0.91,1.599-0.91
		c0.67,0,1.709,0.4,1.709,2.059v2.888h-0.88v-2.789c0-0.779-0.289-1.429-1.119-1.429c-0.58,0-1.029,0.41-1.18,0.899
		c-0.039,0.11-0.06,0.26-0.06,0.41v2.908h-0.88V280.528z"/>
	<path d="M1228.463,277.83v1.389h1.259v0.67h-1.259v2.608c0,0.6,0.17,0.939,0.659,0.939c0.229,0,0.399-0.03,0.51-0.06l0.04,0.66
		c-0.17,0.07-0.439,0.12-0.779,0.12c-0.41,0-0.74-0.13-0.949-0.37c-0.25-0.26-0.34-0.689-0.34-1.259v-2.638h-0.75v-0.67h0.75v-1.159
		L1228.463,277.83z"/>
	<path d="M1231.143,281.797c0.02,1.189,0.779,1.679,1.659,1.679c0.63,0,1.009-0.11,1.339-0.25l0.15,0.63
		c-0.311,0.14-0.84,0.3-1.609,0.3c-1.488,0-2.379-0.979-2.379-2.439c0-1.459,0.859-2.608,2.27-2.608
		c1.578,0,1.998,1.389,1.998,2.279c0,0.18-0.02,0.32-0.029,0.41H1231.143z M1233.721,281.168c0.011-0.56-0.229-1.43-1.219-1.43
		c-0.89,0-1.279,0.82-1.35,1.43H1233.721z"/>
	<path d="M1235.662,280.728c0-0.57-0.01-1.06-0.039-1.509h0.77l0.029,0.95h0.041c0.219-0.65,0.749-1.06,1.339-1.06
		c0.1,0,0.169,0.01,0.249,0.03v0.83c-0.09-0.02-0.18-0.03-0.299-0.03c-0.62,0-1.061,0.47-1.18,1.129c-0.02,0.12-0.04,0.26-0.04,0.41
		v2.579h-0.87V280.728z"/>
	<path d="M1239.522,279.219l0.95,2.719c0.159,0.439,0.289,0.839,0.389,1.239h0.03c0.11-0.4,0.25-0.8,0.41-1.239l0.939-2.719h0.919
		l-1.898,4.837h-0.84l-1.839-4.837H1239.522z"/>
	<path d="M1244.973,277.859c0.01,0.3-0.211,0.54-0.561,0.54c-0.31,0-0.529-0.24-0.529-0.54c0-0.31,0.23-0.549,0.55-0.549
		C1244.762,277.31,1244.973,277.55,1244.973,277.859z M1243.992,284.056v-4.837h0.88v4.837H1243.992z"/>
	<path d="M1246.822,281.797c0.02,1.189,0.779,1.679,1.659,1.679c0.63,0,1.009-0.11,1.339-0.25l0.15,0.63
		c-0.311,0.14-0.84,0.3-1.609,0.3c-1.488,0-2.379-0.979-2.379-2.439c0-1.459,0.859-2.608,2.27-2.608
		c1.578,0,1.998,1.389,1.998,2.279c0,0.18-0.02,0.32-0.029,0.41H1246.822z M1249.4,281.168c0.011-0.56-0.229-1.43-1.219-1.43
		c-0.89,0-1.279,0.82-1.35,1.43H1249.4z"/>
	<path d="M1251.692,279.219l0.64,2.458c0.14,0.54,0.27,1.04,0.359,1.54h0.03c0.11-0.49,0.271-1.01,0.43-1.529l0.79-2.469h0.739
		l0.749,2.419c0.18,0.58,0.32,1.089,0.43,1.579h0.031c0.079-0.49,0.209-1,0.369-1.569l0.689-2.429h0.869l-1.559,4.837h-0.8
		l-0.739-2.309c-0.17-0.54-0.311-1.02-0.43-1.589h-0.02c-0.121,0.58-0.271,1.08-0.44,1.599l-0.78,2.299h-0.799l-1.459-4.837
		H1251.692z"/>
	<path d="M1236.088,287.859c0.01,0.3-0.211,0.54-0.561,0.54c-0.31,0-0.529-0.24-0.529-0.54c0-0.31,0.23-0.549,0.55-0.549
		C1235.877,287.31,1236.088,287.55,1236.088,287.859z M1235.107,294.056v-4.837h0.88v4.837H1235.107z"/>
	<path d="M1237.447,290.528c0-0.5-0.01-0.91-0.039-1.31h0.779l0.05,0.8h0.021c0.239-0.46,0.799-0.91,1.599-0.91
		c0.67,0,1.709,0.4,1.709,2.059v2.888h-0.88v-2.789c0-0.779-0.289-1.429-1.119-1.429c-0.58,0-1.029,0.41-1.18,0.899
		c-0.039,0.11-0.06,0.26-0.06,0.41v2.908h-0.88V290.528z"/>
	<path d="M1221.357,297.4c0.42-0.07,0.97-0.13,1.67-0.13c0.859,0,1.488,0.2,1.889,0.56c0.369,0.32,0.59,0.81,0.59,1.409
		c0,0.61-0.18,1.089-0.52,1.439c-0.461,0.49-1.21,0.739-2.06,0.739c-0.26,0-0.499-0.01-0.7-0.06v2.699h-0.869V297.4z
		 M1222.227,300.648c0.19,0.05,0.431,0.07,0.721,0.07c1.049,0,1.688-0.509,1.688-1.439c0-0.89-0.63-1.319-1.589-1.319
		c-0.38,0-0.67,0.03-0.82,0.07V300.648z"/>
	<path d="M1226.488,300.728c0-0.57-0.01-1.06-0.041-1.509h0.77l0.031,0.95h0.039c0.221-0.65,0.75-1.06,1.34-1.06
		c0.1,0,0.17,0.01,0.25,0.03v0.83c-0.09-0.02-0.18-0.03-0.301-0.03c-0.619,0-1.059,0.47-1.179,1.129
		c-0.021,0.12-0.04,0.26-0.04,0.41v2.579h-0.869V300.728z"/>
	<path d="M1234.035,301.598c0,1.789-1.239,2.568-2.408,2.568c-1.31,0-2.318-0.959-2.318-2.489c0-1.619,1.059-2.568,2.398-2.568
		C1233.096,299.109,1234.035,300.118,1234.035,301.598z M1230.197,301.647c0,1.06,0.609,1.859,1.469,1.859
		c0.84,0,1.47-0.79,1.47-1.879c0-0.819-0.409-1.859-1.449-1.859C1230.647,299.769,1230.197,300.728,1230.197,301.647z"/>
	<path d="M1239.315,299.219c-0.021,0.35-0.04,0.74-0.04,1.329v2.809c0,1.109-0.221,1.789-0.689,2.209
		c-0.471,0.439-1.149,0.58-1.76,0.58c-0.579,0-1.219-0.14-1.609-0.4l0.221-0.669c0.32,0.2,0.819,0.38,1.419,0.38
		c0.899,0,1.56-0.47,1.56-1.689v-0.54h-0.02c-0.271,0.45-0.79,0.81-1.54,0.81c-1.199,0-2.059-1.02-2.059-2.359
		c0-1.639,1.069-2.568,2.179-2.568c0.84,0,1.299,0.44,1.51,0.839h0.02l0.04-0.729H1239.315z M1238.406,301.128
		c0-0.15-0.01-0.28-0.051-0.4c-0.16-0.51-0.59-0.93-1.229-0.93c-0.84,0-1.439,0.71-1.439,1.829c0,0.95,0.479,1.739,1.43,1.739
		c0.539,0,1.029-0.34,1.219-0.9c0.05-0.15,0.07-0.32,0.07-0.47V301.128z"/>
	<path d="M1240.678,300.728c0-0.57-0.01-1.06-0.041-1.509h0.77l0.031,0.95h0.039c0.221-0.65,0.75-1.06,1.34-1.06
		c0.1,0,0.17,0.01,0.25,0.03v0.83c-0.09-0.02-0.18-0.03-0.301-0.03c-0.619,0-1.059,0.47-1.179,1.129
		c-0.021,0.12-0.04,0.26-0.04,0.41v2.579h-0.869V300.728z"/>
	<path d="M1244.337,301.797c0.021,1.189,0.78,1.679,1.659,1.679c0.63,0,1.01-0.11,1.34-0.25l0.149,0.63
		c-0.31,0.14-0.84,0.3-1.609,0.3c-1.489,0-2.378-0.979-2.378-2.439c0-1.459,0.859-2.608,2.268-2.608c1.58,0,2,1.389,2,2.279
		c0,0.18-0.021,0.32-0.03,0.41H1244.337z M1246.916,301.168c0.01-0.56-0.23-1.43-1.22-1.43c-0.89,0-1.279,0.82-1.349,1.43H1246.916z
		"/>
	<path d="M1248.737,303.157c0.26,0.17,0.72,0.35,1.159,0.35c0.64,0,0.939-0.32,0.939-0.72c0-0.419-0.25-0.649-0.899-0.889
		c-0.87-0.31-1.279-0.79-1.279-1.369c0-0.78,0.63-1.419,1.669-1.419c0.49,0,0.92,0.14,1.189,0.3l-0.22,0.64
		c-0.19-0.12-0.54-0.28-0.989-0.28c-0.52,0-0.811,0.3-0.811,0.66c0,0.4,0.291,0.58,0.92,0.819c0.84,0.32,1.27,0.74,1.27,1.459
		c0,0.85-0.66,1.449-1.809,1.449c-0.53,0-1.02-0.13-1.359-0.33L1248.737,303.157z"/>
	<path d="M1252.697,303.157c0.26,0.17,0.719,0.35,1.159,0.35c0.64,0,0.939-0.32,0.939-0.72c0-0.419-0.25-0.649-0.899-0.889
		c-0.869-0.31-1.279-0.79-1.279-1.369c0-0.78,0.629-1.419,1.669-1.419c0.489,0,0.919,0.14,1.189,0.3l-0.22,0.64
		c-0.189-0.12-0.54-0.28-0.99-0.28c-0.52,0-0.809,0.3-0.809,0.66c0,0.4,0.289,0.58,0.919,0.819c0.84,0.32,1.27,0.74,1.27,1.459
		c0,0.85-0.659,1.449-1.81,1.449c-0.529,0-1.02-0.13-1.359-0.33L1252.697,303.157z"/>
</g>
<g>
	<path d="M1224.105,316.591h-0.036l-2.034,1.098l-0.307-1.206l2.557-1.369h1.351v11.704h-1.53V316.591z"/>
	<path d="M1236.58,316.231c-0.324-0.018-0.738,0-1.188,0.072c-2.485,0.414-3.799,2.232-4.069,4.159h0.055
		c0.558-0.738,1.529-1.351,2.826-1.351c2.07,0,3.529,1.495,3.529,3.781c0,2.143-1.459,4.124-3.889,4.124
		c-2.504,0-4.142-1.945-4.142-4.988c0-2.305,0.828-4.123,1.98-5.275c0.972-0.954,2.269-1.548,3.745-1.729
		c0.469-0.072,0.864-0.09,1.152-0.09V316.231z M1236.13,322.983c0-1.675-0.954-2.683-2.413-2.683c-0.953,0-1.836,0.594-2.268,1.44
		c-0.109,0.18-0.181,0.414-0.181,0.702c0.036,1.927,0.919,3.349,2.575,3.349C1235.211,325.792,1236.13,324.658,1236.13,322.983z"/>
	<path d="M1246.732,315.115v1.044l-5.096,10.659h-1.639l5.078-10.353v-0.036h-5.727v-1.314H1246.732z"/>
	<path d="M1255.354,316.447h-4.465l-0.45,3.007c0.271-0.036,0.522-0.072,0.954-0.072c0.9,0,1.801,0.198,2.521,0.63
		c0.918,0.522,1.674,1.531,1.674,3.007c0,2.287-1.818,3.998-4.357,3.998c-1.278,0-2.358-0.36-2.916-0.72l0.396-1.207
		c0.486,0.288,1.44,0.648,2.503,0.648c1.494,0,2.772-0.972,2.772-2.539c-0.019-1.512-1.026-2.593-3.366-2.593
		c-0.667,0-1.189,0.072-1.621,0.126l0.756-5.618h5.6V316.447z"/>
</g>
<path fill="#C42BCC" d="M568.391,55.39c-0.191-29.38-23.686-53.14-53.115-53.14c-29.431,0-53.863,23.76-54.053,53.14
	c-0.01,0.06-0.572,0.12-0.572,0.18v0.18c0,0.35,0.75,0.7,0.77,1.04c0.54,29.07,24.654,52.46,53.855,52.46
	c29.199,0,52.377-23.39,52.917-52.46c0.021-0.34-0.542-0.69-0.542-1.04v-0.18C567.65,55.51,568.4,55.45,568.391,55.39z
	 M515.65,17.85c20.81,0,37.709,16.78,37.899,37.54c0,0.33,0,0.66-0.01,0.98c-0.33,20.64-17.17,37.28-37.89,37.28
	c-20.721,0-37.561-16.64-37.891-37.28c-0.01-0.32-0.01-0.65-0.01-0.98C477.939,34.63,494.84,17.85,515.65,17.85z"/>
<g>
	<path d="M1359.551,283.617c0,2.318-1.41,3.548-3.129,3.548c-1.779,0-3.028-1.379-3.028-3.418c0-2.139,1.329-3.538,3.128-3.538
		C1358.361,280.209,1359.551,281.618,1359.551,283.617z M1354.322,283.727c0,1.439,0.78,2.729,2.149,2.729
		c1.38,0,2.159-1.27,2.159-2.798c0-1.339-0.699-2.739-2.148-2.739C1355.043,280.918,1354.322,282.248,1354.322,283.727z"/>
	<path d="M1363.801,287.055v-4.167h-2.028v4.167h-0.87v-4.167h-0.679v-0.67h0.679v-0.16c0-0.68,0.16-1.27,0.541-1.649
		c0.279-0.28,0.68-0.45,1.219-0.45c0.279,0,0.539,0.09,0.689,0.17l-0.18,0.65c-0.13-0.06-0.32-0.12-0.52-0.12
		c-0.689,0-0.88,0.59-0.88,1.349v0.21h2.028v-0.23c0-0.68,0.16-1.299,0.57-1.689c0.33-0.32,0.77-0.45,1.17-0.45
		c0.319,0,0.579,0.07,0.749,0.14l-0.11,0.679c-0.14-0.06-0.31-0.11-0.569-0.11c-0.739,0-0.939,0.66-0.939,1.399v0.26h1.169v0.67
		h-1.158v4.167H1363.801z"/>
	<path d="M1367.004,284.796c0.02,1.189,0.779,1.679,1.658,1.679c0.631,0,1.01-0.11,1.34-0.25l0.15,0.63
		c-0.311,0.14-0.84,0.3-1.609,0.3c-1.489,0-2.379-0.979-2.379-2.439c0-1.459,0.859-2.608,2.269-2.608
		c1.579,0,1.999,1.389,1.999,2.279c0,0.18-0.02,0.32-0.029,0.41H1367.004z M1369.582,284.167c0.01-0.56-0.23-1.43-1.219-1.43
		c-0.891,0-1.279,0.82-1.35,1.43H1369.582z"/>
	<path d="M1371.523,283.727c0-0.57-0.01-1.06-0.04-1.509h0.77l0.03,0.95h0.04c0.22-0.65,0.749-1.06,1.339-1.06
		c0.1,0,0.17,0.01,0.25,0.03v0.83c-0.09-0.02-0.18-0.03-0.3-0.03c-0.62,0-1.06,0.47-1.179,1.129c-0.021,0.12-0.041,0.26-0.041,0.41
		v2.579h-0.869V283.727z"/>
	<path d="M1375.184,284.796c0.02,1.189,0.779,1.679,1.658,1.679c0.631,0,1.01-0.11,1.34-0.25l0.15,0.63
		c-0.311,0.14-0.84,0.3-1.609,0.3c-1.489,0-2.379-0.979-2.379-2.439c0-1.459,0.859-2.608,2.269-2.608
		c1.579,0,1.999,1.389,1.999,2.279c0,0.18-0.02,0.32-0.029,0.41H1375.184z M1377.762,284.167c0.01-0.56-0.23-1.43-1.219-1.43
		c-0.891,0-1.279,0.82-1.35,1.43H1377.762z"/>
	<path d="M1383.881,279.959v5.847c0,0.43,0.01,0.92,0.04,1.25h-0.79l-0.039-0.839h-0.021c-0.27,0.54-0.859,0.949-1.649,0.949
		c-1.169,0-2.068-0.989-2.068-2.458c-0.01-1.609,0.989-2.599,2.169-2.599c0.739,0,1.239,0.35,1.459,0.74h0.021v-2.889H1383.881z
		 M1383.002,284.187c0-0.11-0.011-0.26-0.041-0.37c-0.129-0.56-0.609-1.02-1.27-1.02c-0.908,0-1.448,0.8-1.448,1.869
		c0,0.979,0.479,1.789,1.429,1.789c0.59,0,1.13-0.39,1.289-1.049c0.03-0.12,0.041-0.24,0.041-0.38V284.187z"/>
</g>
<g>
	<path d="M1359.223,316.591h-0.037l-2.034,1.098l-0.306-1.206l2.557-1.369h1.35v11.704h-1.529V316.591z"/>
	<path d="M1365.017,326.818v-0.972l1.243-1.207c2.988-2.845,4.339-4.357,4.357-6.122c0-1.188-0.576-2.287-2.323-2.287
		c-1.063,0-1.944,0.541-2.485,0.991l-0.504-1.117c0.811-0.684,1.963-1.188,3.313-1.188c2.521,0,3.584,1.729,3.584,3.403
		c0,2.161-1.566,3.907-4.033,6.284l-0.937,0.864v0.036h5.257v1.314H1365.017z"/>
	<path d="M1381.85,315.115v1.044l-5.096,10.659h-1.639l5.077-10.353v-0.036h-5.726v-1.314H1381.85z"/>
</g>
<g>
	<rect x="103.25" y="30.167" fill="none" width="42.667" height="20.667"/>
	<path d="M116.512,30.531h0.87v4.507c0,1.789-0.879,2.339-2.039,2.339c-0.32,0-0.709-0.07-0.929-0.16l0.13-0.71
		c0.18,0.07,0.44,0.13,0.729,0.13c0.78,0,1.239-0.35,1.239-1.669V30.531z"/>
	<path d="M119.922,35.148l-0.7,2.119h-0.899l2.289-6.736h1.049l2.299,6.736h-0.93l-0.719-2.119H119.922z M122.131,34.469
		l-0.66-1.939c-0.15-0.44-0.25-0.84-0.35-1.229h-0.02c-0.1,0.4-0.21,0.81-0.34,1.219l-0.66,1.949H122.131z"/>
	<path d="M125.902,37.267l-2.199-6.736h0.939l1.049,3.318c0.29,0.909,0.54,1.729,0.72,2.519h0.02c0.19-0.78,0.47-1.629,0.77-2.509
		l1.139-3.328h0.93l-2.409,6.736H125.902z"/>
	<path d="M130.523,35.148l-0.7,2.119h-0.899l2.289-6.736h1.049l2.299,6.736h-0.93l-0.719-2.119H130.523z M132.731,34.469
		l-0.66-1.939c-0.15-0.44-0.25-0.84-0.35-1.229h-0.02c-0.1,0.4-0.21,0.81-0.34,1.219l-0.66,1.949H132.731z"/>
</g>
<g>
	<rect x="103.917" y="61.5" fill="none" width="42.667" height="20.667"/>
	<path d="M107.926,71.44v-0.756l0.966-0.938c2.325-2.213,3.376-3.39,3.39-4.763c0-0.924-0.448-1.779-1.807-1.779
		c-0.826,0-1.513,0.42-1.933,0.771l-0.392-0.869c0.63-0.532,1.527-0.924,2.577-0.924c1.961,0,2.788,1.345,2.788,2.647
		c0,1.681-1.219,3.04-3.138,4.889l-0.728,0.672v0.028h4.09v1.022H107.926z"/>
	<path d="M121.159,66.79c0,3.096-1.148,4.805-3.166,4.805c-1.779,0-2.984-1.667-3.012-4.679c0-3.054,1.316-4.734,3.166-4.734
		C120.066,62.182,121.159,63.89,121.159,66.79z M116.214,66.93c0,2.367,0.729,3.712,1.849,3.712c1.261,0,1.863-1.471,1.863-3.796
		c0-2.241-0.574-3.712-1.849-3.712C116.999,63.134,116.214,64.451,116.214,66.93z"/>
	<path d="M126.099,71.44v-2.479h-4.23v-0.813l4.063-5.813h1.331v5.659h1.275v0.966h-1.275v2.479H126.099z M126.099,67.995v-3.04
		c0-0.477,0.014-0.953,0.042-1.429h-0.042c-0.28,0.532-0.504,0.924-0.756,1.345l-2.227,3.095v0.028H126.099z"/>
	<path d="M134.667,63.204c-0.252-0.014-0.574,0-0.924,0.056c-1.933,0.322-2.956,1.737-3.166,3.235h0.042
		c0.435-0.574,1.191-1.05,2.199-1.05c1.611,0,2.746,1.163,2.746,2.941c0,1.667-1.135,3.208-3.025,3.208
		c-1.947,0-3.222-1.513-3.222-3.88c0-1.793,0.645-3.208,1.541-4.104c0.756-0.743,1.765-1.205,2.914-1.345
		c0.364-0.056,0.672-0.07,0.896-0.07V63.204z M134.317,68.457c0-1.303-0.743-2.087-1.877-2.087c-0.743,0-1.429,0.462-1.765,1.121
		c-0.084,0.14-0.14,0.322-0.14,0.546c0.028,1.499,0.714,2.605,2.003,2.605C133.603,70.642,134.317,69.759,134.317,68.457z"/>
	<path d="M141.849,63.204c-0.252-0.014-0.574,0-0.924,0.056c-1.933,0.322-2.956,1.737-3.166,3.235h0.042
		c0.435-0.574,1.191-1.05,2.199-1.05c1.611,0,2.746,1.163,2.746,2.941c0,1.667-1.135,3.208-3.025,3.208
		c-1.947,0-3.222-1.513-3.222-3.88c0-1.793,0.645-3.208,1.541-4.104c0.756-0.743,1.765-1.205,2.914-1.345
		c0.364-0.056,0.672-0.07,0.896-0.07V63.204z M141.499,68.457c0-1.303-0.743-2.087-1.877-2.087c-0.743,0-1.429,0.462-1.765,1.121
		c-0.084,0.14-0.14,0.322-0.14,0.546c0.028,1.499,0.714,2.605,2.003,2.605C140.785,70.642,141.499,69.759,141.499,68.457z"/>
</g>
<g>
	<rect x="232.604" y="29.75" fill="none" width="42.667" height="20.667"/>
	<path d="M245.107,36.331c0-0.37,0.25-0.63,0.6-0.63c0.35,0,0.59,0.26,0.59,0.63c0,0.36-0.23,0.629-0.6,0.629
		C245.347,36.96,245.107,36.69,245.107,36.331z"/>
	<path d="M247.417,36.85v-6.736h0.949l2.159,3.408c0.5,0.79,0.89,1.499,1.209,2.189l0.02-0.01c-0.08-0.899-0.1-1.719-0.1-2.769
		v-2.818h0.82v6.736h-0.879l-2.139-3.418c-0.47-0.75-0.919-1.52-1.259-2.249l-0.03,0.01c0.05,0.85,0.07,1.659,0.07,2.778v2.878
		H247.417z"/>
	<path d="M257.485,33.692h-2.619v2.429h2.918v0.729h-3.788v-6.736h3.638v0.729h-2.769v2.129h2.619V33.692z"/>
	<path d="M260.356,30.854h-2.049v-0.74h4.987v0.74h-2.059v5.997h-0.879V30.854z"/>
</g>
<g>
	<rect x="233.271" y="61.083" fill="none" width="42.667" height="20.667"/>
	<path d="M239.955,63.067h-0.028l-1.583,0.854l-0.238-0.938l1.989-1.064h1.051v9.105h-1.191V63.067z"/>
	<path d="M244.755,69.609c0.351,0.224,1.163,0.574,2.017,0.574c1.583,0,2.073-1.009,2.059-1.765
		c-0.014-1.274-1.163-1.821-2.353-1.821h-0.687v-0.925h0.687c0.896,0,2.031-0.462,2.031-1.541c0-0.729-0.462-1.373-1.597-1.373
		c-0.728,0-1.429,0.322-1.821,0.603l-0.322-0.896c0.476-0.35,1.401-0.7,2.381-0.7c1.793,0,2.605,1.064,2.605,2.171
		c0,0.938-0.561,1.737-1.681,2.143v0.028c1.121,0.224,2.031,1.064,2.031,2.339c0,1.457-1.135,2.732-3.32,2.732
		c-1.022,0-1.919-0.322-2.367-0.617L244.755,69.609z"/>
	<path d="M257.554,61.918v0.813l-3.964,8.292h-1.274l3.95-8.054v-0.028h-4.455v-1.022H257.554z"/>
	<path d="M262.635,71.023v-2.479h-4.23v-0.813l4.063-5.813h1.331v5.659h1.275v0.966h-1.275v2.479H262.635z M262.635,67.578v-3.04
		c0-0.477,0.014-0.953,0.042-1.429h-0.042c-0.28,0.532-0.504,0.924-0.756,1.345l-2.227,3.095v0.028H262.635z"/>
	<path d="M266.721,70.155c0.266,0.028,0.574,0,0.995-0.042c0.714-0.098,1.387-0.392,1.905-0.882
		c0.603-0.546,1.037-1.345,1.205-2.423h-0.042c-0.504,0.616-1.232,0.98-2.143,0.98c-1.639,0-2.689-1.232-2.689-2.788
		c0-1.723,1.247-3.235,3.11-3.235c1.863,0,3.012,1.513,3.012,3.838c0,2.003-0.672,3.404-1.569,4.272
		c-0.701,0.686-1.667,1.106-2.647,1.218c-0.448,0.07-0.841,0.084-1.135,0.07V70.155z M267.169,64.916
		c0,1.135,0.687,1.933,1.751,1.933c0.826,0,1.471-0.406,1.793-0.953c0.07-0.112,0.112-0.252,0.112-0.448
		c0-1.555-0.574-2.745-1.863-2.745C267.911,62.703,267.169,63.627,267.169,64.916z"/>
</g>
<g>
	<rect x="362.429" y="29.75" fill="none" width="42.667" height="20.667"/>
	<path d="M375.519,33.892c-0.05-0.939-0.11-2.069-0.1-2.908h-0.03c-0.23,0.79-0.51,1.629-0.85,2.559l-1.189,3.268h-0.66
		l-1.089-3.208c-0.32-0.95-0.59-1.819-0.779-2.619h-0.02c-0.02,0.839-0.07,1.969-0.13,2.979l-0.18,2.888h-0.83l0.47-6.736h1.109
		l1.149,3.258c0.28,0.83,0.51,1.569,0.68,2.269h0.03c0.17-0.68,0.41-1.419,0.71-2.269l1.199-3.258h1.109l0.42,6.736h-0.85
		L375.519,33.892z"/>
	<path d="M378.241,32.013l1.06,2.858c0.11,0.32,0.23,0.7,0.31,0.99h0.02c0.09-0.29,0.19-0.66,0.31-1.01l0.959-2.838h0.929
		l-1.319,3.448c-0.63,1.659-1.06,2.509-1.659,3.028c-0.43,0.38-0.86,0.53-1.08,0.57l-0.22-0.74c0.22-0.07,0.51-0.21,0.77-0.43
		c0.24-0.19,0.54-0.53,0.74-0.979c0.04-0.09,0.07-0.16,0.07-0.21s-0.02-0.12-0.06-0.23l-1.789-4.458H378.241z"/>
	<path d="M382.542,35.791c0.39,0.24,0.959,0.44,1.559,0.44c0.89,0,1.409-0.47,1.409-1.149c0-0.63-0.36-0.989-1.269-1.339
		c-1.1-0.39-1.779-0.959-1.779-1.909c0-1.05,0.87-1.829,2.179-1.829c0.69,0,1.189,0.16,1.489,0.33l-0.24,0.71
		c-0.22-0.12-0.669-0.32-1.279-0.32c-0.919,0-1.27,0.549-1.27,1.009c0,0.63,0.41,0.939,1.339,1.299
		c1.14,0.44,1.719,0.989,1.719,1.979c0,1.04-0.77,1.939-2.359,1.939c-0.649,0-1.359-0.19-1.719-0.43L382.542,35.791z"/>
	<path d="M393.148,37.839c-0.909-0.24-1.799-0.509-2.579-0.779c-0.14-0.05-0.28-0.1-0.41-0.1c-1.599-0.06-2.968-1.239-2.968-3.408
		c0-2.159,1.319-3.548,3.138-3.548c1.829,0,3.019,1.419,3.019,3.408c0,1.729-0.8,2.838-1.919,3.228v0.04
		c0.669,0.17,1.399,0.33,1.969,0.43L393.148,37.839z M392.429,33.452c0-1.35-0.699-2.739-2.128-2.739
		c-1.469,0-2.189,1.359-2.179,2.818c-0.01,1.429,0.78,2.719,2.139,2.719C391.649,36.25,392.429,34.991,392.429,33.452z"/>
	<path d="M394.482,30.114h0.869v6.007h2.878v0.729h-3.748V30.114z"/>
</g>
<g>
	<rect x="363.095" y="61.083" fill="none" width="42.667" height="20.667"/>
	<path d="M371.41,70.155c0.266,0.028,0.574,0,0.995-0.042c0.714-0.098,1.387-0.392,1.905-0.882c0.603-0.546,1.037-1.345,1.205-2.423
		h-0.042c-0.504,0.616-1.232,0.98-2.143,0.98c-1.639,0-2.689-1.232-2.689-2.788c0-1.723,1.247-3.235,3.11-3.235
		c1.863,0,3.012,1.513,3.012,3.838c0,2.003-0.672,3.404-1.569,4.272c-0.701,0.686-1.667,1.106-2.647,1.218
		c-0.448,0.07-0.841,0.084-1.135,0.07V70.155z M371.858,64.916c0,1.135,0.687,1.933,1.751,1.933c0.826,0,1.471-0.406,1.793-0.953
		c0.07-0.112,0.112-0.252,0.112-0.448c0-1.555-0.574-2.745-1.863-2.745C372.6,62.703,371.858,63.627,371.858,64.916z"/>
	<path d="M383.928,66.373c0,3.096-1.148,4.805-3.166,4.805c-1.779,0-2.984-1.667-3.012-4.679c0-3.054,1.316-4.734,3.166-4.734
		C382.835,61.765,383.928,63.473,383.928,66.373z M378.983,66.513c0,2.367,0.729,3.712,1.849,3.712c1.261,0,1.863-1.471,1.863-3.796
		c0-2.241-0.574-3.712-1.849-3.712C379.768,62.717,378.983,64.034,378.983,66.513z"/>
	<path d="M390.255,62.787c-0.252-0.014-0.574,0-0.924,0.056c-1.933,0.322-2.956,1.737-3.166,3.235h0.042
		c0.435-0.574,1.191-1.05,2.199-1.05c1.611,0,2.746,1.163,2.746,2.941c0,1.667-1.135,3.208-3.025,3.208
		c-1.947,0-3.222-1.513-3.222-3.88c0-1.793,0.645-3.208,1.541-4.104c0.756-0.743,1.765-1.205,2.914-1.345
		c0.364-0.056,0.672-0.07,0.896-0.07V62.787z M389.905,68.04c0-1.303-0.743-2.087-1.877-2.087c-0.743,0-1.429,0.462-1.765,1.121
		c-0.084,0.14-0.14,0.322-0.14,0.546c0.028,1.499,0.714,2.605,2.003,2.605C389.191,70.225,389.905,69.342,389.905,68.04z"/>
	<path d="M398.151,61.918v0.813l-3.964,8.292h-1.274l3.95-8.054v-0.028h-4.455v-1.022H398.151z"/>
</g>
<g>
	<rect x="492.854" y="29.75" fill="none" width="42.667" height="20.667"/>
	<path d="M500.532,30.204c0.439-0.09,1.069-0.14,1.669-0.14c0.929,0,1.529,0.17,1.949,0.549c0.34,0.3,0.53,0.76,0.53,1.279
		c0,0.89-0.56,1.479-1.269,1.719v0.03c0.52,0.18,0.83,0.659,0.989,1.359c0.22,0.939,0.38,1.589,0.52,1.849h-0.899
		c-0.11-0.19-0.26-0.77-0.45-1.609c-0.2-0.93-0.56-1.279-1.349-1.31h-0.82v2.918h-0.869V30.204z M501.401,33.272h0.89
		c0.93,0,1.519-0.51,1.519-1.279c0-0.87-0.629-1.249-1.549-1.259c-0.42,0-0.72,0.04-0.86,0.08V33.272z"/>
	<path d="M508.032,30.194c0.419-0.07,0.969-0.13,1.669-0.13c0.859,0,1.489,0.2,1.889,0.56c0.37,0.32,0.589,0.81,0.589,1.409
		c0,0.61-0.18,1.089-0.52,1.439c-0.46,0.49-1.209,0.739-2.059,0.739c-0.26,0-0.5-0.01-0.7-0.06v2.699h-0.869V30.194z
		 M508.901,33.442c0.19,0.05,0.43,0.07,0.72,0.07c1.049,0,1.689-0.509,1.689-1.439c0-0.89-0.629-1.319-1.589-1.319
		c-0.38,0-0.67,0.03-0.82,0.07V33.442z"/>
	<path d="M513.162,33.522c0-0.57-0.01-1.06-0.04-1.509h0.77l0.03,0.95h0.04c0.22-0.65,0.75-1.06,1.339-1.06
		c0.1,0,0.169,0.01,0.25,0.03v0.83c-0.09-0.02-0.18-0.03-0.3-0.03c-0.62,0-1.06,0.47-1.179,1.129c-0.02,0.12-0.04,0.26-0.04,0.41
		v2.579h-0.87V33.522z"/>
	<path d="M520.71,34.392c0,1.789-1.24,2.568-2.409,2.568c-1.31,0-2.319-0.959-2.319-2.489c0-1.619,1.059-2.568,2.398-2.568
		C519.77,31.903,520.71,32.912,520.71,34.392z M516.872,34.441c0,1.06,0.609,1.859,1.469,1.859c0.84,0,1.469-0.79,1.469-1.879
		c0-0.819-0.41-1.859-1.449-1.859C517.322,32.563,516.872,33.522,516.872,34.441z"/>
	<path d="M525.99,32.013c-0.02,0.35-0.04,0.74-0.04,1.329v2.809c0,1.109-0.22,1.789-0.69,2.209c-0.47,0.439-1.149,0.58-1.759,0.58
		c-0.58,0-1.219-0.14-1.609-0.4l0.22-0.669c0.32,0.2,0.819,0.38,1.419,0.38c0.9,0,1.56-0.47,1.56-1.689v-0.54h-0.02
		c-0.27,0.45-0.79,0.81-1.54,0.81c-1.199,0-2.059-1.02-2.059-2.359c0-1.639,1.069-2.568,2.179-2.568c0.839,0,1.299,0.44,1.509,0.839
		h0.02l0.04-0.729H525.99z M525.08,33.922c0-0.15-0.01-0.28-0.05-0.4c-0.16-0.51-0.59-0.93-1.229-0.93
		c-0.839,0-1.439,0.71-1.439,1.829c0,0.95,0.479,1.739,1.429,1.739c0.54,0,1.029-0.34,1.219-0.9c0.05-0.15,0.07-0.32,0.07-0.47
		V33.922z"/>
	<path d="M527.052,36.331c0-0.37,0.25-0.63,0.6-0.63c0.35,0,0.589,0.26,0.589,0.63c0,0.36-0.23,0.629-0.6,0.629
		C527.292,36.96,527.052,36.69,527.052,36.331z"/>
</g>
<g>
	<rect x="493.521" y="61.083" fill="none" width="42.667" height="20.667"/>
	<path d="M503.796,63.067h-0.028l-1.583,0.854l-0.238-0.938l1.989-1.064h1.051v9.105h-1.191V63.067z"/>
	<path d="M508.596,69.609c0.351,0.224,1.163,0.574,2.017,0.574c1.583,0,2.073-1.009,2.059-1.765
		c-0.014-1.274-1.163-1.821-2.353-1.821h-0.687v-0.925h0.687c0.896,0,2.031-0.462,2.031-1.541c0-0.729-0.462-1.373-1.597-1.373
		c-0.728,0-1.429,0.322-1.821,0.603l-0.322-0.896c0.476-0.35,1.401-0.7,2.381-0.7c1.793,0,2.605,1.064,2.605,2.171
		c0,0.938-0.561,1.737-1.681,2.143v0.028c1.121,0.224,2.031,1.064,2.031,2.339c0,1.457-1.135,2.732-3.32,2.732
		c-1.022,0-1.919-0.322-2.367-0.617L508.596,69.609z"/>
	<path d="M521.395,61.918v0.813l-3.964,8.292h-1.274l3.95-8.054v-0.028h-4.455v-1.022H521.395z"/>
	<path d="M522.553,68.712c0-1.149,0.687-1.961,1.807-2.438l-0.014-0.042c-1.008-0.477-1.442-1.261-1.442-2.045
		c0-1.443,1.218-2.423,2.815-2.423c1.765,0,2.647,1.106,2.647,2.241c0,0.77-0.378,1.597-1.499,2.129v0.042
		c1.135,0.448,1.835,1.247,1.835,2.354c0,1.583-1.358,2.647-3.096,2.647C523.702,71.178,522.553,70.043,522.553,68.712z
		 M527.456,68.656c0-1.107-0.771-1.639-2.003-1.989c-1.064,0.308-1.639,1.009-1.639,1.877c-0.042,0.925,0.659,1.737,1.821,1.737
		C526.742,70.281,527.456,69.595,527.456,68.656z M524.066,64.104c0,0.911,0.686,1.401,1.737,1.681
		c0.784-0.266,1.387-0.827,1.387-1.653c0-0.729-0.434-1.485-1.541-1.485C524.626,62.647,524.066,63.319,524.066,64.104z"/>
</g>
<g>
</g>
<g>
</g>
<g>
</g>
<g>
</g>
<g>
</g>
<g>
</g>
<g>
</g>
<g>
</g>
<g>
</g>
<g>
</g>
<g>
</g>
<g>
</g>
<g>
</g>
<g>
</g>
<g>
</g>
</svg>
