<?xml version="1.0" encoding="utf-8"?>
<!-- Generator: Adobe Illustrator 16.0.0, SVG Export Plug-In . SVG Version: 6.00 Build 0)  -->
<!DOCTYPE svg PUBLIC "-//W3C//DTD SVG 1.1//EN" "http://www.w3.org/Graphics/SVG/1.1/DTD/svg11.dtd">
<svg version="1.1" id="Layer_1" xmlns="http://www.w3.org/2000/svg" xmlns:xlink="http://www.w3.org/1999/xlink" x="0px" y="0px"
	 width="642.25px" height="111.5px" viewBox="0 0 642.25 111.5" enable-background="new 0 0 642.25 111.5" xml:space="preserve">
<polygon fill="#2176CC" points="1239.25,-24.5 1239.25,42.5 1233.25,48.5 1134.25,48.5 1134.25,-24.5 "/>
<rect x="1134.25" y="-24.5" fill="#2168A3" width="105" height="13"/>
<polygon fill="#2168A3" points="1239.25,35.5 1239.25,42.5 1233.25,48.5 1134.25,48.5 1134.25,35.5 "/>
<g>
	<rect x="1179.666" y="-20.75" fill="none" width="16.167" height="7.25"/>
	<path fill="#FFFFFF" d="M1183.576-18.553c0,1.391-0.846,2.129-1.877,2.129c-1.067,0-1.816-0.828-1.816-2.051
		c0-1.283,0.797-2.123,1.877-2.123C1182.863-20.598,1183.576-19.752,1183.576-18.553z M1180.439-18.487
		c0,0.864,0.469,1.637,1.29,1.637c0.827,0,1.296-0.762,1.296-1.679c0-0.803-0.42-1.643-1.29-1.643
		C1180.872-20.172,1180.439-19.375,1180.439-18.487z"/>
	<path fill="#FFFFFF" d="M1184.238-18.445c0-0.372-0.012-0.671-0.024-0.947h0.474l0.024,0.498h0.012
		c0.216-0.354,0.558-0.563,1.032-0.563c0.701,0,1.229,0.594,1.229,1.475c0,1.043-0.635,1.559-1.319,1.559
		c-0.384,0-0.72-0.168-0.894-0.456h-0.012v1.577h-0.521V-18.445z M1184.76-17.671c0,0.078,0.012,0.15,0.023,0.216
		c0.097,0.366,0.414,0.618,0.792,0.618c0.558,0,0.882-0.456,0.882-1.122c0-0.582-0.307-1.08-0.863-1.08
		c-0.36,0-0.696,0.258-0.798,0.654c-0.019,0.066-0.036,0.144-0.036,0.216V-17.671z"/>
	<path fill="#FFFFFF" d="M1187.945-17.846c0.013,0.714,0.469,1.008,0.996,1.008c0.378,0,0.605-0.066,0.804-0.15l0.09,0.377
		c-0.187,0.084-0.504,0.18-0.966,0.18c-0.893,0-1.427-0.588-1.427-1.463s0.516-1.565,1.361-1.565c0.947,0,1.199,0.833,1.199,1.367
		c0,0.108-0.013,0.192-0.019,0.246H1187.945z M1189.493-18.223c0.006-0.336-0.138-0.858-0.731-0.858
		c-0.533,0-0.768,0.492-0.81,0.858H1189.493z"/>
	<path fill="#FFFFFF" d="M1190.658-18.607c0-0.3-0.006-0.546-0.024-0.786h0.468l0.03,0.479h0.012
		c0.144-0.276,0.479-0.545,0.96-0.545c0.401,0,1.025,0.24,1.025,1.235v1.733h-0.527v-1.673c0-0.468-0.174-0.858-0.672-0.858
		c-0.348,0-0.618,0.246-0.708,0.54c-0.024,0.066-0.036,0.156-0.036,0.246v1.745h-0.527V-18.607z"/>
</g>
<g>
	<rect x="1171.625" y="-5" fill="none" width="30.25" height="13.5"/>
	<path fill="#FFFFFF" d="M1172.328,5.355c0-1.558,0.931-2.659,2.45-3.305l-0.019-0.057c-1.368-0.646-1.957-1.709-1.957-2.773
		c0-1.957,1.652-3.287,3.818-3.287c2.395,0,3.591,1.501,3.591,3.04c0,1.045-0.513,2.166-2.032,2.888v0.057
		c1.538,0.608,2.488,1.691,2.488,3.192c0,2.146-1.844,3.59-4.199,3.59C1173.886,8.699,1172.328,7.16,1172.328,5.355z
		 M1178.977,5.279c0-1.501-1.045-2.223-2.717-2.698c-1.443,0.418-2.223,1.368-2.223,2.546c-0.057,1.253,0.894,2.355,2.471,2.355
		C1178.008,7.483,1178.977,6.552,1178.977,5.279z M1174.379-0.895c0,1.235,0.932,1.9,2.356,2.28
		c1.063-0.361,1.881-1.121,1.881-2.242c0-0.988-0.589-2.014-2.09-2.014C1175.14-2.871,1174.379-1.958,1174.379-0.895z"/>
	<path fill="#FFFFFF" d="M1189.598-2.453h-4.711l-0.476,3.172c0.285-0.038,0.551-0.076,1.007-0.076c0.949,0,1.9,0.209,2.66,0.665
		c0.969,0.551,1.766,1.615,1.766,3.173c0,2.413-1.918,4.217-4.597,4.217c-1.349,0-2.489-0.38-3.077-0.76l0.418-1.273
		c0.512,0.304,1.52,0.684,2.641,0.684c1.576,0,2.926-1.026,2.926-2.679c-0.02-1.596-1.084-2.736-3.553-2.736
		c-0.703,0-1.254,0.076-1.71,0.133l0.798-5.927h5.908V-2.453z"/>
	<path fill="#FFFFFF" d="M1197.141,8.49V5.127h-5.737V4.025l5.509-7.884h1.805v7.675h1.729v1.311h-1.729V8.49H1197.141z
		 M1197.141,3.816v-4.123c0-0.646,0.019-1.292,0.057-1.938h-0.057c-0.381,0.722-0.684,1.254-1.026,1.824l-3.021,4.198v0.038
		H1197.141z"/>
</g>
<g>
	<polygon fill="#C42BCC" points="455.25,-139.5 455.25,-72.5 449.25,-66.5 350.25,-66.5 350.25,-139.5 	"/>
	<rect x="350.75" y="-139.5" fill="#D649E2" width="105" height="13"/>
	<polygon fill="#9F1AAA" points="455.25,-79.5 455.25,-72.5 449.25,-66.5 350.25,-66.5 350.25,-79.5 	"/>
</g>
<g>
	<polygon fill="#61B222" points="343.25,-139.5 343.25,-72.5 337.25,-66.5 238.25,-66.5 238.25,-139.5 	"/>
	<rect x="238.75" y="-139.5" fill="#54BF22" width="105" height="13"/>
	<polygon fill="#338C19" points="343.25,-79.5 343.25,-72.5 337.25,-66.5 238.25,-66.5 238.25,-79.5 	"/>
</g>
<g>
	<polygon fill="#E5173A" points="230.25,-139.5 230.25,-72.5 224.25,-66.5 125.25,-66.5 125.25,-139.5 	"/>
	<rect x="125.25" y="-139.5" fill="#F2254D" width="105" height="13"/>
	<polygon fill="#C61033" points="230.25,-79.5 230.25,-72.5 224.25,-66.5 125.25,-66.5 125.25,-79.5 	"/>
</g>
<polygon fill="#2176CC" points="117.25,-139.5 117.25,-72.5 111.25,-66.5 12.25,-66.5 12.25,-139.5 "/>
<rect x="12.25" y="-139.5" fill="#2285BC" width="105" height="13"/>
<polygon fill="#2168A3" points="117.25,-79.5 117.25,-72.5 111.25,-66.5 12.25,-66.5 12.25,-79.5 "/>
<g>
	<rect x="57.667" y="-135.75" fill="none" width="16.167" height="7.25"/>
	<path fill="#FFFFFF" d="M61.577-133.553c0,1.391-0.845,2.129-1.877,2.129c-1.067,0-1.817-0.828-1.817-2.051
		c0-1.283,0.798-2.123,1.877-2.123C60.863-135.598,61.577-134.752,61.577-133.553z M58.44-133.487c0,0.864,0.468,1.637,1.29,1.637
		c0.828,0,1.295-0.762,1.295-1.679c0-0.803-0.42-1.643-1.29-1.643C58.873-135.172,58.44-134.375,58.44-133.487z"/>
	<path fill="#FFFFFF" d="M62.239-133.445c0-0.372-0.012-0.671-0.024-0.947h0.474l0.024,0.498h0.012
		c0.216-0.354,0.558-0.563,1.032-0.563c0.702,0,1.229,0.594,1.229,1.475c0,1.043-0.635,1.559-1.319,1.559
		c-0.384,0-0.719-0.168-0.893-0.456H62.76v1.577h-0.521V-133.445z M62.76-132.671c0,0.078,0.012,0.15,0.024,0.216
		c0.096,0.366,0.414,0.618,0.792,0.618c0.558,0,0.882-0.456,0.882-1.122c0-0.582-0.306-1.08-0.864-1.08
		c-0.36,0-0.696,0.258-0.797,0.654c-0.018,0.066-0.036,0.144-0.036,0.216V-132.671z"/>
	<path fill="#FFFFFF" d="M65.946-132.846c0.012,0.714,0.468,1.008,0.996,1.008c0.378,0,0.605-0.066,0.804-0.15l0.09,0.377
		c-0.186,0.084-0.504,0.18-0.965,0.18c-0.894,0-1.427-0.588-1.427-1.463s0.516-1.565,1.361-1.565c0.947,0,1.199,0.833,1.199,1.367
		c0,0.108-0.012,0.192-0.018,0.246H65.946z M67.494-133.223c0.006-0.336-0.138-0.858-0.731-0.858c-0.534,0-0.768,0.492-0.81,0.858
		H67.494z"/>
	<path fill="#FFFFFF" d="M68.659-133.607c0-0.3-0.006-0.546-0.024-0.786h0.468l0.03,0.479h0.012c0.144-0.276,0.48-0.545,0.959-0.545
		c0.402,0,1.025,0.24,1.025,1.235v1.733h-0.527v-1.673c0-0.468-0.174-0.858-0.672-0.858c-0.348,0-0.618,0.246-0.708,0.54
		c-0.024,0.066-0.036,0.156-0.036,0.246v1.745h-0.527V-133.607z"/>
</g>
<g>
	<rect x="49.625" y="-120" fill="none" width="30.25" height="13.5"/>
	<path fill="#FFFFFF" d="M50.328-109.645c0-1.558,0.931-2.659,2.45-3.305l-0.019-0.057c-1.368-0.646-1.957-1.709-1.957-2.773
		c0-1.957,1.653-3.287,3.818-3.287c2.394,0,3.591,1.501,3.591,3.04c0,1.045-0.513,2.166-2.033,2.888v0.057
		c1.539,0.608,2.488,1.691,2.488,3.192c0,2.146-1.843,3.59-4.198,3.59C51.886-106.301,50.328-107.84,50.328-109.645z
		 M56.977-109.721c0-1.501-1.045-2.223-2.717-2.698c-1.444,0.418-2.223,1.368-2.223,2.546c-0.057,1.253,0.893,2.355,2.47,2.355
		C56.008-107.517,56.977-108.448,56.977-109.721z M52.379-115.895c0,1.235,0.931,1.9,2.356,2.28
		c1.064-0.361,1.881-1.121,1.881-2.242c0-0.988-0.589-2.014-2.09-2.014C53.14-117.871,52.379-116.958,52.379-115.895z"/>
	<path fill="#FFFFFF" d="M67.597-117.453h-4.711l-0.475,3.172c0.285-0.038,0.551-0.076,1.007-0.076c0.95,0,1.9,0.209,2.66,0.665
		c0.969,0.551,1.767,1.615,1.767,3.173c0,2.413-1.918,4.217-4.597,4.217c-1.349,0-2.489-0.38-3.078-0.76l0.418-1.273
		c0.513,0.304,1.52,0.684,2.641,0.684c1.577,0,2.926-1.026,2.926-2.679c-0.019-1.596-1.083-2.736-3.553-2.736
		c-0.703,0-1.254,0.076-1.709,0.133l0.798-5.927h5.908V-117.453z"/>
	<path fill="#FFFFFF" d="M75.14-106.51v-3.362h-5.737v-1.102l5.509-7.884h1.805v7.675h1.729v1.311h-1.729v3.362H75.14z
		 M75.14-111.184v-4.123c0-0.646,0.019-1.292,0.057-1.938H75.14c-0.38,0.722-0.684,1.254-1.026,1.824l-3.021,4.198v0.038H75.14z"/>
</g>
<g>
	<g>
		<polygon fill="#2176CC" points="198.322,263.434 198.322,348.394 190.715,356.002 65.177,356.002 65.177,263.434 		"/>
		<rect x="65.177" y="263.434" fill="#2581CC" width="133.145" height="16.484"/>
		<polygon fill="#2168A3" points="198.322,339.518 198.322,348.394 190.715,356.002 65.177,356.002 65.177,339.518 		"/>
	</g>
	<g>
		<rect x="118.625" y="270.184" fill="none" width="28.25" height="7.25"/>
		<path fill="#FFFFFF" d="M119.848,270.845h-1.229v-0.444h2.992v0.444h-1.235v3.598h-0.528V270.845z"/>
		<path fill="#FFFFFF" d="M124.246,272.968c0,1.073-0.744,1.541-1.445,1.541c-0.786,0-1.391-0.576-1.391-1.493
			c0-0.971,0.636-1.541,1.439-1.541C123.682,271.475,124.246,272.081,124.246,272.968z M121.943,272.998
			c0,0.636,0.366,1.116,0.881,1.116c0.504,0,0.881-0.474,0.881-1.127c0-0.492-0.246-1.116-0.869-1.116
			C122.212,271.871,121.943,272.446,121.943,272.998z"/>
		<path fill="#FFFFFF" d="M125.548,270.708v0.833h0.756v0.402h-0.756v1.565c0,0.36,0.102,0.564,0.396,0.564
			c0.138,0,0.24-0.018,0.306-0.036l0.024,0.396c-0.102,0.042-0.264,0.072-0.468,0.072c-0.246,0-0.443-0.078-0.569-0.222
			c-0.15-0.156-0.204-0.414-0.204-0.755v-1.583h-0.45v-0.402h0.45v-0.696L125.548,270.708z"/>
		<path fill="#FFFFFF" d="M128.506,274.443l-0.042-0.366h-0.018c-0.162,0.228-0.474,0.432-0.888,0.432
			c-0.587,0-0.887-0.414-0.887-0.833c0-0.702,0.624-1.085,1.745-1.08v-0.06c0-0.24-0.066-0.672-0.66-0.672
			c-0.27,0-0.552,0.084-0.756,0.216l-0.12-0.348c0.24-0.156,0.587-0.258,0.953-0.258c0.888,0,1.104,0.605,1.104,1.187v1.085
			c0,0.252,0.012,0.498,0.048,0.696H128.506z M128.428,272.962c-0.576-0.012-1.229,0.09-1.229,0.653
			c0,0.342,0.228,0.504,0.498,0.504c0.378,0,0.618-0.24,0.702-0.486c0.018-0.054,0.03-0.114,0.03-0.168V272.962z"/>
		<path fill="#FFFFFF" d="M129.791,270.186h0.527v4.258h-0.527V270.186z"/>
		<path fill="#FFFFFF" d="M135.951,272.38c0,1.391-0.845,2.129-1.877,2.129c-1.067,0-1.817-0.828-1.817-2.051
			c0-1.283,0.798-2.123,1.877-2.123C135.237,270.335,135.951,271.181,135.951,272.38z M132.814,272.446
			c0,0.864,0.468,1.637,1.29,1.637c0.828,0,1.295-0.762,1.295-1.679c0-0.803-0.42-1.643-1.29-1.643
			C133.247,270.761,132.814,271.559,132.814,272.446z"/>
		<path fill="#FFFFFF" d="M136.613,272.488c0-0.372-0.012-0.671-0.024-0.947h0.474l0.024,0.498h0.012
			c0.216-0.354,0.558-0.563,1.032-0.563c0.702,0,1.229,0.594,1.229,1.475c0,1.043-0.635,1.559-1.319,1.559
			c-0.384,0-0.719-0.168-0.893-0.456h-0.012v1.577h-0.521V272.488z M137.134,273.262c0,0.078,0.012,0.15,0.024,0.216
			c0.096,0.366,0.414,0.618,0.792,0.618c0.558,0,0.882-0.456,0.882-1.122c0-0.582-0.306-1.08-0.864-1.08
			c-0.36,0-0.696,0.258-0.797,0.654c-0.018,0.066-0.036,0.144-0.036,0.216V273.262z"/>
		<path fill="#FFFFFF" d="M140.32,273.088c0.012,0.714,0.468,1.008,0.996,1.008c0.378,0,0.605-0.066,0.804-0.15l0.09,0.377
			c-0.186,0.084-0.504,0.18-0.965,0.18c-0.894,0-1.427-0.588-1.427-1.463s0.516-1.565,1.361-1.565c0.947,0,1.199,0.833,1.199,1.367
			c0,0.108-0.012,0.192-0.018,0.246H140.32z M141.868,272.71c0.006-0.336-0.138-0.858-0.731-0.858c-0.534,0-0.768,0.492-0.81,0.858
			H141.868z"/>
		<path fill="#FFFFFF" d="M143.033,272.327c0-0.3-0.006-0.546-0.024-0.786h0.468l0.03,0.479h0.012
			c0.144-0.276,0.48-0.545,0.959-0.545c0.402,0,1.025,0.24,1.025,1.235v1.733h-0.527v-1.673c0-0.468-0.174-0.858-0.672-0.858
			c-0.348,0-0.618,0.246-0.708,0.54c-0.024,0.066-0.036,0.156-0.036,0.246v1.745h-0.527V272.327z"/>
	</g>
	<g>
		<rect x="116.625" y="291.718" fill="none" width="30.25" height="13.5"/>
		<path fill="#FFFFFF" d="M117.328,302.073c0-1.558,0.931-2.659,2.45-3.305l-0.019-0.057c-1.368-0.646-1.957-1.709-1.957-2.773
			c0-1.957,1.653-3.287,3.818-3.287c2.394,0,3.591,1.501,3.591,3.04c0,1.045-0.513,2.166-2.033,2.888v0.057
			c1.539,0.608,2.488,1.691,2.488,3.192c0,2.146-1.843,3.59-4.198,3.59C118.886,305.417,117.328,303.878,117.328,302.073z
			 M123.977,301.997c0-1.501-1.045-2.223-2.717-2.698c-1.444,0.418-2.223,1.368-2.223,2.546c-0.057,1.253,0.893,2.355,2.47,2.355
			C123.008,304.201,123.977,303.27,123.977,301.997z M119.379,295.823c0,1.235,0.931,1.9,2.356,2.28
			c1.064-0.361,1.881-1.121,1.881-2.242c0-0.988-0.589-2.014-2.09-2.014C120.14,293.847,119.379,294.759,119.379,295.823z"/>
		<path fill="#FFFFFF" d="M134.597,294.265h-4.711l-0.475,3.172c0.285-0.038,0.551-0.076,1.007-0.076c0.95,0,1.9,0.209,2.66,0.665
			c0.969,0.551,1.767,1.615,1.767,3.173c0,2.413-1.918,4.217-4.597,4.217c-1.349,0-2.489-0.38-3.078-0.76l0.418-1.273
			c0.513,0.304,1.52,0.684,2.641,0.684c1.577,0,2.926-1.026,2.926-2.679c-0.019-1.596-1.083-2.736-3.553-2.736
			c-0.703,0-1.254,0.076-1.709,0.133l0.798-5.927h5.908V294.265z"/>
		<path fill="#FFFFFF" d="M142.14,305.208v-3.362h-5.737v-1.102l5.509-7.884h1.805v7.675h1.729v1.311h-1.729v3.362H142.14z
			 M142.14,300.534v-4.123c0-0.646,0.019-1.292,0.057-1.938h-0.057c-0.38,0.722-0.684,1.254-1.026,1.824l-3.021,4.198v0.038H142.14z
			"/>
	</g>
</g>
<g>
	<polygon fill="#C42BCC" points="99.322,143.716 99.322,228.676 91.715,236.284 -33.823,236.284 -33.823,143.716 	"/>
	<rect x="-33.823" y="143.716" fill="#D649E2" width="133.145" height="16.484"/>
	<polygon fill="#9F1AAA" points="99.322,219.8 99.322,228.676 91.715,236.284 -33.823,236.284 -33.823,219.8 	"/>
	<g>
		<rect x="10.5" y="150" fill="none" width="46.5" height="7.25"/>
		<path fill="#FFFFFF" d="M11.478,150.218v4.042h-0.522v-4.042H11.478z"/>
		<path fill="#FFFFFF" d="M12.432,152.143c0-0.3-0.006-0.546-0.024-0.786h0.468l0.03,0.479h0.012
			c0.144-0.276,0.48-0.545,0.959-0.545c0.402,0,1.025,0.24,1.025,1.235v1.733h-0.527v-1.673c0-0.468-0.174-0.858-0.672-0.858
			c-0.348,0-0.618,0.246-0.708,0.54c-0.024,0.066-0.036,0.156-0.036,0.246v1.745h-0.527V152.143z"/>
		<path fill="#FFFFFF" d="M16.374,150.524v0.833h0.756v0.402h-0.756v1.565c0,0.36,0.102,0.564,0.396,0.564
			c0.138,0,0.24-0.018,0.306-0.036l0.024,0.396c-0.102,0.042-0.264,0.072-0.468,0.072c-0.246,0-0.443-0.078-0.569-0.222
			c-0.15-0.156-0.204-0.414-0.204-0.755v-1.583h-0.45v-0.402h0.45v-0.696L16.374,150.524z"/>
		<path fill="#FFFFFF" d="M17.981,152.904c0.012,0.714,0.468,1.008,0.996,1.008c0.378,0,0.605-0.066,0.804-0.15l0.09,0.377
			c-0.186,0.084-0.504,0.18-0.965,0.18c-0.894,0-1.427-0.588-1.427-1.463s0.516-1.565,1.361-1.565c0.947,0,1.199,0.833,1.199,1.367
			c0,0.108-0.012,0.192-0.018,0.246H17.981z M19.529,152.527c0.006-0.336-0.138-0.858-0.731-0.858c-0.534,0-0.768,0.492-0.81,0.858
			H19.529z"/>
		<path fill="#FFFFFF" d="M20.694,152.263c0-0.342-0.006-0.635-0.024-0.905h0.462l0.018,0.57h0.024
			c0.132-0.39,0.45-0.636,0.804-0.636c0.06,0,0.102,0.006,0.15,0.018v0.498c-0.054-0.012-0.108-0.018-0.18-0.018
			c-0.372,0-0.635,0.282-0.708,0.678c-0.012,0.072-0.024,0.156-0.024,0.246v1.547h-0.521V152.263z"/>
		<path fill="#FFFFFF" d="M23.009,151.357l0.57,1.631c0.096,0.264,0.174,0.504,0.234,0.744h0.018c0.066-0.24,0.15-0.479,0.246-0.744
			l0.564-1.631h0.551l-1.139,2.902h-0.504l-1.103-2.902H23.009z"/>
		<path fill="#FFFFFF" d="M26.279,150.542c0.006,0.18-0.126,0.324-0.336,0.324c-0.186,0-0.318-0.144-0.318-0.324
			c0-0.186,0.138-0.33,0.33-0.33C26.153,150.212,26.279,150.356,26.279,150.542z M25.691,154.26v-2.902h0.527v2.902H25.691z"/>
		<path fill="#FFFFFF" d="M27.389,152.904c0.012,0.714,0.468,1.008,0.996,1.008c0.378,0,0.605-0.066,0.804-0.15l0.09,0.377
			c-0.186,0.084-0.504,0.18-0.965,0.18c-0.894,0-1.427-0.588-1.427-1.463s0.516-1.565,1.361-1.565c0.947,0,1.199,0.833,1.199,1.367
			c0,0.108-0.012,0.192-0.018,0.246H27.389z M28.936,152.527c0.006-0.336-0.138-0.858-0.731-0.858c-0.534,0-0.768,0.492-0.81,0.858
			H28.936z"/>
		<path fill="#FFFFFF" d="M30.311,151.357l0.384,1.475c0.084,0.324,0.162,0.624,0.216,0.923h0.018
			c0.066-0.293,0.162-0.605,0.258-0.917l0.474-1.481h0.443l0.45,1.451c0.108,0.348,0.192,0.654,0.258,0.947h0.018
			c0.048-0.293,0.126-0.6,0.222-0.941l0.414-1.457h0.522l-0.936,2.902h-0.48l-0.443-1.385c-0.102-0.324-0.186-0.612-0.258-0.954
			h-0.012c-0.072,0.348-0.162,0.648-0.264,0.959l-0.468,1.379h-0.48l-0.875-2.902H30.311z"/>
		<path fill="#FFFFFF" d="M35.807,150.266c0.252-0.042,0.582-0.078,1.001-0.078c0.516,0,0.894,0.12,1.133,0.336
			c0.222,0.192,0.354,0.486,0.354,0.845c0,0.366-0.108,0.654-0.312,0.864c-0.275,0.294-0.726,0.444-1.235,0.444
			c-0.156,0-0.3-0.006-0.42-0.036v1.619h-0.522V150.266z M36.329,152.215c0.114,0.03,0.258,0.042,0.432,0.042
			c0.63,0,1.014-0.306,1.014-0.863c0-0.534-0.378-0.792-0.954-0.792c-0.228,0-0.402,0.018-0.492,0.042V152.215z"/>
		<path fill="#FFFFFF" d="M38.885,152.263c0-0.342-0.006-0.635-0.024-0.905h0.462l0.018,0.57h0.024
			c0.132-0.39,0.45-0.636,0.804-0.636c0.06,0,0.102,0.006,0.15,0.018v0.498c-0.054-0.012-0.108-0.018-0.18-0.018
			c-0.372,0-0.635,0.282-0.708,0.678c-0.012,0.072-0.024,0.156-0.024,0.246v1.547h-0.521V152.263z"/>
		<path fill="#FFFFFF" d="M43.414,152.785c0,1.073-0.744,1.541-1.445,1.541c-0.786,0-1.391-0.576-1.391-1.493
			c0-0.971,0.636-1.541,1.439-1.541C42.85,151.292,43.414,151.897,43.414,152.785z M41.111,152.814c0,0.636,0.366,1.116,0.881,1.116
			c0.504,0,0.881-0.474,0.881-1.127c0-0.492-0.246-1.116-0.869-1.116C41.38,151.687,41.111,152.263,41.111,152.814z"/>
		<path fill="#FFFFFF" d="M46.582,151.357c-0.012,0.21-0.024,0.444-0.024,0.797v1.685c0,0.666-0.132,1.074-0.414,1.325
			c-0.282,0.264-0.689,0.348-1.055,0.348c-0.348,0-0.732-0.084-0.965-0.24l0.132-0.402c0.192,0.12,0.492,0.228,0.852,0.228
			c0.54,0,0.936-0.282,0.936-1.013v-0.324H46.03c-0.162,0.27-0.474,0.485-0.923,0.485c-0.72,0-1.235-0.611-1.235-1.415
			c0-0.983,0.642-1.541,1.307-1.541c0.504,0,0.78,0.264,0.905,0.503h0.012l0.024-0.438H46.582z M46.036,152.503
			c0-0.09-0.006-0.168-0.03-0.24c-0.096-0.306-0.354-0.558-0.738-0.558c-0.503,0-0.863,0.426-0.863,1.098
			c0,0.569,0.288,1.043,0.857,1.043c0.324,0,0.618-0.204,0.731-0.54c0.03-0.09,0.042-0.192,0.042-0.282V152.503z"/>
		<path fill="#FFFFFF" d="M47.399,152.263c0-0.342-0.006-0.635-0.024-0.905h0.462l0.018,0.57h0.024
			c0.132-0.39,0.45-0.636,0.804-0.636c0.06,0,0.102,0.006,0.15,0.018v0.498c-0.054-0.012-0.108-0.018-0.18-0.018
			c-0.372,0-0.635,0.282-0.708,0.678c-0.012,0.072-0.024,0.156-0.024,0.246v1.547h-0.521V152.263z"/>
		<path fill="#FFFFFF" d="M49.594,152.904c0.012,0.714,0.468,1.008,0.996,1.008c0.378,0,0.605-0.066,0.804-0.15l0.09,0.377
			c-0.186,0.084-0.504,0.18-0.965,0.18c-0.894,0-1.427-0.588-1.427-1.463s0.516-1.565,1.361-1.565c0.947,0,1.199,0.833,1.199,1.367
			c0,0.108-0.012,0.192-0.018,0.246H49.594z M51.142,152.527c0.006-0.336-0.138-0.858-0.731-0.858c-0.534,0-0.768,0.492-0.81,0.858
			H51.142z"/>
		<path fill="#FFFFFF" d="M52.234,153.72c0.156,0.102,0.432,0.21,0.696,0.21c0.384,0,0.563-0.192,0.563-0.432
			c0-0.252-0.15-0.39-0.54-0.534c-0.522-0.186-0.768-0.474-0.768-0.821c0-0.468,0.378-0.852,1.001-0.852
			c0.294,0,0.552,0.084,0.713,0.18l-0.132,0.384c-0.114-0.072-0.324-0.168-0.594-0.168c-0.312,0-0.485,0.18-0.485,0.396
			c0,0.24,0.174,0.348,0.551,0.492c0.504,0.192,0.762,0.444,0.762,0.875c0,0.51-0.396,0.87-1.085,0.87
			c-0.318,0-0.611-0.078-0.815-0.198L52.234,153.72z"/>
		<path fill="#FFFFFF" d="M54.61,153.72c0.156,0.102,0.432,0.21,0.696,0.21c0.384,0,0.563-0.192,0.563-0.432
			c0-0.252-0.15-0.39-0.54-0.534c-0.522-0.186-0.768-0.474-0.768-0.821c0-0.468,0.378-0.852,1.001-0.852
			c0.294,0,0.552,0.084,0.713,0.18l-0.132,0.384c-0.114-0.072-0.324-0.168-0.594-0.168c-0.312,0-0.485,0.18-0.485,0.396
			c0,0.24,0.174,0.348,0.551,0.492c0.504,0.192,0.762,0.444,0.762,0.875c0,0.51-0.396,0.87-1.085,0.87
			c-0.318,0-0.611-0.078-0.815-0.198L54.61,153.72z"/>
	</g>
	<g>
		<rect x="13.25" y="171.534" fill="none" width="39" height="13.5"/>
		<path fill="#FFFFFF" d="M17.733,174.233h-0.038l-2.146,1.159l-0.323-1.273l2.698-1.444h1.425v12.348h-1.615V174.233z"/>
		<path fill="#FFFFFF" d="M24.25,183.105c0.475,0.304,1.577,0.779,2.735,0.779c2.147,0,2.812-1.368,2.793-2.394
			c-0.019-1.729-1.577-2.469-3.192-2.469h-0.931v-1.254h0.931c1.216,0,2.755-0.627,2.755-2.09c0-0.988-0.627-1.862-2.166-1.862
			c-0.988,0-1.938,0.437-2.469,0.817l-0.437-1.216c0.646-0.475,1.899-0.95,3.229-0.95c2.432,0,3.533,1.444,3.533,2.944
			c0,1.273-0.76,2.356-2.279,2.907v0.038c1.52,0.304,2.754,1.444,2.754,3.172c0,1.976-1.539,3.705-4.502,3.705
			c-1.387,0-2.603-0.437-3.21-0.836L24.25,183.105z"/>
		<path fill="#FFFFFF" d="M40.969,174.082h-4.711l-0.475,3.172c0.285-0.038,0.551-0.076,1.007-0.076c0.95,0,1.9,0.209,2.66,0.665
			c0.969,0.551,1.767,1.615,1.767,3.173c0,2.413-1.918,4.217-4.597,4.217c-1.349,0-2.489-0.38-3.078-0.76l0.418-1.273
			c0.513,0.304,1.52,0.684,2.641,0.684c1.577,0,2.926-1.026,2.926-2.679c-0.019-1.596-1.083-2.736-3.553-2.736
			c-0.703,0-1.254,0.076-1.71,0.133l0.798-5.927h5.908V174.082z"/>
		<path fill="#FFFFFF" d="M51.551,178.717c0,4.198-1.558,6.516-4.293,6.516c-2.413,0-4.046-2.261-4.084-6.345
			c0-4.141,1.786-6.421,4.293-6.421C50.07,172.467,51.551,174.785,51.551,178.717z M44.845,178.907c0,3.21,0.988,5.034,2.508,5.034
			c1.71,0,2.527-1.995,2.527-5.148c0-3.04-0.779-5.034-2.508-5.034C45.909,173.759,44.845,175.544,44.845,178.907z"/>
	</g>
</g>
<g>
	<polygon fill="#1DDD6B" points="724.322,-152.284 724.322,-67.324 716.715,-59.716 591.177,-59.716 591.177,-152.284 	"/>
	<rect x="591.25" y="-152.5" fill="#30E278" width="133" height="17"/>
	<polygon fill="#1DB75B" points="724.322,-76.2 724.322,-67.324 716.715,-59.716 591.177,-59.716 591.177,-76.2 	"/>
	<g>
		<rect x="620.083" y="-146.167" fill="none" width="75.333" height="10.367"/>
		<path fill="#FFFFFF" d="M650.715-145.949h0.521v2.705c0,1.074-0.527,1.403-1.224,1.403c-0.192,0-0.426-0.042-0.558-0.096
			l0.078-0.426c0.107,0.042,0.264,0.078,0.438,0.078c0.468,0,0.744-0.21,0.744-1.001V-145.949z"/>
		<path fill="#FFFFFF" d="M654.716-143.382c0,1.073-0.743,1.541-1.445,1.541c-0.786,0-1.392-0.576-1.392-1.493
			c0-0.972,0.636-1.541,1.439-1.541C654.152-144.875,654.716-144.27,654.716-143.382z M652.413-143.352
			c0,0.636,0.366,1.116,0.882,1.116c0.504,0,0.881-0.474,0.881-1.127c0-0.492-0.246-1.116-0.869-1.116
			C652.683-144.479,652.413-143.904,652.413-143.352z"/>
		<path fill="#FFFFFF" d="M655.971-145.625c0.006,0.18-0.126,0.324-0.336,0.324c-0.186,0-0.318-0.144-0.318-0.324
			c0-0.186,0.139-0.33,0.33-0.33C655.845-145.955,655.971-145.811,655.971-145.625z M655.383-141.907v-2.902h0.527v2.902H655.383z"
			/>
		<path fill="#FFFFFF" d="M656.787-144.023c0-0.3-0.006-0.546-0.024-0.786h0.468l0.03,0.479h0.012
			c0.144-0.276,0.479-0.545,0.96-0.545c0.401,0,1.025,0.24,1.025,1.235v1.733h-0.527v-1.673c0-0.468-0.175-0.858-0.672-0.858
			c-0.348,0-0.618,0.246-0.708,0.54c-0.024,0.066-0.036,0.156-0.036,0.246v1.745h-0.527V-144.023z"/>
		<path fill="#FFFFFF" d="M660.41-143.262c0.013,0.714,0.469,1.008,0.996,1.008c0.378,0,0.605-0.066,0.804-0.15l0.09,0.377
			c-0.187,0.084-0.504,0.18-0.966,0.18c-0.893,0-1.427-0.588-1.427-1.463s0.516-1.565,1.361-1.565c0.947,0,1.199,0.833,1.199,1.367
			c0,0.108-0.013,0.192-0.019,0.246H660.41z M661.958-143.64c0.006-0.336-0.138-0.857-0.731-0.857c-0.533,0-0.768,0.492-0.81,0.857
			H661.958z"/>
		<path fill="#FFFFFF" d="M665.629-146.165v3.508c0,0.258,0.006,0.552,0.024,0.75h-0.474l-0.023-0.504h-0.013
			c-0.161,0.324-0.516,0.57-0.989,0.57c-0.701,0-1.241-0.594-1.241-1.475c-0.007-0.965,0.594-1.559,1.302-1.559
			c0.443,0,0.743,0.21,0.875,0.444h0.012v-1.733H665.629z M665.102-143.628c0-0.066-0.006-0.156-0.023-0.222
			c-0.078-0.336-0.366-0.612-0.762-0.612c-0.546,0-0.869,0.48-0.869,1.122c0,0.587,0.287,1.073,0.857,1.073
			c0.354,0,0.678-0.234,0.773-0.629c0.018-0.072,0.023-0.144,0.023-0.228V-143.628z"/>
	</g>
	<g>
		<rect x="616" y="-124" fill="none" width="83.5" height="29.5"/>
		<path fill="#FFFFFF" d="M644.384-112.429c0.475,0.304,1.577,0.779,2.735,0.779c2.146,0,2.812-1.368,2.793-2.394
			c-0.02-1.729-1.577-2.469-3.192-2.469h-0.931v-1.254h0.931c1.216,0,2.754-0.627,2.754-2.09c0-0.988-0.626-1.862-2.166-1.862
			c-0.988,0-1.938,0.437-2.469,0.817l-0.437-1.216c0.646-0.475,1.899-0.95,3.229-0.95c2.432,0,3.534,1.444,3.534,2.944
			c0,1.273-0.76,2.356-2.28,2.907v0.038c1.52,0.304,2.754,1.444,2.754,3.172c0,1.976-1.539,3.705-4.502,3.705
			c-1.387,0-2.603-0.437-3.21-0.836L644.384-112.429z"/>
		<path fill="#FFFFFF" d="M658.898-110.51v-3.362h-5.736v-1.102l5.508-7.884h1.806v7.675h1.729v1.311h-1.729v3.362H658.898z
			 M658.898-115.184v-4.123c0-0.646,0.02-1.292,0.057-1.938h-0.057c-0.38,0.722-0.684,1.254-1.025,1.824l-3.021,4.198v0.038H658.898
			z"/>
		<path fill="#FFFFFF" d="M670.849-121.453h-4.711l-0.476,3.172c0.285-0.038,0.551-0.076,1.008-0.076
			c0.949,0,1.899,0.209,2.659,0.665c0.969,0.551,1.767,1.615,1.767,3.173c0,2.413-1.918,4.217-4.598,4.217
			c-1.348,0-2.488-0.38-3.077-0.76l0.418-1.273c0.513,0.304,1.52,0.684,2.641,0.684c1.577,0,2.926-1.026,2.926-2.679
			c-0.019-1.596-1.083-2.736-3.553-2.736c-0.702,0-1.254,0.076-1.71,0.133l0.799-5.927h5.907V-121.453z"/>
	</g>
</g>
<g>
	<g>
		<polygon fill="#61B222" points="521.615,264.042 521.615,348.404 514.061,355.958 389.405,355.958 389.405,264.042 		"/>
		<rect x="389.385" y="264.042" fill="#5ACE1D" width="132.21" height="16.369"/>
		<polygon fill="#338C19" points="521.615,339.59 521.615,348.404 514.061,355.958 389.405,355.958 389.405,339.59 		"/>
	</g>
	<g>
		<rect x="417.824" y="270.333" fill="none" width="75.333" height="10.367"/>
		<path fill="#FFFFFF" d="M439.284,273.958c0.234,0.144,0.576,0.264,0.936,0.264c0.534,0,0.846-0.282,0.846-0.69
			c0-0.377-0.216-0.594-0.762-0.803c-0.66-0.234-1.067-0.576-1.067-1.146c0-0.63,0.521-1.098,1.307-1.098
			c0.414,0,0.714,0.096,0.894,0.198l-0.144,0.426c-0.132-0.072-0.402-0.192-0.768-0.192c-0.552,0-0.762,0.33-0.762,0.605
			c0,0.378,0.246,0.563,0.804,0.78c0.684,0.264,1.032,0.593,1.032,1.187c0,0.624-0.462,1.164-1.416,1.164
			c-0.39,0-0.815-0.114-1.031-0.258L439.284,273.958z"/>
		<path fill="#FFFFFF" d="M444.959,273.118c0,1.073-0.744,1.541-1.445,1.541c-0.786,0-1.391-0.576-1.391-1.493
			c0-0.972,0.635-1.541,1.439-1.541C444.395,271.625,444.959,272.23,444.959,273.118z M442.656,273.148
			c0,0.636,0.366,1.116,0.881,1.116c0.504,0,0.881-0.474,0.881-1.127c0-0.492-0.246-1.116-0.869-1.116
			C442.926,272.021,442.656,272.596,442.656,273.148z"/>
		<path fill="#FFFFFF" d="M448.055,273.802c0,0.3,0.006,0.563,0.024,0.792h-0.468l-0.03-0.474h-0.012
			c-0.138,0.234-0.444,0.54-0.959,0.54c-0.456,0-1.001-0.252-1.001-1.271v-1.697h0.527v1.607c0,0.552,0.168,0.924,0.648,0.924
			c0.354,0,0.6-0.246,0.695-0.48c0.03-0.078,0.048-0.174,0.048-0.27v-1.781h0.527V273.802z"/>
		<path fill="#FFFFFF" d="M448.933,272.596c0-0.342-0.006-0.635-0.024-0.905h0.462l0.018,0.57h0.024
			c0.132-0.39,0.45-0.636,0.804-0.636c0.06,0,0.102,0.006,0.15,0.018v0.498c-0.054-0.012-0.108-0.018-0.18-0.018
			c-0.372,0-0.636,0.282-0.708,0.678c-0.012,0.072-0.024,0.156-0.024,0.246v1.547h-0.521V272.596z"/>
		<path fill="#FFFFFF" d="M452.903,274.485c-0.138,0.072-0.444,0.168-0.834,0.168c-0.875,0-1.445-0.594-1.445-1.481
			c0-0.894,0.611-1.541,1.559-1.541c0.312,0,0.587,0.078,0.731,0.15l-0.12,0.408c-0.125-0.072-0.324-0.138-0.611-0.138
			c-0.666,0-1.025,0.492-1.025,1.097c0,0.672,0.432,1.085,1.007,1.085c0.3,0,0.498-0.078,0.647-0.144L452.903,274.485z"/>
		<path fill="#FFFFFF" d="M453.78,273.238c0.012,0.714,0.468,1.008,0.996,1.008c0.378,0,0.605-0.066,0.804-0.15l0.09,0.377
			c-0.186,0.084-0.504,0.18-0.965,0.18c-0.894,0-1.427-0.588-1.427-1.463s0.516-1.565,1.361-1.565c0.947,0,1.199,0.833,1.199,1.367
			c0,0.108-0.012,0.192-0.018,0.246H453.78z M455.327,272.86c0.006-0.336-0.138-0.857-0.731-0.857c-0.534,0-0.768,0.492-0.81,0.857
			H455.327z"/>
		<path fill="#FFFFFF" d="M458.999,270.335v3.508c0,0.258,0.006,0.552,0.024,0.75h-0.474l-0.024-0.504h-0.012
			c-0.162,0.324-0.516,0.57-0.989,0.57c-0.702,0-1.241-0.594-1.241-1.475c-0.006-0.965,0.594-1.559,1.301-1.559
			c0.444,0,0.744,0.21,0.875,0.444h0.012v-1.733H458.999z M458.471,272.872c0-0.066-0.006-0.156-0.024-0.222
			c-0.078-0.336-0.366-0.612-0.761-0.612c-0.546,0-0.87,0.48-0.87,1.122c0,0.587,0.288,1.073,0.857,1.073
			c0.354,0,0.678-0.234,0.773-0.629c0.018-0.072,0.024-0.144,0.024-0.228V272.872z"/>
		<path fill="#FFFFFF" d="M461.166,274.593v-4.042h0.57l1.295,2.045c0.3,0.474,0.534,0.9,0.726,1.313l0.012-0.006
			c-0.048-0.54-0.06-1.032-0.06-1.661v-1.691h0.492v4.042h-0.528l-1.283-2.051c-0.282-0.45-0.552-0.912-0.756-1.349l-0.018,0.006
			c0.03,0.51,0.042,0.995,0.042,1.667v1.727H461.166z"/>
		<path fill="#FFFFFF" d="M465.389,273.238c0.012,0.714,0.468,1.008,0.996,1.008c0.378,0,0.605-0.066,0.804-0.15l0.09,0.377
			c-0.186,0.084-0.504,0.18-0.965,0.18c-0.894,0-1.427-0.588-1.427-1.463s0.516-1.565,1.361-1.565c0.947,0,1.199,0.833,1.199,1.367
			c0,0.108-0.012,0.192-0.018,0.246H465.389z M466.937,272.86c0.006-0.336-0.138-0.857-0.731-0.857c-0.534,0-0.768,0.492-0.81,0.857
			H466.937z"/>
		<path fill="#FFFFFF" d="M468.311,271.691l0.384,1.475c0.084,0.324,0.162,0.624,0.216,0.923h0.018
			c0.066-0.293,0.162-0.605,0.258-0.917l0.474-1.481h0.443l0.45,1.451c0.108,0.348,0.192,0.654,0.258,0.947h0.018
			c0.048-0.293,0.125-0.6,0.222-0.941l0.414-1.457h0.522l-0.936,2.902h-0.48l-0.443-1.385c-0.102-0.324-0.186-0.612-0.258-0.954
			h-0.012c-0.072,0.348-0.162,0.648-0.264,0.959l-0.468,1.379h-0.48l-0.875-2.902H468.311z"/>
	</g>
	<g>
		<rect x="413.74" y="292.5" fill="none" width="83.5" height="29.5"/>
		<path fill="#FFFFFF" d="M445.354,295.199h-0.038l-2.146,1.159l-0.323-1.273l2.698-1.444h1.425v12.348h-1.615V295.199z"/>
		<path fill="#FFFFFF" d="M456.639,305.99v-3.362h-5.737v-1.102l5.509-7.884h1.805v7.675h1.729v1.311h-1.729v3.362H456.639z
			 M456.639,301.316v-4.123c0-0.646,0.019-1.292,0.057-1.938h-0.057c-0.38,0.722-0.684,1.254-1.026,1.824l-3.021,4.198v0.038
			H456.639z"/>
		<path fill="#FFFFFF" d="M466.385,305.99v-3.362h-5.737v-1.102l5.509-7.884h1.805v7.675h1.729v1.311h-1.729v3.362H466.385z
			 M466.385,301.316v-4.123c0-0.646,0.019-1.292,0.057-1.938h-0.057c-0.38,0.722-0.684,1.254-1.026,1.824l-3.021,4.198v0.038
			H466.385z"/>
	</g>
</g>
<g>
	<g>
		<polygon fill="#E5173A" points="684.997,263.552 684.997,350.648 677.197,358.448 548.502,358.448 548.502,263.552 		"/>
		<rect x="548.502" y="263.552" fill="#F2254D" width="136.495" height="16.899"/>
		<polygon fill="#C61033" points="684.997,341.549 684.997,350.648 677.197,358.448 548.502,358.448 548.502,341.549 		"/>
	</g>
	<g>
		<rect x="580.583" y="270.417" fill="none" width="75.333" height="10.367"/>
		<path fill="#FFFFFF" d="M608.667,270.683c0.252-0.042,0.582-0.078,1.001-0.078c0.516,0,0.894,0.12,1.134,0.336
			c0.222,0.192,0.354,0.486,0.354,0.845c0,0.366-0.108,0.654-0.312,0.864c-0.275,0.294-0.726,0.444-1.235,0.444
			c-0.156,0-0.3-0.006-0.42-0.036v1.619h-0.522V270.683z M609.189,272.631c0.114,0.03,0.258,0.042,0.432,0.042
			c0.63,0,1.014-0.306,1.014-0.863c0-0.534-0.378-0.792-0.954-0.792c-0.228,0-0.402,0.018-0.492,0.042V272.631z"/>
		<path fill="#FFFFFF" d="M612.333,270.958c0.006,0.18-0.126,0.324-0.336,0.324c-0.186,0-0.318-0.144-0.318-0.324
			c0-0.186,0.138-0.33,0.33-0.33C612.207,270.628,612.333,270.772,612.333,270.958z M611.746,274.676v-2.902h0.527v2.902H611.746z"
			/>
		<path fill="#FFFFFF" d="M613.15,272.721c0-0.372-0.012-0.671-0.024-0.947h0.474l0.024,0.498h0.012
			c0.216-0.354,0.558-0.563,1.032-0.563c0.702,0,1.229,0.594,1.229,1.475c0,1.043-0.635,1.559-1.319,1.559
			c-0.384,0-0.719-0.168-0.893-0.456h-0.012v1.577h-0.521V272.721z M613.671,273.495c0,0.078,0.012,0.15,0.024,0.216
			c0.096,0.366,0.414,0.618,0.792,0.618c0.558,0,0.882-0.456,0.882-1.122c0-0.582-0.306-1.08-0.864-1.08
			c-0.36,0-0.696,0.258-0.797,0.654c-0.018,0.066-0.036,0.144-0.036,0.216V273.495z"/>
		<path fill="#FFFFFF" d="M616.857,273.321c0.012,0.714,0.468,1.008,0.996,1.008c0.378,0,0.605-0.066,0.804-0.15l0.09,0.377
			c-0.186,0.084-0.504,0.18-0.965,0.18c-0.894,0-1.427-0.588-1.427-1.463s0.516-1.565,1.361-1.565c0.947,0,1.199,0.833,1.199,1.367
			c0,0.108-0.012,0.192-0.018,0.246H616.857z M618.405,272.943c0.006-0.336-0.138-0.857-0.731-0.857
			c-0.534,0-0.768,0.492-0.81,0.857H618.405z"/>
		<path fill="#FFFFFF" d="M619.57,270.418h0.527v4.258h-0.527V270.418z"/>
		<path fill="#FFFFFF" d="M621.573,270.958c0.006,0.18-0.126,0.324-0.336,0.324c-0.186,0-0.318-0.144-0.318-0.324
			c0-0.186,0.138-0.33,0.33-0.33C621.447,270.628,621.573,270.772,621.573,270.958z M620.986,274.676v-2.902h0.527v2.902H620.986z"
			/>
		<path fill="#FFFFFF" d="M622.389,272.56c0-0.3-0.006-0.546-0.024-0.786h0.468l0.03,0.479h0.012
			c0.144-0.276,0.48-0.545,0.959-0.545c0.402,0,1.025,0.24,1.025,1.235v1.733h-0.527v-1.673c0-0.468-0.174-0.858-0.672-0.858
			c-0.348,0-0.618,0.246-0.708,0.54c-0.024,0.066-0.036,0.156-0.036,0.246v1.745h-0.527V272.56z"/>
		<path fill="#FFFFFF" d="M626.013,273.321c0.012,0.714,0.468,1.008,0.996,1.008c0.378,0,0.605-0.066,0.804-0.15l0.09,0.377
			c-0.186,0.084-0.504,0.18-0.965,0.18c-0.894,0-1.427-0.588-1.427-1.463s0.516-1.565,1.361-1.565c0.947,0,1.199,0.833,1.199,1.367
			c0,0.108-0.012,0.192-0.018,0.246H626.013z M627.56,272.943c0.006-0.336-0.138-0.857-0.731-0.857c-0.534,0-0.768,0.492-0.81,0.857
			H627.56z"/>
	</g>
	<g>
		<rect x="576.5" y="292.583" fill="none" width="83.5" height="29.5"/>
		<path fill="#FFFFFF" d="M609.652,306.073v-3.362h-5.737v-1.102l5.509-7.884h1.805v7.675h1.729v1.311h-1.729v3.362H609.652z
			 M609.652,301.399v-4.123c0-0.646,0.019-1.292,0.057-1.938h-0.057c-0.38,0.722-0.684,1.254-1.026,1.824l-3.021,4.198v0.038
			H609.652z"/>
		<path fill="#FFFFFF" d="M621.279,294.902c-0.342-0.019-0.779,0-1.254,0.076c-2.622,0.437-4.008,2.355-4.293,4.388h0.057
			c0.589-0.779,1.615-1.425,2.982-1.425c2.185,0,3.724,1.577,3.724,3.989c0,2.261-1.539,4.351-4.104,4.351
			c-2.641,0-4.369-2.052-4.369-5.262c0-2.432,0.874-4.351,2.09-5.566c1.025-1.007,2.394-1.634,3.951-1.824
			c0.494-0.076,0.912-0.095,1.216-0.095V294.902z M620.804,302.026c0-1.767-1.007-2.831-2.545-2.831
			c-1.007,0-1.938,0.627-2.394,1.52c-0.114,0.19-0.19,0.437-0.19,0.741c0.038,2.033,0.969,3.533,2.716,3.533
			C619.835,304.99,620.804,303.793,620.804,302.026z"/>
		<path fill="#FFFFFF" d="M623.826,302.938c0-1.558,0.931-2.659,2.45-3.305l-0.019-0.057c-1.368-0.646-1.957-1.709-1.957-2.773
			c0-1.957,1.653-3.287,3.818-3.287c2.394,0,3.591,1.501,3.591,3.04c0,1.045-0.513,2.166-2.033,2.888v0.057
			c1.539,0.608,2.488,1.691,2.488,3.192c0,2.146-1.843,3.59-4.198,3.59C625.384,306.282,623.826,304.743,623.826,302.938z
			 M630.475,302.862c0-1.501-1.045-2.223-2.717-2.698c-1.444,0.418-2.223,1.368-2.223,2.546c-0.057,1.253,0.893,2.355,2.47,2.355
			C629.506,305.066,630.475,304.135,630.475,302.862z M625.877,296.688c0,1.235,0.931,1.9,2.356,2.28
			c1.064-0.361,1.881-1.121,1.881-2.242c0-0.988-0.589-2.014-2.09-2.014C626.638,294.712,625.877,295.625,625.877,296.688z"/>
	</g>
</g>
<g>
	<g>
		<polygon fill="#F79B16" points="360.25,262.5 360.25,349.59 352.392,357.5 223.25,357.5 223.25,262.5 		"/>
		<rect x="223.25" y="262.5" fill="#F7A231" width="137" height="16"/>
		<polygon fill="#EF8D0A" points="360.25,340.5 360.25,349.59 352.407,357.5 223.25,357.5 223.25,340.5 		"/>
	</g>
	<g>
		<rect x="254.097" y="268.436" fill="none" width="75.333" height="10.367"/>
		<path fill="#FFFFFF" d="M286.199,270.633c0,1.392-0.845,2.129-1.877,2.129c-1.067,0-1.817-0.828-1.817-2.051
			c0-1.283,0.798-2.123,1.877-2.123C285.486,268.588,286.199,269.434,286.199,270.633z M283.063,270.699
			c0,0.864,0.468,1.637,1.29,1.637c0.828,0,1.295-0.762,1.295-1.679c0-0.803-0.419-1.643-1.289-1.643
			C283.495,269.014,283.063,269.812,283.063,270.699z"/>
		<path fill="#FFFFFF" d="M288.75,272.696v-2.5h-1.217v2.5h-0.522v-2.5h-0.408v-0.402h0.408v-0.096c0-0.408,0.096-0.761,0.324-0.989
			c0.168-0.168,0.408-0.27,0.732-0.27c0.167,0,0.324,0.054,0.414,0.102l-0.108,0.39c-0.078-0.036-0.192-0.072-0.312-0.072
			c-0.414,0-0.527,0.354-0.527,0.81v0.126h1.217v-0.138c0-0.408,0.096-0.779,0.342-1.013c0.198-0.192,0.461-0.27,0.702-0.27
			c0.192,0,0.348,0.042,0.45,0.084l-0.066,0.408c-0.084-0.036-0.186-0.066-0.342-0.066c-0.444,0-0.564,0.396-0.564,0.84v0.156h0.702
			v0.402h-0.696v2.5H288.75z"/>
		<path fill="#FFFFFF" d="M290.671,271.34c0.012,0.714,0.468,1.008,0.996,1.008c0.378,0,0.605-0.066,0.804-0.15l0.09,0.377
			c-0.186,0.084-0.504,0.18-0.965,0.18c-0.894,0-1.427-0.588-1.427-1.463s0.516-1.565,1.361-1.565c0.947,0,1.199,0.833,1.199,1.367
			c0,0.108-0.012,0.192-0.018,0.246H290.671z M292.218,270.963c0.006-0.336-0.138-0.857-0.731-0.857
			c-0.534,0-0.768,0.492-0.81,0.857H292.218z"/>
		<path fill="#FFFFFF" d="M293.383,270.699c0-0.342-0.006-0.635-0.024-0.905h0.462l0.018,0.57h0.024
			c0.132-0.39,0.45-0.636,0.804-0.636c0.06,0,0.102,0.006,0.15,0.018v0.498c-0.054-0.012-0.108-0.018-0.18-0.018
			c-0.372,0-0.635,0.282-0.708,0.678c-0.012,0.072-0.024,0.156-0.024,0.246v1.547h-0.521V270.699z"/>
		<path fill="#FFFFFF" d="M295.579,271.34c0.012,0.714,0.468,1.008,0.996,1.008c0.378,0,0.605-0.066,0.804-0.15l0.09,0.377
			c-0.186,0.084-0.504,0.18-0.965,0.18c-0.894,0-1.427-0.588-1.427-1.463s0.516-1.565,1.361-1.565c0.947,0,1.199,0.833,1.199,1.367
			c0,0.108-0.012,0.192-0.018,0.246H295.579z M297.126,270.963c0.006-0.336-0.138-0.857-0.731-0.857
			c-0.534,0-0.768,0.492-0.81,0.857H297.126z"/>
		<path fill="#FFFFFF" d="M300.797,268.438v3.508c0,0.258,0.006,0.552,0.024,0.75h-0.474l-0.024-0.504h-0.012
			c-0.162,0.324-0.516,0.57-0.989,0.57c-0.702,0-1.241-0.594-1.241-1.475c-0.006-0.965,0.594-1.559,1.301-1.559
			c0.444,0,0.744,0.21,0.875,0.444h0.012v-1.733H300.797z M300.27,270.975c0-0.066-0.006-0.156-0.024-0.222
			c-0.078-0.336-0.366-0.612-0.761-0.612c-0.546,0-0.87,0.48-0.87,1.122c0,0.587,0.288,1.073,0.857,1.073
			c0.354,0,0.678-0.234,0.773-0.629c0.018-0.072,0.024-0.144,0.024-0.228V270.975z"/>
	</g>
	<g>
		<rect x="250.014" y="290.603" fill="none" width="83.5" height="29.5"/>
		<path fill="#FFFFFF" d="M276.753,293.302h-0.038l-2.146,1.159l-0.323-1.273l2.698-1.444h1.425v12.348h-1.615V293.302z"/>
		<path fill="#FFFFFF" d="M282.872,304.092v-1.026l1.311-1.273c3.154-3.001,4.579-4.597,4.598-6.459
			c0-1.254-0.608-2.413-2.451-2.413c-1.121,0-2.052,0.57-2.622,1.045l-0.532-1.178c0.855-0.722,2.071-1.254,3.496-1.254
			c2.66,0,3.78,1.824,3.78,3.59c0,2.28-1.652,4.123-4.255,6.63l-0.988,0.912v0.038h5.547v1.387H282.872z"/>
		<path fill="#FFFFFF" d="M292.618,304.092v-1.026l1.311-1.273c3.154-3.001,4.579-4.597,4.598-6.459
			c0-1.254-0.608-2.413-2.451-2.413c-1.121,0-2.052,0.57-2.622,1.045l-0.532-1.178c0.855-0.722,2.071-1.254,3.496-1.254
			c2.66,0,3.78,1.824,3.78,3.59c0,2.28-1.652,4.123-4.255,6.63l-0.988,0.912v0.038h5.547v1.387H292.618z"/>
		<path fill="#FFFFFF" d="M302.764,302.173c0.475,0.304,1.577,0.779,2.735,0.779c2.147,0,2.812-1.368,2.793-2.394
			c-0.019-1.729-1.577-2.469-3.192-2.469h-0.931v-1.254h0.931c1.216,0,2.755-0.627,2.755-2.09c0-0.988-0.627-1.862-2.166-1.862
			c-0.988,0-1.938,0.437-2.469,0.817l-0.437-1.216c0.646-0.475,1.899-0.95,3.229-0.95c2.432,0,3.533,1.444,3.533,2.944
			c0,1.273-0.76,2.356-2.279,2.907v0.038c1.52,0.304,2.754,1.444,2.754,3.172c0,1.976-1.539,3.705-4.502,3.705
			c-1.387,0-2.603-0.437-3.21-0.836L302.764,302.173z"/>
	</g>
</g>
<g>
	<g>
		<polygon fill="#F79B16" points="601.25,157.5 601.25,244.59 593.392,252.5 464.25,252.5 464.25,157.5 		"/>
		<rect x="464.25" y="157.5" fill="#F7A231" width="137" height="16"/>
		<polygon fill="#EF8D0A" points="601.25,235.5 601.25,244.59 593.407,252.5 464.25,252.5 464.25,235.5 		"/>
	</g>
	<g>
		<rect x="495.097" y="163.436" fill="none" width="75.333" height="10.367"/>
		<path fill="#FFFFFF" d="M527.199,165.633c0,1.392-0.845,2.129-1.877,2.129c-1.067,0-1.817-0.828-1.817-2.051
			c0-1.283,0.798-2.123,1.877-2.123C526.486,163.588,527.199,164.434,527.199,165.633z M524.063,165.699
			c0,0.864,0.468,1.637,1.29,1.637c0.828,0,1.295-0.762,1.295-1.679c0-0.803-0.419-1.643-1.289-1.643
			C524.495,164.014,524.063,164.812,524.063,165.699z"/>
		<path fill="#FFFFFF" d="M529.75,167.696v-2.5h-1.217v2.5h-0.522v-2.5h-0.408v-0.402h0.408v-0.096c0-0.408,0.096-0.761,0.324-0.989
			c0.168-0.168,0.408-0.27,0.732-0.27c0.167,0,0.324,0.054,0.414,0.102l-0.108,0.39c-0.078-0.036-0.192-0.072-0.312-0.072
			c-0.414,0-0.527,0.354-0.527,0.81v0.126h1.217v-0.138c0-0.408,0.096-0.779,0.342-1.013c0.198-0.192,0.461-0.27,0.702-0.27
			c0.192,0,0.348,0.042,0.45,0.084l-0.066,0.408c-0.084-0.036-0.186-0.066-0.342-0.066c-0.444,0-0.564,0.396-0.564,0.84v0.156h0.702
			v0.402h-0.696v2.5H529.75z"/>
		<path fill="#FFFFFF" d="M531.671,166.34c0.012,0.714,0.468,1.008,0.996,1.008c0.378,0,0.605-0.066,0.804-0.15l0.09,0.377
			c-0.186,0.084-0.504,0.18-0.965,0.18c-0.894,0-1.427-0.588-1.427-1.463s0.516-1.565,1.361-1.565c0.947,0,1.199,0.833,1.199,1.367
			c0,0.108-0.012,0.192-0.018,0.246H531.671z M533.218,165.963c0.006-0.336-0.138-0.857-0.731-0.857
			c-0.534,0-0.768,0.492-0.81,0.857H533.218z"/>
		<path fill="#FFFFFF" d="M534.383,165.699c0-0.342-0.006-0.635-0.024-0.905h0.462l0.018,0.57h0.024
			c0.132-0.39,0.45-0.636,0.804-0.636c0.06,0,0.102,0.006,0.15,0.018v0.498c-0.054-0.012-0.108-0.018-0.18-0.018
			c-0.372,0-0.635,0.282-0.708,0.678c-0.012,0.072-0.024,0.156-0.024,0.246v1.547h-0.521V165.699z"/>
		<path fill="#FFFFFF" d="M536.579,166.34c0.012,0.714,0.468,1.008,0.996,1.008c0.378,0,0.605-0.066,0.804-0.15l0.09,0.377
			c-0.186,0.084-0.504,0.18-0.965,0.18c-0.894,0-1.427-0.588-1.427-1.463s0.516-1.565,1.361-1.565c0.947,0,1.199,0.833,1.199,1.367
			c0,0.108-0.012,0.192-0.018,0.246H536.579z M538.126,165.963c0.006-0.336-0.138-0.857-0.731-0.857
			c-0.534,0-0.768,0.492-0.81,0.857H538.126z"/>
		<path fill="#FFFFFF" d="M541.797,163.438v3.508c0,0.258,0.006,0.552,0.024,0.75h-0.474l-0.024-0.504h-0.012
			c-0.162,0.324-0.516,0.57-0.989,0.57c-0.702,0-1.241-0.594-1.241-1.475c-0.006-0.965,0.594-1.559,1.301-1.559
			c0.444,0,0.744,0.21,0.875,0.444h0.012v-1.733H541.797z M541.27,165.975c0-0.066-0.006-0.156-0.024-0.222
			c-0.078-0.336-0.366-0.612-0.761-0.612c-0.546,0-0.87,0.48-0.87,1.122c0,0.587,0.288,1.073,0.857,1.073
			c0.354,0,0.678-0.234,0.773-0.629c0.018-0.072,0.024-0.144,0.024-0.228V165.975z"/>
	</g>
	<g>
		<rect x="491.014" y="185.603" fill="none" width="83.5" height="29.5"/>
		<path fill="#FFFFFF" d="M517.753,188.302h-0.038l-2.146,1.159l-0.323-1.273l2.698-1.444h1.425v12.348h-1.615V188.302z"/>
		<path fill="#FFFFFF" d="M523.872,199.092v-1.026l1.311-1.273c3.154-3.001,4.579-4.597,4.598-6.459
			c0-1.254-0.608-2.413-2.451-2.413c-1.121,0-2.052,0.57-2.622,1.045l-0.532-1.178c0.855-0.722,2.071-1.254,3.496-1.254
			c2.66,0,3.78,1.824,3.78,3.59c0,2.28-1.652,4.123-4.255,6.63l-0.988,0.912v0.038h5.547v1.387H523.872z"/>
		<path fill="#FFFFFF" d="M533.618,199.092v-1.026l1.311-1.273c3.154-3.001,4.579-4.597,4.598-6.459
			c0-1.254-0.608-2.413-2.451-2.413c-1.121,0-2.052,0.57-2.622,1.045l-0.532-1.178c0.855-0.722,2.071-1.254,3.496-1.254
			c2.66,0,3.78,1.824,3.78,3.59c0,2.28-1.652,4.123-4.255,6.63l-0.988,0.912v0.038h5.547v1.387H533.618z"/>
		<path fill="#FFFFFF" d="M543.764,197.173c0.475,0.304,1.577,0.779,2.735,0.779c2.147,0,2.812-1.368,2.793-2.394
			c-0.019-1.729-1.577-2.469-3.192-2.469h-0.931v-1.254h0.931c1.216,0,2.755-0.627,2.755-2.09c0-0.988-0.627-1.862-2.166-1.862
			c-0.988,0-1.938,0.437-2.469,0.817l-0.437-1.216c0.646-0.475,1.899-0.95,3.229-0.95c2.432,0,3.533,1.444,3.533,2.944
			c0,1.273-0.76,2.356-2.279,2.907v0.038c1.52,0.304,2.754,1.444,2.754,3.172c0,1.976-1.539,3.705-4.502,3.705
			c-1.387,0-2.603-0.437-3.21-0.836L543.764,197.173z"/>
	</g>
</g>
<g>
	<g>
		<polygon fill="#F79B16" points="319.25,147.5 319.25,234.59 311.392,242.5 182.25,242.5 182.25,147.5 		"/>
		<rect x="182.25" y="147.5" fill="#F7A231" width="137" height="16"/>
		<polygon fill="#EF8D0A" points="319.25,225.5 319.25,234.59 311.407,242.5 182.25,242.5 182.25,225.5 		"/>
	</g>
	<g>
		<rect x="213.097" y="153.436" fill="none" width="75.333" height="10.367"/>
		<path fill="#FFFFFF" d="M245.199,155.633c0,1.392-0.845,2.129-1.877,2.129c-1.067,0-1.817-0.828-1.817-2.051
			c0-1.283,0.798-2.123,1.877-2.123C244.486,153.588,245.199,154.434,245.199,155.633z M242.063,155.699
			c0,0.864,0.468,1.637,1.29,1.637c0.828,0,1.295-0.762,1.295-1.679c0-0.803-0.419-1.643-1.289-1.643
			C242.495,154.014,242.063,154.812,242.063,155.699z"/>
		<path fill="#FFFFFF" d="M247.75,157.696v-2.5h-1.217v2.5h-0.522v-2.5h-0.408v-0.402h0.408v-0.096c0-0.408,0.096-0.761,0.324-0.989
			c0.168-0.168,0.408-0.27,0.732-0.27c0.167,0,0.324,0.054,0.414,0.102l-0.108,0.39c-0.078-0.036-0.192-0.072-0.312-0.072
			c-0.414,0-0.527,0.354-0.527,0.81v0.126h1.217v-0.138c0-0.408,0.096-0.779,0.342-1.013c0.198-0.192,0.461-0.27,0.702-0.27
			c0.192,0,0.348,0.042,0.45,0.084l-0.066,0.408c-0.084-0.036-0.186-0.066-0.342-0.066c-0.444,0-0.564,0.396-0.564,0.84v0.156h0.702
			v0.402h-0.696v2.5H247.75z"/>
		<path fill="#FFFFFF" d="M249.671,156.34c0.012,0.714,0.468,1.008,0.996,1.008c0.378,0,0.605-0.066,0.804-0.15l0.09,0.377
			c-0.186,0.084-0.504,0.18-0.965,0.18c-0.894,0-1.427-0.588-1.427-1.463s0.516-1.565,1.361-1.565c0.947,0,1.199,0.833,1.199,1.367
			c0,0.108-0.012,0.192-0.018,0.246H249.671z M251.218,155.963c0.006-0.336-0.138-0.857-0.731-0.857
			c-0.534,0-0.768,0.492-0.81,0.857H251.218z"/>
		<path fill="#FFFFFF" d="M252.383,155.699c0-0.342-0.006-0.635-0.024-0.905h0.462l0.018,0.57h0.024
			c0.132-0.39,0.45-0.636,0.804-0.636c0.06,0,0.102,0.006,0.15,0.018v0.498c-0.054-0.012-0.108-0.018-0.18-0.018
			c-0.372,0-0.635,0.282-0.708,0.678c-0.012,0.072-0.024,0.156-0.024,0.246v1.547h-0.521V155.699z"/>
		<path fill="#FFFFFF" d="M254.579,156.34c0.012,0.714,0.468,1.008,0.996,1.008c0.378,0,0.605-0.066,0.804-0.15l0.09,0.377
			c-0.186,0.084-0.504,0.18-0.965,0.18c-0.894,0-1.427-0.588-1.427-1.463s0.516-1.565,1.361-1.565c0.947,0,1.199,0.833,1.199,1.367
			c0,0.108-0.012,0.192-0.018,0.246H254.579z M256.126,155.963c0.006-0.336-0.138-0.857-0.731-0.857
			c-0.534,0-0.768,0.492-0.81,0.857H256.126z"/>
		<path fill="#FFFFFF" d="M259.797,153.438v3.508c0,0.258,0.006,0.552,0.024,0.75h-0.474l-0.024-0.504h-0.012
			c-0.162,0.324-0.516,0.57-0.989,0.57c-0.702,0-1.241-0.594-1.241-1.475c-0.006-0.965,0.594-1.559,1.301-1.559
			c0.444,0,0.744,0.21,0.875,0.444h0.012v-1.733H259.797z M259.27,155.975c0-0.066-0.006-0.156-0.024-0.222
			c-0.078-0.336-0.366-0.612-0.761-0.612c-0.546,0-0.87,0.48-0.87,1.122c0,0.587,0.288,1.073,0.857,1.073
			c0.354,0,0.678-0.234,0.773-0.629c0.018-0.072,0.024-0.144,0.024-0.228V155.975z"/>
	</g>
	<g>
		<rect x="209.014" y="175.603" fill="none" width="83.5" height="29.5"/>
		<path fill="#FFFFFF" d="M235.753,178.302h-0.038l-2.146,1.159l-0.323-1.273l2.698-1.444h1.425v12.348h-1.615V178.302z"/>
		<path fill="#FFFFFF" d="M241.872,189.092v-1.026l1.311-1.273c3.154-3.001,4.579-4.597,4.598-6.459
			c0-1.254-0.608-2.413-2.451-2.413c-1.121,0-2.052,0.57-2.622,1.045l-0.532-1.178c0.855-0.722,2.071-1.254,3.496-1.254
			c2.66,0,3.78,1.824,3.78,3.59c0,2.28-1.652,4.123-4.255,6.63l-0.988,0.912v0.038h5.547v1.387H241.872z"/>
		<path fill="#FFFFFF" d="M251.618,189.092v-1.026l1.311-1.273c3.154-3.001,4.579-4.597,4.598-6.459
			c0-1.254-0.608-2.413-2.451-2.413c-1.121,0-2.052,0.57-2.622,1.045l-0.532-1.178c0.855-0.722,2.071-1.254,3.496-1.254
			c2.66,0,3.78,1.824,3.78,3.59c0,2.28-1.652,4.123-4.255,6.63l-0.988,0.912v0.038h5.547v1.387H251.618z"/>
		<path fill="#FFFFFF" d="M261.764,187.173c0.475,0.304,1.577,0.779,2.735,0.779c2.147,0,2.812-1.368,2.793-2.394
			c-0.019-1.729-1.577-2.469-3.192-2.469h-0.931v-1.254h0.931c1.216,0,2.755-0.627,2.755-2.09c0-0.988-0.627-1.862-2.166-1.862
			c-0.988,0-1.938,0.437-2.469,0.817l-0.437-1.216c0.646-0.475,1.899-0.95,3.229-0.95c2.432,0,3.533,1.444,3.533,2.944
			c0,1.273-0.76,2.356-2.279,2.907v0.038c1.52,0.304,2.754,1.444,2.754,3.172c0,1.976-1.539,3.705-4.502,3.705
			c-1.387,0-2.603-0.437-3.21-0.836L261.764,187.173z"/>
	</g>
</g>
<g>
</g>
<g>
</g>
<polygon fill="#8BC9F7" points="524.592,19.576 558.788,66.54 558.788,86.221 575.252,96.842 575.252,66.852 616.618,19.42 "/>
<path fill="#8E8B88" d="M558.795,86.289c0,0,10.359,2.161,16.382,10.553C575.177,96.842,563.432,91.344,558.795,86.289z"/>
<path fill="#227FDD" d="M109.24,55.5C109.05,26.12,85.18,2.36,55.75,2.36S2.45,26.12,2.26,55.5c-0.01,0.06-0.01,0.12-0.01,0.18v0.18
	c0,0.35,0,0.7,0.02,1.04c0.54,29.07,24.28,52.46,53.48,52.46s52.94-23.39,53.48-52.46c0.02-0.34,0.02-0.69,0.02-1.04v-0.18
	C109.25,55.62,109.25,55.56,109.24,55.5z M55.75,17.96c20.81,0,37.71,16.78,37.9,37.54c0,0.33,0,0.66-0.01,0.98
	c-0.33,20.64-17.17,37.28-37.89,37.28S18.19,77.12,17.86,56.48c-0.01-0.32-0.01-0.65-0.01-0.98C18.04,34.74,34.94,17.96,55.75,17.96
	z"/>
<g>
	<path d="M50.696,34.162c0,2.318-1.409,3.548-3.128,3.548c-1.779,0-3.028-1.379-3.028-3.418c0-2.139,1.329-3.538,3.128-3.538
		C49.507,30.754,50.696,32.163,50.696,34.162z M45.469,34.272c0,1.439,0.78,2.729,2.149,2.729c1.379,0,2.159-1.27,2.159-2.798
		c0-1.339-0.699-2.739-2.148-2.739C46.188,31.463,45.469,32.793,45.469,34.272z"/>
	<path d="M51.799,34.342c0-0.62-0.02-1.119-0.04-1.579h0.79l0.04,0.83h0.02c0.36-0.59,0.93-0.939,1.719-0.939
		c1.169,0,2.049,0.989,2.049,2.458c0,1.739-1.06,2.599-2.199,2.599c-0.64,0-1.199-0.28-1.489-0.759h-0.02v2.628h-0.87V34.342z
		 M52.669,35.631c0,0.13,0.02,0.25,0.04,0.36c0.16,0.609,0.689,1.029,1.319,1.029c0.929,0,1.469-0.76,1.469-1.869
		c0-0.969-0.51-1.799-1.439-1.799c-0.6,0-1.159,0.43-1.329,1.089c-0.03,0.11-0.06,0.24-0.06,0.36V35.631z"/>
	<path d="M57.979,35.341c0.02,1.189,0.78,1.679,1.659,1.679c0.63,0,1.009-0.11,1.339-0.25l0.15,0.63c-0.31,0.14-0.84,0.3-1.609,0.3
		c-1.489,0-2.378-0.979-2.378-2.439c0-1.459,0.859-2.608,2.269-2.608c1.579,0,1.999,1.389,1.999,2.279c0,0.18-0.02,0.32-0.03,0.41
		H57.979z M60.558,34.712c0.01-0.56-0.23-1.43-1.219-1.43c-0.89,0-1.279,0.82-1.349,1.43H60.558z"/>
	<path d="M62.499,34.072c0-0.5-0.01-0.91-0.04-1.31h0.78l0.05,0.8h0.02c0.24-0.46,0.8-0.91,1.599-0.91c0.67,0,1.709,0.4,1.709,2.059
		V37.6h-0.879v-2.789c0-0.779-0.29-1.429-1.119-1.429c-0.58,0-1.03,0.41-1.18,0.899c-0.04,0.11-0.06,0.26-0.06,0.41V37.6h-0.879
		V34.072z"/>
	<path d="M37.755,40.944c0.419-0.07,0.969-0.13,1.669-0.13c0.859,0,1.489,0.2,1.889,0.56c0.37,0.32,0.59,0.81,0.59,1.409
		c0,0.61-0.18,1.089-0.52,1.439c-0.46,0.49-1.209,0.739-2.059,0.739c-0.26,0-0.5-0.01-0.7-0.06V47.6h-0.869V40.944z M38.624,44.192
		c0.19,0.05,0.43,0.07,0.72,0.07c1.049,0,1.689-0.509,1.689-1.439c0-0.89-0.629-1.319-1.589-1.319c-0.38,0-0.67,0.03-0.82,0.07
		V44.192z"/>
	<path d="M47.172,45.142c0,1.789-1.24,2.568-2.409,2.568c-1.31,0-2.319-0.959-2.319-2.489c0-1.619,1.059-2.568,2.398-2.568
		C46.232,42.653,47.172,43.662,47.172,45.142z M43.334,45.191c0,1.06,0.609,1.859,1.469,1.859c0.84,0,1.469-0.79,1.469-1.879
		c0-0.819-0.41-1.859-1.449-1.859C43.784,43.313,43.334,44.272,43.334,45.191z"/>
	<path d="M48.165,46.701c0.26,0.17,0.719,0.35,1.159,0.35c0.64,0,0.939-0.32,0.939-0.72c0-0.419-0.25-0.649-0.899-0.889
		c-0.87-0.31-1.279-0.79-1.279-1.369c0-0.78,0.629-1.419,1.669-1.419c0.49,0,0.919,0.14,1.189,0.3l-0.22,0.64
		c-0.19-0.12-0.54-0.28-0.99-0.28c-0.52,0-0.81,0.3-0.81,0.66c0,0.4,0.29,0.58,0.919,0.819c0.84,0.32,1.27,0.74,1.27,1.459
		c0,0.85-0.66,1.449-1.809,1.449c-0.53,0-1.02-0.13-1.359-0.33L48.165,46.701z"/>
	<path d="M53.224,41.403c0.01,0.3-0.21,0.54-0.56,0.54c-0.31,0-0.53-0.24-0.53-0.54c0-0.31,0.23-0.549,0.55-0.549
		C53.014,40.854,53.224,41.094,53.224,41.403z M52.244,47.6v-4.837h0.879V47.6H52.244z"/>
	<path d="M55.644,41.374v1.389h1.259v0.67h-1.259v2.608c0,0.6,0.17,0.939,0.66,0.939c0.23,0,0.4-0.03,0.51-0.06l0.04,0.66
		c-0.17,0.07-0.44,0.12-0.78,0.12c-0.41,0-0.74-0.13-0.949-0.37c-0.25-0.26-0.34-0.689-0.34-1.259v-2.638h-0.75v-0.67h0.75v-1.159
		L55.644,41.374z"/>
	<path d="M58.874,41.403c0.01,0.3-0.21,0.54-0.56,0.54c-0.31,0-0.53-0.24-0.53-0.54c0-0.31,0.23-0.549,0.55-0.549
		C58.664,40.854,58.874,41.094,58.874,41.403z M57.894,47.6v-4.837h0.879V47.6H57.894z"/>
	<path d="M64.612,45.142c0,1.789-1.24,2.568-2.409,2.568c-1.31,0-2.319-0.959-2.319-2.489c0-1.619,1.059-2.568,2.398-2.568
		C63.672,42.653,64.612,43.662,64.612,45.142z M60.774,45.191c0,1.06,0.609,1.859,1.469,1.859c0.84,0,1.469-0.79,1.469-1.879
		c0-0.819-0.41-1.859-1.449-1.859C61.224,43.313,60.774,44.272,60.774,45.191z"/>
	<path d="M65.724,44.072c0-0.5-0.01-0.91-0.04-1.31h0.78l0.05,0.8h0.02c0.24-0.46,0.8-0.91,1.599-0.91c0.67,0,1.709,0.4,1.709,2.059
		V47.6h-0.879v-2.789c0-0.779-0.29-1.429-1.119-1.429c-0.58,0-1.03,0.41-1.18,0.899c-0.04,0.11-0.06,0.26-0.06,0.41V47.6h-0.879
		V44.072z"/>
	<path d="M71.154,46.701c0.26,0.17,0.719,0.35,1.159,0.35c0.64,0,0.939-0.32,0.939-0.72c0-0.419-0.25-0.649-0.899-0.889
		c-0.87-0.31-1.279-0.79-1.279-1.369c0-0.78,0.629-1.419,1.669-1.419c0.49,0,0.919,0.14,1.189,0.3l-0.22,0.64
		c-0.19-0.12-0.54-0.28-0.99-0.28c-0.52,0-0.81,0.3-0.81,0.66c0,0.4,0.29,0.58,0.919,0.819c0.84,0.32,1.27,0.74,1.27,1.459
		c0,0.85-0.66,1.449-1.809,1.449c-0.53,0-1.02-0.13-1.359-0.33L71.154,46.701z"/>
</g>
<g>
	<path d="M43.627,76.247c0.342,0.036,0.738,0,1.278-0.054c0.918-0.126,1.783-0.504,2.449-1.134c0.774-0.702,1.333-1.729,1.548-3.115
		h-0.054c-0.648,0.792-1.584,1.26-2.755,1.26c-2.107,0-3.457-1.584-3.457-3.583c0-2.215,1.603-4.159,3.997-4.159
		c2.395,0,3.871,1.944,3.871,4.933c0,2.575-0.864,4.375-2.017,5.492c-0.9,0.882-2.143,1.422-3.403,1.566
		c-0.576,0.09-1.081,0.108-1.458,0.09V76.247z M44.204,69.513c0,1.458,0.882,2.484,2.25,2.484c1.063,0,1.891-0.522,2.305-1.224
		c0.09-0.144,0.144-0.324,0.144-0.576c0-1.999-0.738-3.529-2.395-3.529C45.158,66.668,44.204,67.856,44.204,69.513z"/>
	<path d="M58.929,66.992h-4.465l-0.45,3.007c0.27-0.036,0.522-0.072,0.954-0.072c0.9,0,1.801,0.198,2.521,0.63
		c0.918,0.522,1.674,1.531,1.674,3.007c0,2.287-1.818,3.998-4.357,3.998c-1.278,0-2.358-0.36-2.917-0.72l0.396-1.207
		c0.486,0.288,1.44,0.648,2.503,0.648c1.494,0,2.772-0.972,2.772-2.539c-0.018-1.512-1.026-2.593-3.367-2.593
		c-0.667,0-1.188,0.072-1.621,0.126l0.756-5.618h5.6V66.992z"/>
	<path d="M66.074,77.363v-3.187h-5.438v-1.044l5.222-7.472h1.71v7.274h1.639v1.242h-1.639v3.187H66.074z M66.074,72.934v-3.907
		c0-0.612,0.018-1.225,0.054-1.836h-0.054c-0.36,0.684-0.648,1.188-0.972,1.729l-2.863,3.979v0.036H66.074z"/>
</g>
<path fill="#61B222" d="M239.49,55.5c-0.19-29.38-23.935-53.14-53.365-53.14s-53.487,23.76-53.678,53.14
	c-0.01,0.06-0.197,0.12-0.197,0.18v0.18c0,0.35,0.25,0.7,0.27,1.04c0.54,29.07,24.405,52.46,53.605,52.46s52.752-23.39,53.292-52.46
	c0.02-0.34-0.167-0.69-0.167-1.04v-0.18C239.25,55.62,239.5,55.56,239.49,55.5z M186.25,17.96c20.81,0,37.71,16.78,37.9,37.54
	c0,0.33,0,0.66-0.01,0.98c-0.33,20.64-17.17,37.28-37.89,37.28s-37.56-16.64-37.89-37.28c-0.01-0.32-0.01-0.65-0.01-0.98
	C148.54,34.74,165.44,17.96,186.25,17.96z"/>
<g>
	<path d="M169.774,36.541c0.39,0.24,0.959,0.44,1.559,0.44c0.89,0,1.409-0.47,1.409-1.149c0-0.63-0.36-0.989-1.269-1.339
		c-1.1-0.39-1.779-0.959-1.779-1.909c0-1.05,0.87-1.829,2.179-1.829c0.69,0,1.189,0.16,1.489,0.33l-0.24,0.71
		c-0.22-0.12-0.669-0.32-1.279-0.32c-0.919,0-1.269,0.549-1.269,1.009c0,0.63,0.41,0.939,1.339,1.299
		c1.14,0.44,1.719,0.989,1.719,1.979c0,1.04-0.77,1.939-2.359,1.939c-0.649,0-1.359-0.19-1.719-0.43L169.774,36.541z"/>
	<path d="M179.232,35.142c0,1.789-1.24,2.568-2.409,2.568c-1.31,0-2.319-0.959-2.319-2.489c0-1.619,1.06-2.568,2.398-2.568
		C178.292,32.653,179.232,33.662,179.232,35.142z M175.395,35.191c0,1.06,0.609,1.859,1.469,1.859c0.84,0,1.469-0.79,1.469-1.879
		c0-0.819-0.41-1.859-1.449-1.859C175.844,33.313,175.395,34.272,175.395,35.191z"/>
	<path d="M184.392,36.281c0,0.5,0.01,0.939,0.04,1.319h-0.78l-0.05-0.79h-0.02c-0.23,0.39-0.74,0.899-1.599,0.899
		c-0.76,0-1.669-0.42-1.669-2.119v-2.829h0.879v2.679c0,0.919,0.28,1.539,1.08,1.539c0.589,0,1-0.41,1.159-0.8
		c0.05-0.13,0.08-0.29,0.08-0.45v-2.968h0.879V36.281z"/>
	<path d="M185.854,34.272c0-0.57-0.01-1.06-0.04-1.509h0.77l0.03,0.95h0.04c0.22-0.65,0.75-1.06,1.339-1.06
		c0.1,0,0.17,0.01,0.25,0.03v0.83c-0.09-0.02-0.18-0.03-0.3-0.03c-0.62,0-1.059,0.47-1.179,1.129c-0.02,0.12-0.04,0.26-0.04,0.41
		V37.6h-0.87V34.272z"/>
	<path d="M192.472,37.42c-0.23,0.12-0.74,0.28-1.389,0.28c-1.459,0-2.409-0.99-2.409-2.469c0-1.489,1.02-2.569,2.599-2.569
		c0.52,0,0.979,0.13,1.219,0.25l-0.2,0.68c-0.209-0.12-0.54-0.23-1.019-0.23c-1.109,0-1.709,0.82-1.709,1.829
		c0,1.12,0.719,1.809,1.679,1.809c0.5,0,0.83-0.13,1.08-0.24L192.472,37.42z"/>
	<path d="M193.934,35.341c0.02,1.189,0.78,1.679,1.659,1.679c0.63,0,1.009-0.11,1.339-0.25l0.15,0.63c-0.31,0.14-0.84,0.3-1.609,0.3
		c-1.489,0-2.378-0.979-2.378-2.439c0-1.459,0.859-2.608,2.269-2.608c1.579,0,1.999,1.389,1.999,2.279c0,0.18-0.02,0.32-0.03,0.41
		H193.934z M196.512,34.712c0.01-0.56-0.23-1.43-1.219-1.43c-0.89,0-1.279,0.82-1.349,1.43H196.512z"/>
	<path d="M202.631,30.504v5.847c0,0.43,0.01,0.92,0.04,1.25h-0.79l-0.04-0.839h-0.02c-0.27,0.54-0.859,0.949-1.649,0.949
		c-1.169,0-2.069-0.989-2.069-2.458c-0.01-1.609,0.989-2.599,2.169-2.599c0.739,0,1.239,0.35,1.459,0.74h0.02v-2.889H202.631z
		 M201.752,34.731c0-0.11-0.01-0.26-0.04-0.37c-0.13-0.56-0.61-1.02-1.27-1.02c-0.909,0-1.449,0.8-1.449,1.869
		c0,0.979,0.479,1.789,1.429,1.789c0.589,0,1.129-0.39,1.289-1.049c0.03-0.12,0.04-0.24,0.04-0.38V34.731z"/>
</g>
<g>
	<path d="M169.511,76.247c0.342,0.036,0.738,0,1.278-0.054c0.918-0.126,1.783-0.504,2.449-1.134
		c0.774-0.702,1.333-1.729,1.548-3.115h-0.054c-0.648,0.792-1.584,1.26-2.755,1.26c-2.106,0-3.457-1.584-3.457-3.583
		c0-2.215,1.603-4.159,3.997-4.159s3.871,1.944,3.871,4.933c0,2.575-0.864,4.375-2.017,5.492c-0.9,0.882-2.143,1.422-3.403,1.566
		c-0.576,0.09-1.081,0.108-1.458,0.09V76.247z M170.087,69.513c0,1.458,0.882,2.484,2.25,2.484c1.063,0,1.891-0.522,2.305-1.224
		c0.09-0.144,0.144-0.324,0.144-0.576c0-1.999-0.738-3.529-2.395-3.529C171.041,66.668,170.087,67.856,170.087,69.513z"/>
	<path d="M177.682,74.393c0-1.477,0.882-2.521,2.323-3.133l-0.018-0.054c-1.296-0.612-1.854-1.621-1.854-2.629
		c0-1.854,1.566-3.115,3.619-3.115c2.269,0,3.403,1.422,3.403,2.881c0,0.99-0.486,2.052-1.926,2.737v0.054
		c1.458,0.576,2.359,1.603,2.359,3.025c0,2.035-1.747,3.403-3.979,3.403C179.159,77.562,177.682,76.103,177.682,74.393z
		 M183.984,74.32c0-1.422-0.99-2.106-2.575-2.557c-1.368,0.396-2.106,1.296-2.106,2.413c-0.054,1.188,0.846,2.233,2.341,2.233
		C183.066,76.409,183.984,75.527,183.984,74.32z M179.627,68.469c0,1.17,0.882,1.8,2.232,2.161c1.008-0.342,1.783-1.063,1.783-2.125
		c0-0.936-0.558-1.908-1.98-1.908C180.347,66.596,179.627,67.46,179.627,68.469z"/>
	<path d="M191.958,77.363v-3.187h-5.438v-1.044l5.222-7.472h1.71v7.274h1.639v1.242h-1.639v3.187H191.958z M191.958,72.934v-3.907
		c0-0.612,0.018-1.225,0.054-1.836h-0.054c-0.36,0.684-0.648,1.188-0.972,1.729l-2.863,3.979v0.036H191.958z"/>
	<path d="M203.28,66.992h-4.465l-0.45,3.007c0.27-0.036,0.522-0.072,0.954-0.072c0.9,0,1.801,0.198,2.521,0.63
		c0.918,0.522,1.674,1.531,1.674,3.007c0,2.287-1.818,3.998-4.357,3.998c-1.279,0-2.359-0.36-2.917-0.72l0.396-1.207
		c0.486,0.288,1.44,0.648,2.503,0.648c1.494,0,2.772-0.972,2.772-2.539c-0.018-1.512-1.026-2.593-3.367-2.593
		c-0.667,0-1.188,0.072-1.621,0.126l0.756-5.618h5.6V66.992z"/>
</g>
<path fill="#F79B16" d="M369.74,55.5c-0.19-29.38-23.81-53.14-53.24-53.14s-53.675,23.76-53.865,53.14
	c-0.01,0.06-0.385,0.12-0.385,0.18v0.18c0,0.35,0.5,0.7,0.52,1.04c0.54,29.07,24.53,52.46,53.73,52.46s52.565-23.39,53.105-52.46
	c0.02-0.34-0.355-0.69-0.355-1.04v-0.18C369.25,55.62,369.75,55.56,369.74,55.5z M316.75,17.96c20.81,0,37.71,16.78,37.9,37.54
	c0,0.33,0,0.66-0.01,0.98c-0.33,20.64-17.17,37.28-37.89,37.28s-37.56-16.64-37.89-37.28c-0.01-0.32-0.01-0.65-0.01-0.98
	C279.04,34.74,295.94,17.96,316.75,17.96z"/>
<g>
	<path d="M298.729,27.865v6.736h-0.869v-6.736H298.729z"/>
	<path d="M300.319,31.073c0-0.5-0.01-0.91-0.04-1.31h0.78l0.05,0.8h0.02c0.24-0.46,0.8-0.91,1.599-0.91
		c0.67,0,1.709,0.4,1.709,2.059v2.888h-0.879v-2.789c0-0.779-0.29-1.429-1.119-1.429c-0.58,0-1.03,0.41-1.18,0.899
		c-0.04,0.11-0.06,0.26-0.06,0.41v2.908h-0.879V31.073z"/>
	<path d="M306.889,28.375v1.389h1.259v0.67h-1.259v2.608c0,0.6,0.17,0.939,0.66,0.939c0.23,0,0.4-0.03,0.51-0.06l0.04,0.66
		c-0.17,0.07-0.44,0.12-0.78,0.12c-0.41,0-0.74-0.13-0.949-0.37c-0.25-0.26-0.34-0.689-0.34-1.259v-2.638h-0.75v-0.67h0.75v-1.159
		L306.889,28.375z"/>
	<path d="M309.569,32.342c0.02,1.189,0.78,1.679,1.659,1.679c0.63,0,1.009-0.11,1.339-0.25l0.15,0.63c-0.31,0.14-0.84,0.3-1.609,0.3
		c-1.489,0-2.378-0.979-2.378-2.439c0-1.459,0.859-2.608,2.269-2.608c1.579,0,1.999,1.389,1.999,2.279c0,0.18-0.02,0.32-0.03,0.41
		H309.569z M312.147,31.713c0.01-0.56-0.23-1.43-1.219-1.43c-0.89,0-1.279,0.82-1.349,1.43H312.147z"/>
	<path d="M314.089,31.273c0-0.57-0.01-1.06-0.04-1.509h0.77l0.03,0.95h0.04c0.22-0.65,0.75-1.06,1.339-1.06
		c0.1,0,0.169,0.01,0.25,0.03v0.83c-0.09-0.02-0.18-0.03-0.3-0.03c-0.62,0-1.06,0.47-1.179,1.129c-0.02,0.12-0.04,0.26-0.04,0.41
		v2.579h-0.87V31.273z"/>
	<path d="M317.949,29.764l0.95,2.719c0.16,0.439,0.29,0.839,0.39,1.239h0.03c0.11-0.4,0.25-0.8,0.41-1.239l0.939-2.719h0.919
		l-1.899,4.837h-0.84l-1.839-4.837H317.949z"/>
	<path d="M323.398,28.404c0.01,0.3-0.21,0.54-0.56,0.54c-0.31,0-0.53-0.24-0.53-0.54c0-0.31,0.23-0.549,0.55-0.549
		C323.188,27.855,323.398,28.095,323.398,28.404z M322.419,34.601v-4.837h0.879v4.837H322.419z"/>
	<path d="M325.249,32.342c0.02,1.189,0.78,1.679,1.659,1.679c0.63,0,1.009-0.11,1.339-0.25l0.15,0.63c-0.31,0.14-0.84,0.3-1.609,0.3
		c-1.489,0-2.378-0.979-2.378-2.439c0-1.459,0.859-2.608,2.269-2.608c1.579,0,1.999,1.389,1.999,2.279c0,0.18-0.02,0.32-0.03,0.41
		H325.249z M327.827,31.713c0.01-0.56-0.23-1.43-1.219-1.43c-0.89,0-1.279,0.82-1.349,1.43H327.827z"/>
	<path d="M330.119,29.764l0.64,2.458c0.14,0.54,0.27,1.04,0.36,1.54h0.03c0.11-0.49,0.27-1.01,0.43-1.529l0.79-2.469h0.74
		l0.75,2.419c0.18,0.58,0.32,1.089,0.43,1.579h0.03c0.08-0.49,0.209-1,0.37-1.569l0.689-2.429h0.87l-1.559,4.837h-0.8l-0.739-2.309
		c-0.17-0.54-0.31-1.02-0.43-1.589h-0.02c-0.12,0.58-0.27,1.08-0.44,1.599l-0.78,2.299h-0.799l-1.459-4.837H330.119z"/>
	<path d="M314.514,38.404c0.01,0.3-0.21,0.54-0.56,0.54c-0.31,0-0.53-0.24-0.53-0.54c0-0.31,0.23-0.549,0.55-0.549
		C314.304,37.855,314.514,38.095,314.514,38.404z M313.534,44.601v-4.837h0.879v4.837H313.534z"/>
	<path d="M315.874,41.073c0-0.5-0.01-0.91-0.04-1.31h0.78l0.05,0.8h0.02c0.24-0.46,0.8-0.91,1.599-0.91
		c0.67,0,1.709,0.4,1.709,2.059v2.888h-0.879v-2.789c0-0.779-0.29-1.429-1.119-1.429c-0.58,0-1.03,0.41-1.18,0.899
		c-0.04,0.11-0.06,0.26-0.06,0.41v2.908h-0.879V41.073z"/>
	<path d="M299.784,47.945c0.419-0.07,0.969-0.13,1.669-0.13c0.859,0,1.489,0.2,1.889,0.56c0.37,0.32,0.59,0.81,0.59,1.409
		c0,0.61-0.18,1.089-0.52,1.439c-0.46,0.49-1.209,0.739-2.059,0.739c-0.26,0-0.5-0.01-0.7-0.06v2.699h-0.869V47.945z
		 M300.653,51.193c0.19,0.05,0.43,0.07,0.72,0.07c1.049,0,1.689-0.509,1.689-1.439c0-0.89-0.629-1.319-1.589-1.319
		c-0.38,0-0.67,0.03-0.82,0.07V51.193z"/>
	<path d="M304.914,51.273c0-0.57-0.01-1.06-0.04-1.509h0.77l0.03,0.95h0.04c0.22-0.65,0.75-1.06,1.339-1.06
		c0.1,0,0.169,0.01,0.25,0.03v0.83c-0.09-0.02-0.18-0.03-0.3-0.03c-0.62,0-1.06,0.47-1.179,1.129c-0.02,0.12-0.04,0.26-0.04,0.41
		v2.579h-0.87V51.273z"/>
	<path d="M312.462,52.143c0,1.789-1.24,2.568-2.409,2.568c-1.31,0-2.319-0.959-2.319-2.489c0-1.619,1.06-2.568,2.398-2.568
		C311.522,49.654,312.462,50.663,312.462,52.143z M308.624,52.192c0,1.06,0.609,1.859,1.469,1.859c0.84,0,1.469-0.79,1.469-1.879
		c0-0.819-0.41-1.859-1.449-1.859C309.074,50.313,308.624,51.273,308.624,52.192z"/>
	<path d="M317.742,49.764c-0.02,0.35-0.04,0.74-0.04,1.329v2.809c0,1.109-0.22,1.789-0.69,2.209c-0.47,0.439-1.149,0.58-1.759,0.58
		c-0.58,0-1.219-0.14-1.609-0.4l0.22-0.669c0.32,0.2,0.819,0.38,1.419,0.38c0.9,0,1.559-0.47,1.559-1.689v-0.54h-0.02
		c-0.27,0.45-0.79,0.81-1.54,0.81c-1.199,0-2.059-1.02-2.059-2.359c0-1.639,1.069-2.568,2.179-2.568c0.839,0,1.299,0.44,1.509,0.839
		h0.02l0.04-0.729H317.742z M316.832,51.673c0-0.15-0.01-0.28-0.05-0.4c-0.16-0.51-0.59-0.93-1.229-0.93
		c-0.839,0-1.439,0.71-1.439,1.829c0,0.95,0.479,1.739,1.429,1.739c0.54,0,1.029-0.34,1.219-0.9c0.05-0.15,0.07-0.32,0.07-0.47
		V51.673z"/>
	<path d="M319.104,51.273c0-0.57-0.01-1.06-0.04-1.509h0.77l0.03,0.95h0.04c0.22-0.65,0.75-1.06,1.339-1.06
		c0.1,0,0.169,0.01,0.25,0.03v0.83c-0.09-0.02-0.18-0.03-0.3-0.03c-0.62,0-1.06,0.47-1.179,1.129c-0.02,0.12-0.04,0.26-0.04,0.41
		v2.579h-0.87V51.273z"/>
	<path d="M322.763,52.342c0.02,1.189,0.78,1.679,1.659,1.679c0.63,0,1.009-0.11,1.339-0.25l0.15,0.63c-0.31,0.14-0.84,0.3-1.609,0.3
		c-1.489,0-2.378-0.979-2.378-2.439c0-1.459,0.859-2.608,2.269-2.608c1.579,0,1.999,1.389,1.999,2.279c0,0.18-0.02,0.32-0.03,0.41
		H322.763z M325.342,51.713c0.01-0.56-0.23-1.43-1.219-1.43c-0.89,0-1.279,0.82-1.349,1.43H325.342z"/>
	<path d="M327.164,53.702c0.26,0.17,0.719,0.35,1.159,0.35c0.64,0,0.939-0.32,0.939-0.72c0-0.419-0.25-0.649-0.899-0.889
		c-0.87-0.31-1.279-0.79-1.279-1.369c0-0.78,0.629-1.419,1.669-1.419c0.49,0,0.919,0.14,1.189,0.3l-0.22,0.64
		c-0.19-0.12-0.54-0.28-0.99-0.28c-0.52,0-0.81,0.3-0.81,0.66c0,0.4,0.29,0.58,0.919,0.819c0.84,0.32,1.27,0.74,1.27,1.459
		c0,0.85-0.66,1.449-1.809,1.449c-0.53,0-1.02-0.13-1.359-0.33L327.164,53.702z"/>
	<path d="M331.124,53.702c0.26,0.17,0.719,0.35,1.159,0.35c0.64,0,0.939-0.32,0.939-0.72c0-0.419-0.25-0.649-0.899-0.889
		c-0.87-0.31-1.279-0.79-1.279-1.369c0-0.78,0.629-1.419,1.669-1.419c0.49,0,0.919,0.14,1.189,0.3l-0.22,0.64
		c-0.19-0.12-0.54-0.28-0.99-0.28c-0.52,0-0.81,0.3-0.81,0.66c0,0.4,0.29,0.58,0.919,0.819c0.84,0.32,1.27,0.74,1.27,1.459
		c0,0.85-0.66,1.449-1.809,1.449c-0.53,0-1.02-0.13-1.359-0.33L331.124,53.702z"/>
</g>
<g>
	<path d="M302.531,67.136h-0.036l-2.035,1.098l-0.306-1.206l2.557-1.369h1.351v11.704h-1.531V67.136z"/>
	<path d="M315.006,66.776c-0.324-0.018-0.738,0-1.188,0.072c-2.485,0.414-3.799,2.232-4.069,4.159h0.054
		c0.558-0.738,1.53-1.351,2.827-1.351c2.07,0,3.529,1.495,3.529,3.781c0,2.143-1.458,4.124-3.889,4.124
		c-2.503,0-4.141-1.945-4.141-4.988c0-2.305,0.828-4.123,1.98-5.275c0.972-0.954,2.269-1.548,3.745-1.729
		c0.468-0.072,0.864-0.09,1.152-0.09V66.776z M314.556,73.528c0-1.675-0.954-2.683-2.413-2.683c-0.954,0-1.836,0.594-2.269,1.44
		c-0.108,0.18-0.18,0.414-0.18,0.702c0.036,1.927,0.918,3.349,2.575,3.349C313.638,76.337,314.556,75.203,314.556,73.528z"/>
	<path d="M325.159,65.66v1.044l-5.096,10.659h-1.639l5.078-10.353v-0.036h-5.726V65.66H325.159z"/>
	<path d="M333.78,66.992h-4.465l-0.45,3.007c0.27-0.036,0.522-0.072,0.954-0.072c0.9,0,1.801,0.198,2.521,0.63
		c0.918,0.522,1.674,1.531,1.674,3.007c0,2.287-1.818,3.998-4.357,3.998c-1.279,0-2.359-0.36-2.917-0.72l0.396-1.207
		c0.486,0.288,1.44,0.648,2.503,0.648c1.494,0,2.772-0.972,2.772-2.539c-0.018-1.512-1.026-2.593-3.367-2.593
		c-0.667,0-1.188,0.072-1.621,0.126l0.756-5.618h5.6V66.992z"/>
</g>
<path fill="#C42BCC" d="M499.99,55.5c-0.19-29.38-23.685-53.14-53.115-53.14s-53.862,23.76-54.053,53.14
	c-0.01,0.06-0.572,0.12-0.572,0.18v0.18c0,0.35,0.75,0.7,0.77,1.04c0.54,29.07,24.655,52.46,53.855,52.46s52.377-23.39,52.917-52.46
	c0.02-0.34-0.542-0.69-0.542-1.04v-0.18C499.25,55.62,500,55.56,499.99,55.5z M447.25,17.96c20.81,0,37.71,16.78,37.9,37.54
	c0,0.33,0,0.66-0.01,0.98c-0.33,20.64-17.17,37.28-37.89,37.28s-37.56-16.64-37.89-37.28c-0.01-0.32-0.01-0.65-0.01-0.98
	C409.54,34.74,426.44,17.96,447.25,17.96z"/>
<g>
	<path d="M437.977,34.162c0,2.318-1.409,3.548-3.128,3.548c-1.779,0-3.028-1.379-3.028-3.418c0-2.139,1.329-3.538,3.128-3.538
		C436.787,30.754,437.977,32.163,437.977,34.162z M432.749,34.272c0,1.439,0.78,2.729,2.149,2.729c1.379,0,2.159-1.27,2.159-2.798
		c0-1.339-0.699-2.739-2.148-2.739C433.469,31.463,432.749,32.793,432.749,34.272z"/>
	<path d="M442.228,37.6v-4.167h-2.029V37.6h-0.87v-4.167h-0.679v-0.67h0.679v-0.16c0-0.68,0.16-1.27,0.54-1.649
		c0.28-0.28,0.68-0.45,1.219-0.45c0.28,0,0.54,0.09,0.689,0.17l-0.18,0.65c-0.13-0.06-0.32-0.12-0.52-0.12
		c-0.689,0-0.879,0.59-0.879,1.349v0.21h2.029v-0.23c0-0.68,0.16-1.299,0.57-1.689c0.33-0.32,0.77-0.45,1.169-0.45
		c0.32,0,0.58,0.07,0.75,0.14l-0.11,0.679c-0.14-0.06-0.31-0.11-0.57-0.11c-0.739,0-0.939,0.66-0.939,1.399v0.26h1.169v0.67h-1.159
		V37.6H442.228z"/>
	<path d="M445.43,35.341c0.02,1.189,0.78,1.679,1.659,1.679c0.63,0,1.009-0.11,1.339-0.25l0.15,0.63c-0.31,0.14-0.84,0.3-1.609,0.3
		c-1.489,0-2.378-0.979-2.378-2.439c0-1.459,0.859-2.608,2.269-2.608c1.579,0,1.999,1.389,1.999,2.279c0,0.18-0.02,0.32-0.03,0.41
		H445.43z M448.008,34.712c0.01-0.56-0.23-1.43-1.219-1.43c-0.89,0-1.279,0.82-1.349,1.43H448.008z"/>
	<path d="M449.95,34.272c0-0.57-0.01-1.06-0.04-1.509h0.77l0.03,0.95h0.04c0.22-0.65,0.75-1.06,1.339-1.06
		c0.1,0,0.17,0.01,0.25,0.03v0.83c-0.09-0.02-0.18-0.03-0.3-0.03c-0.62,0-1.059,0.47-1.179,1.129c-0.02,0.12-0.04,0.26-0.04,0.41
		V37.6h-0.87V34.272z"/>
	<path d="M453.609,35.341c0.02,1.189,0.78,1.679,1.659,1.679c0.63,0,1.009-0.11,1.339-0.25l0.15,0.63c-0.31,0.14-0.84,0.3-1.609,0.3
		c-1.489,0-2.378-0.979-2.378-2.439c0-1.459,0.859-2.608,2.269-2.608c1.579,0,1.999,1.389,1.999,2.279c0,0.18-0.02,0.32-0.03,0.41
		H453.609z M456.188,34.712c0.01-0.56-0.23-1.43-1.219-1.43c-0.89,0-1.279,0.82-1.349,1.43H456.188z"/>
	<path d="M462.307,30.504v5.847c0,0.43,0.01,0.92,0.04,1.25h-0.79l-0.04-0.839h-0.02c-0.27,0.54-0.859,0.949-1.649,0.949
		c-1.169,0-2.069-0.989-2.069-2.458c-0.01-1.609,0.989-2.599,2.169-2.599c0.739,0,1.239,0.35,1.459,0.74h0.02v-2.889H462.307z
		 M461.428,34.731c0-0.11-0.01-0.26-0.04-0.37c-0.13-0.56-0.61-1.02-1.27-1.02c-0.909,0-1.449,0.8-1.449,1.869
		c0,0.979,0.479,1.789,1.429,1.789c0.589,0,1.129-0.39,1.289-1.049c0.03-0.12,0.04-0.24,0.04-0.38V34.731z"/>
</g>
<g>
	<path d="M437.648,67.136h-0.036l-2.035,1.098l-0.306-1.206l2.557-1.369h1.351v11.704h-1.53V67.136z"/>
	<path d="M443.443,77.363v-0.972l1.243-1.207c2.989-2.845,4.339-4.357,4.357-6.122c0-1.188-0.576-2.287-2.323-2.287
		c-1.063,0-1.945,0.541-2.485,0.991l-0.504-1.117c0.811-0.684,1.963-1.188,3.313-1.188c2.521,0,3.583,1.729,3.583,3.403
		c0,2.161-1.566,3.907-4.033,6.284l-0.936,0.864v0.036h5.257v1.314H443.443z"/>
	<path d="M460.275,65.66v1.044l-5.096,10.659h-1.639l5.078-10.353v-0.036h-5.726V65.66H460.275z"/>
</g>
<path fill="#8E8B88" d="M524.76,19.42c0,0,43.734,10.985,91.843,0C616.603,19.42,577.241,8.851,524.76,19.42z"/>
<g>
</g>
<g>
</g>
<g>
</g>
<g>
</g>
<g>
</g>
<g>
</g>
<g>
</g>
<g>
</g>
<g>
</g>
<g>
</g>
<g>
</g>
<g>
</g>
<g>
</g>
<g>
</g>
<g>
</g>
</svg>
