<?xml version="1.0" encoding="utf-8"?>
<!-- Generator: Adobe Illustrator 16.0.0, SVG Export Plug-In . SVG Version: 6.00 Build 0)  -->
<!DOCTYPE svg PUBLIC "-//W3C//DTD SVG 1.1//EN" "http://www.w3.org/Graphics/SVG/1.1/DTD/svg11.dtd">
<svg version="1.1" id="Layer_1" xmlns="http://www.w3.org/2000/svg" xmlns:xlink="http://www.w3.org/1999/xlink" x="0px" y="0px"
	 width="377.372px" height="111.5px" viewBox="64.75 0 377.372 111.5" enable-background="new 64.75 0 377.372 111.5"
	 xml:space="preserve">
<polygon fill="#2176CC" points="1239.25,-24.5 1239.25,42.5 1233.25,48.5 1134.25,48.5 1134.25,-24.5 "/>
<rect x="1134.25" y="-24.5" fill="#2168A3" width="105" height="13"/>
<polygon fill="#2168A3" points="1239.25,35.5 1239.25,42.5 1233.25,48.5 1134.25,48.5 1134.25,35.5 "/>
<g>
	<rect x="1179.666" y="-20.75" fill="none" width="16.166" height="7.25"/>
	<path fill="#FFFFFF" d="M1183.575-18.553c0,1.391-0.846,2.129-1.877,2.129c-1.066,0-1.815-0.828-1.815-2.051
		c0-1.283,0.797-2.123,1.877-2.123C1182.863-20.598,1183.575-19.752,1183.575-18.553z M1180.439-18.487
		c0,0.864,0.469,1.637,1.29,1.637c0.827,0,1.296-0.762,1.296-1.679c0-0.803-0.42-1.643-1.29-1.643
		C1180.871-20.172,1180.439-19.375,1180.439-18.487z"/>
	<path fill="#FFFFFF" d="M1184.238-18.445c0-0.372-0.012-0.671-0.023-0.947h0.474l0.024,0.498h0.012
		c0.216-0.354,0.558-0.563,1.032-0.563c0.701,0,1.229,0.594,1.229,1.475c0,1.043-0.635,1.559-1.318,1.559
		c-0.385,0-0.721-0.168-0.895-0.456h-0.012v1.577h-0.521L1184.238-18.445L1184.238-18.445z M1184.76-17.671
		c0,0.078,0.012,0.15,0.022,0.216c0.098,0.366,0.414,0.618,0.792,0.618c0.559,0,0.882-0.456,0.882-1.122
		c0-0.582-0.307-1.08-0.862-1.08c-0.36,0-0.696,0.258-0.799,0.654c-0.019,0.066-0.035,0.144-0.035,0.216V-17.671L1184.76-17.671z"/>
	<path fill="#FFFFFF" d="M1187.945-17.846c0.013,0.714,0.469,1.008,0.996,1.008c0.378,0,0.604-0.066,0.804-0.15l0.09,0.377
		c-0.187,0.084-0.504,0.18-0.966,0.18c-0.893,0-1.427-0.588-1.427-1.463s0.516-1.565,1.361-1.565c0.946,0,1.198,0.833,1.198,1.367
		c0,0.108-0.013,0.192-0.019,0.246H1187.945z M1189.492-18.223c0.006-0.336-0.138-0.858-0.73-0.858
		c-0.533,0-0.768,0.492-0.811,0.858H1189.492z"/>
	<path fill="#FFFFFF" d="M1190.657-18.607c0-0.3-0.006-0.546-0.023-0.786h0.468l0.03,0.479h0.012
		c0.144-0.276,0.479-0.545,0.96-0.545c0.4,0,1.025,0.24,1.025,1.235v1.733h-0.527v-1.673c0-0.468-0.174-0.858-0.672-0.858
		c-0.349,0-0.618,0.246-0.708,0.54c-0.024,0.066-0.036,0.156-0.036,0.246v1.745h-0.527L1190.657-18.607L1190.657-18.607z"/>
</g>
<g>
	<rect x="1171.625" y="-5" fill="none" width="30.25" height="13.5"/>
	<path fill="#FFFFFF" d="M1172.327,5.355c0-1.558,0.932-2.659,2.45-3.305l-0.019-0.057c-1.368-0.646-1.957-1.709-1.957-2.773
		c0-1.957,1.651-3.287,3.817-3.287c2.396,0,3.591,1.501,3.591,3.04c0,1.045-0.513,2.166-2.031,2.888v0.057
		c1.538,0.608,2.487,1.691,2.487,3.192c0,2.146-1.844,3.59-4.198,3.59C1173.886,8.699,1172.327,7.16,1172.327,5.355z
		 M1178.977,5.279c0-1.501-1.045-2.223-2.717-2.698c-1.443,0.418-2.224,1.368-2.224,2.546c-0.057,1.253,0.895,2.355,2.472,2.355
		C1178.008,7.483,1178.977,6.552,1178.977,5.279z M1174.379-0.895c0,1.235,0.932,1.9,2.355,2.28
		c1.063-0.361,1.881-1.121,1.881-2.242c0-0.988-0.589-2.014-2.09-2.014C1175.14-2.871,1174.379-1.958,1174.379-0.895z"/>
	<path fill="#FFFFFF" d="M1189.598-2.453h-4.711l-0.477,3.172c0.285-0.038,0.552-0.076,1.008-0.076c0.948,0,1.899,0.209,2.659,0.665
		c0.97,0.551,1.767,1.615,1.767,3.173c0,2.413-1.918,4.217-4.598,4.217c-1.349,0-2.488-0.38-3.076-0.76l0.418-1.273
		c0.512,0.304,1.52,0.684,2.641,0.684c1.576,0,2.926-1.026,2.926-2.679c-0.02-1.596-1.084-2.736-3.553-2.736
		c-0.703,0-1.254,0.076-1.71,0.133l0.798-5.927h5.908V-2.453L1189.598-2.453z"/>
	<path fill="#FFFFFF" d="M1197.141,8.49V5.127h-5.737V4.025l5.509-7.884h1.806v7.675h1.729v1.311h-1.729V8.49H1197.141z
		 M1197.141,3.816v-4.123c0-0.646,0.019-1.292,0.057-1.938h-0.057c-0.381,0.722-0.684,1.254-1.026,1.824l-3.021,4.198v0.038
		L1197.141,3.816L1197.141,3.816z"/>
</g>
<g>
	<polygon fill="#C42BCC" points="455.25,-139.5 455.25,-72.5 449.25,-66.5 350.25,-66.5 350.25,-139.5 	"/>
	<rect x="350.75" y="-139.5" fill="#D649E2" width="105" height="13"/>
	<polygon fill="#9F1AAA" points="455.25,-79.5 455.25,-72.5 449.25,-66.5 350.25,-66.5 350.25,-79.5 	"/>
</g>
<g>
	<polygon fill="#61B222" points="343.25,-139.5 343.25,-72.5 337.25,-66.5 238.25,-66.5 238.25,-139.5 	"/>
	<rect x="238.75" y="-139.5" fill="#54BF22" width="105" height="13"/>
	<polygon fill="#338C19" points="343.25,-79.5 343.25,-72.5 337.25,-66.5 238.25,-66.5 238.25,-79.5 	"/>
</g>
<g>
	<polygon fill="#E5173A" points="230.25,-139.5 230.25,-72.5 224.25,-66.5 125.25,-66.5 125.25,-139.5 	"/>
	<rect x="125.25" y="-139.5" fill="#F2254D" width="105" height="13"/>
	<polygon fill="#C61033" points="230.25,-79.5 230.25,-72.5 224.25,-66.5 125.25,-66.5 125.25,-79.5 	"/>
</g>
<polygon fill="#2176CC" points="117.25,-139.5 117.25,-72.5 111.25,-66.5 12.25,-66.5 12.25,-139.5 "/>
<rect x="12.25" y="-139.5" fill="#2285BC" width="105" height="13"/>
<polygon fill="#2168A3" points="117.25,-79.5 117.25,-72.5 111.25,-66.5 12.25,-66.5 12.25,-79.5 "/>
<g>
	<rect x="57.667" y="-135.75" fill="none" width="16.167" height="7.25"/>
	<path fill="#FFFFFF" d="M61.577-133.553c0,1.391-0.846,2.129-1.877,2.129c-1.067,0-1.817-0.828-1.817-2.051
		c0-1.283,0.798-2.123,1.877-2.123C60.863-135.598,61.577-134.752,61.577-133.553z M58.44-133.487c0,0.864,0.469,1.637,1.29,1.637
		c0.828,0,1.295-0.762,1.295-1.679c0-0.803-0.42-1.643-1.29-1.643C58.873-135.172,58.44-134.375,58.44-133.487z"/>
	<path fill="#FFFFFF" d="M62.239-133.445c0-0.372-0.012-0.671-0.023-0.947h0.474l0.024,0.498h0.012
		c0.216-0.354,0.559-0.563,1.032-0.563c0.702,0,1.229,0.594,1.229,1.475c0,1.043-0.635,1.559-1.318,1.559
		c-0.384,0-0.72-0.168-0.894-0.456H62.76v1.577h-0.521V-133.445z M62.76-132.671c0,0.078,0.012,0.15,0.024,0.216
		c0.096,0.366,0.413,0.618,0.792,0.618c0.558,0,0.882-0.456,0.882-1.122c0-0.582-0.307-1.08-0.864-1.08
		c-0.36,0-0.696,0.258-0.797,0.654c-0.019,0.066-0.036,0.145-0.036,0.216L62.76-132.671L62.76-132.671z"/>
	<path fill="#FFFFFF" d="M65.946-132.846c0.013,0.714,0.469,1.008,0.996,1.008c0.378,0,0.605-0.066,0.805-0.15l0.09,0.377
		c-0.187,0.084-0.504,0.18-0.965,0.18c-0.895,0-1.428-0.588-1.428-1.463s0.517-1.565,1.361-1.565c0.947,0,1.199,0.833,1.199,1.367
		c0,0.108-0.012,0.192-0.019,0.246H65.946z M67.494-133.223c0.006-0.336-0.139-0.858-0.731-0.858c-0.534,0-0.768,0.492-0.81,0.858
		H67.494z"/>
	<path fill="#FFFFFF" d="M68.659-133.607c0-0.3-0.007-0.546-0.024-0.786h0.468l0.03,0.479h0.012c0.145-0.276,0.48-0.545,0.959-0.545
		c0.402,0,1.025,0.24,1.025,1.235v1.733h-0.527v-1.673c0-0.468-0.174-0.858-0.672-0.858c-0.348,0-0.618,0.246-0.708,0.54
		c-0.024,0.066-0.036,0.156-0.036,0.246v1.745h-0.526V-133.607z"/>
</g>
<g>
	<rect x="49.625" y="-120" fill="none" width="30.25" height="13.5"/>
	<path fill="#FFFFFF" d="M50.328-109.645c0-1.558,0.931-2.659,2.449-3.305l-0.019-0.057c-1.368-0.646-1.957-1.709-1.957-2.773
		c0-1.957,1.653-3.287,3.818-3.287c2.394,0,3.591,1.501,3.591,3.04c0,1.045-0.514,2.166-2.033,2.888v0.057
		c1.539,0.608,2.488,1.691,2.488,3.192c0,2.146-1.844,3.59-4.198,3.59C51.886-106.301,50.328-107.84,50.328-109.645z
		 M56.977-109.721c0-1.501-1.045-2.223-2.717-2.698c-1.444,0.418-2.223,1.368-2.223,2.546c-0.058,1.253,0.893,2.355,2.47,2.355
		C56.008-107.517,56.977-108.448,56.977-109.721z M52.379-115.895c0,1.235,0.931,1.9,2.355,2.28
		c1.064-0.361,1.882-1.121,1.882-2.242c0-0.988-0.59-2.014-2.091-2.014C53.14-117.871,52.379-116.958,52.379-115.895z"/>
	<path fill="#FFFFFF" d="M67.597-117.453h-4.711l-0.475,3.172c0.284-0.038,0.551-0.076,1.007-0.076c0.95,0,1.899,0.209,2.66,0.665
		c0.969,0.551,1.767,1.615,1.767,3.173c0,2.413-1.918,4.217-4.597,4.217c-1.35,0-2.489-0.38-3.078-0.76l0.418-1.273
		c0.513,0.304,1.52,0.684,2.641,0.684c1.577,0,2.926-1.026,2.926-2.679c-0.019-1.596-1.083-2.736-3.553-2.736
		c-0.703,0-1.254,0.076-1.709,0.133l0.798-5.927h5.908v1.407H67.597z"/>
	<path fill="#FFFFFF" d="M75.14-106.51v-3.362h-5.737v-1.102l5.51-7.884h1.805v7.675h1.729v1.311h-1.729v3.362H75.14z
		 M75.14-111.184v-4.123c0-0.646,0.02-1.292,0.057-1.938H75.14c-0.38,0.722-0.684,1.254-1.026,1.824l-3.021,4.198v0.038
		L75.14-111.184L75.14-111.184z"/>
</g>
<g>
	<g>
		<polygon fill="#2176CC" points="198.322,263.434 198.322,348.395 190.715,356.002 65.177,356.002 65.177,263.434 		"/>
		<rect x="65.177" y="263.434" fill="#2581CC" width="133.145" height="16.484"/>
		<polygon fill="#2168A3" points="198.322,339.518 198.322,348.395 190.715,356.002 65.177,356.002 65.177,339.518 		"/>
	</g>
	<g>
		<rect x="118.625" y="270.184" fill="none" width="28.25" height="7.25"/>
		<path fill="#FFFFFF" d="M119.848,270.846h-1.229V270.4h2.991v0.445h-1.234v3.598h-0.528V270.846z"/>
		<path fill="#FFFFFF" d="M124.246,272.968c0,1.073-0.744,1.541-1.445,1.541c-0.786,0-1.391-0.575-1.391-1.493
			c0-0.971,0.636-1.541,1.438-1.541C123.682,271.475,124.246,272.081,124.246,272.968z M121.943,272.998
			c0,0.636,0.366,1.115,0.882,1.115c0.504,0,0.881-0.473,0.881-1.127c0-0.491-0.246-1.115-0.869-1.115
			C122.212,271.871,121.943,272.445,121.943,272.998z"/>
		<path fill="#FFFFFF" d="M125.548,270.708v0.833h0.756v0.402h-0.756v1.564c0,0.36,0.102,0.564,0.396,0.564
			c0.139,0,0.24-0.018,0.307-0.036l0.023,0.396c-0.102,0.043-0.264,0.072-0.468,0.072c-0.246,0-0.443-0.078-0.569-0.222
			c-0.149-0.156-0.203-0.414-0.203-0.755v-1.584h-0.45v-0.401h0.45v-0.696L125.548,270.708z"/>
		<path fill="#FFFFFF" d="M128.506,274.443l-0.042-0.366h-0.019c-0.161,0.228-0.474,0.432-0.888,0.432
			c-0.587,0-0.887-0.413-0.887-0.833c0-0.701,0.624-1.085,1.745-1.08v-0.06c0-0.24-0.066-0.673-0.66-0.673
			c-0.271,0-0.552,0.085-0.756,0.217l-0.12-0.348c0.24-0.156,0.587-0.258,0.953-0.258c0.888,0,1.104,0.604,1.104,1.187v1.085
			c0,0.252,0.012,0.498,0.048,0.695h-0.479V274.443z M128.428,272.962c-0.576-0.012-1.229,0.091-1.229,0.653
			c0,0.342,0.228,0.504,0.497,0.504c0.379,0,0.618-0.24,0.702-0.486c0.019-0.054,0.03-0.113,0.03-0.168L128.428,272.962
			L128.428,272.962z"/>
		<path fill="#FFFFFF" d="M129.791,270.186h0.526v4.258h-0.526V270.186z"/>
		<path fill="#FFFFFF" d="M135.951,272.38c0,1.392-0.846,2.129-1.877,2.129c-1.067,0-1.817-0.827-1.817-2.051
			c0-1.283,0.798-2.123,1.877-2.123C135.237,270.335,135.951,271.182,135.951,272.38z M132.814,272.445
			c0,0.865,0.469,1.638,1.29,1.638c0.828,0,1.295-0.763,1.295-1.679c0-0.803-0.42-1.643-1.29-1.643
			C133.247,270.762,132.814,271.559,132.814,272.445z"/>
		<path fill="#FFFFFF" d="M136.613,272.488c0-0.372-0.012-0.672-0.023-0.947h0.474l0.024,0.498h0.012
			c0.216-0.354,0.559-0.563,1.032-0.563c0.702,0,1.229,0.594,1.229,1.475c0,1.043-0.635,1.559-1.318,1.559
			c-0.384,0-0.72-0.168-0.894-0.455h-0.012v1.576h-0.521v-3.143H136.613z M137.134,273.262c0,0.078,0.012,0.15,0.024,0.217
			c0.096,0.365,0.413,0.617,0.792,0.617c0.558,0,0.882-0.455,0.882-1.121c0-0.582-0.307-1.08-0.864-1.08
			c-0.36,0-0.696,0.258-0.797,0.653c-0.019,0.065-0.036,0.144-0.036,0.216L137.134,273.262L137.134,273.262z"/>
		<path fill="#FFFFFF" d="M140.32,273.088c0.013,0.715,0.469,1.008,0.996,1.008c0.378,0,0.605-0.066,0.805-0.15l0.09,0.378
			c-0.187,0.084-0.504,0.18-0.965,0.18c-0.895,0-1.428-0.588-1.428-1.463s0.517-1.565,1.361-1.565c0.947,0,1.199,0.834,1.199,1.367
			c0,0.108-0.012,0.192-0.019,0.246H140.32z M141.868,272.71c0.006-0.336-0.139-0.858-0.731-0.858c-0.534,0-0.768,0.492-0.81,0.858
			H141.868z"/>
		<path fill="#FFFFFF" d="M143.033,272.327c0-0.3-0.007-0.546-0.024-0.786h0.468l0.03,0.479h0.012
			c0.145-0.275,0.48-0.545,0.959-0.545c0.402,0,1.025,0.24,1.025,1.235v1.733h-0.527v-1.674c0-0.468-0.174-0.857-0.672-0.857
			c-0.348,0-0.618,0.246-0.708,0.54c-0.024,0.065-0.036,0.155-0.036,0.245v1.746h-0.526V272.327L143.033,272.327z"/>
	</g>
	<g>
		<rect x="116.625" y="291.718" fill="none" width="30.25" height="13.5"/>
		<path fill="#FFFFFF" d="M117.328,302.072c0-1.557,0.931-2.658,2.449-3.305l-0.019-0.057c-1.368-0.646-1.957-1.709-1.957-2.773
			c0-1.957,1.653-3.287,3.818-3.287c2.394,0,3.591,1.502,3.591,3.041c0,1.045-0.514,2.166-2.033,2.888v0.058
			c1.539,0.607,2.488,1.69,2.488,3.191c0,2.146-1.844,3.59-4.198,3.59C118.886,305.417,117.328,303.878,117.328,302.072z
			 M123.977,301.997c0-1.501-1.045-2.224-2.717-2.698c-1.444,0.418-2.223,1.368-2.223,2.547c-0.058,1.252,0.893,2.354,2.47,2.354
			C123.008,304.201,123.977,303.27,123.977,301.997z M119.379,295.822c0,1.236,0.931,1.9,2.355,2.281
			c1.064-0.361,1.882-1.121,1.882-2.242c0-0.988-0.59-2.014-2.091-2.014C120.14,293.848,119.379,294.759,119.379,295.822z"/>
		<path fill="#FFFFFF" d="M134.597,294.266h-4.711l-0.475,3.172c0.284-0.039,0.551-0.076,1.007-0.076c0.95,0,1.899,0.209,2.66,0.664
			c0.969,0.552,1.767,1.615,1.767,3.174c0,2.412-1.918,4.217-4.597,4.217c-1.35,0-2.489-0.38-3.078-0.76l0.418-1.273
			c0.513,0.305,1.52,0.684,2.641,0.684c1.577,0,2.926-1.025,2.926-2.678c-0.019-1.597-1.083-2.736-3.553-2.736
			c-0.703,0-1.254,0.076-1.709,0.133l0.798-5.928h5.908v1.408H134.597z"/>
		<path fill="#FFFFFF" d="M142.14,305.208v-3.362h-5.737v-1.102l5.51-7.885h1.805v7.676h1.729v1.311h-1.729v3.362H142.14z
			 M142.14,300.534v-4.123c0-0.646,0.02-1.292,0.057-1.938h-0.057c-0.38,0.723-0.684,1.254-1.026,1.824l-3.021,4.198v0.038
			L142.14,300.534L142.14,300.534z"/>
	</g>
</g>
<g>
	<polygon fill="#C42BCC" points="99.322,143.716 99.322,228.676 91.715,236.284 -33.823,236.284 -33.823,143.716 	"/>
	<rect x="-33.823" y="143.716" fill="#D649E2" width="133.145" height="16.484"/>
	<polygon fill="#9F1AAA" points="99.322,219.8 99.322,228.676 91.715,236.284 -33.823,236.284 -33.823,219.8 	"/>
	<g>
		<rect x="10.5" y="150" fill="none" width="46.5" height="7.25"/>
		<path fill="#FFFFFF" d="M11.478,150.219v4.041h-0.521v-4.041H11.478z"/>
		<path fill="#FFFFFF" d="M12.432,152.143c0-0.299-0.006-0.545-0.023-0.785h0.468l0.029,0.479h0.013
			c0.144-0.275,0.479-0.545,0.959-0.545c0.401,0,1.024,0.24,1.024,1.234v1.734h-0.526v-1.674c0-0.468-0.174-0.857-0.672-0.857
			c-0.349,0-0.618,0.246-0.708,0.539c-0.024,0.066-0.036,0.156-0.036,0.246v1.745h-0.527V152.143z"/>
		<path fill="#FFFFFF" d="M16.374,150.523v0.834h0.756v0.401h-0.756v1.565c0,0.359,0.102,0.564,0.396,0.564
			c0.139,0,0.24-0.019,0.307-0.037l0.023,0.396c-0.102,0.042-0.264,0.072-0.468,0.072c-0.246,0-0.443-0.078-0.569-0.223
			c-0.149-0.156-0.204-0.414-0.204-0.755v-1.583h-0.449v-0.402h0.449v-0.695L16.374,150.523z"/>
		<path fill="#FFFFFF" d="M17.981,152.904c0.013,0.714,0.469,1.008,0.996,1.008c0.378,0,0.605-0.066,0.804-0.15l0.091,0.377
			c-0.187,0.084-0.504,0.18-0.966,0.18c-0.894,0-1.427-0.588-1.427-1.463s0.517-1.564,1.361-1.564c0.947,0,1.199,0.833,1.199,1.367
			c0,0.107-0.013,0.191-0.019,0.246H17.981z M19.529,152.527c0.007-0.336-0.138-0.858-0.73-0.858c-0.534,0-0.769,0.492-0.811,0.858
			H19.529z"/>
		<path fill="#FFFFFF" d="M20.694,152.264c0-0.343-0.006-0.636-0.023-0.906h0.462l0.018,0.57h0.024
			c0.132-0.39,0.45-0.636,0.804-0.636c0.061,0,0.103,0.006,0.15,0.019v0.498c-0.054-0.013-0.108-0.019-0.181-0.019
			c-0.371,0-0.635,0.282-0.707,0.679c-0.013,0.071-0.024,0.155-0.024,0.245v1.548h-0.521L20.694,152.264L20.694,152.264z"/>
		<path fill="#FFFFFF" d="M23.009,151.357l0.57,1.631c0.096,0.264,0.174,0.504,0.233,0.744h0.019
			c0.065-0.24,0.149-0.479,0.246-0.744l0.563-1.631h0.551l-1.139,2.901h-0.504l-1.104-2.901H23.009z"/>
		<path fill="#FFFFFF" d="M26.279,150.542c0.007,0.181-0.126,0.324-0.336,0.324c-0.186,0-0.317-0.144-0.317-0.324
			c0-0.187,0.138-0.33,0.33-0.33C26.153,150.212,26.279,150.355,26.279,150.542z M25.691,154.26v-2.902h0.527v2.902H25.691z"/>
		<path fill="#FFFFFF" d="M27.389,152.904c0.012,0.714,0.468,1.008,0.996,1.008c0.378,0,0.605-0.066,0.804-0.15l0.09,0.377
			c-0.186,0.084-0.504,0.18-0.965,0.18c-0.894,0-1.427-0.588-1.427-1.463s0.516-1.564,1.361-1.564c0.946,0,1.198,0.833,1.198,1.367
			c0,0.107-0.012,0.191-0.018,0.246H27.389z M28.936,152.527c0.006-0.336-0.138-0.858-0.73-0.858c-0.534,0-0.769,0.492-0.811,0.858
			H28.936z"/>
		<path fill="#FFFFFF" d="M30.311,151.357l0.384,1.475c0.084,0.324,0.162,0.624,0.217,0.923h0.018
			c0.066-0.293,0.162-0.604,0.258-0.917l0.475-1.48h0.442l0.45,1.451c0.108,0.348,0.192,0.653,0.258,0.946h0.019
			c0.048-0.293,0.126-0.601,0.222-0.94l0.414-1.457h0.521l-0.936,2.901h-0.48l-0.442-1.385c-0.103-0.324-0.187-0.612-0.258-0.954
			h-0.013c-0.071,0.348-0.162,0.648-0.264,0.959l-0.468,1.379h-0.48l-0.875-2.902h0.539V151.357z"/>
		<path fill="#FFFFFF" d="M35.807,150.266c0.252-0.041,0.582-0.078,1.001-0.078c0.517,0,0.895,0.121,1.133,0.336
			c0.223,0.192,0.354,0.486,0.354,0.846c0,0.365-0.108,0.654-0.313,0.863c-0.274,0.295-0.726,0.445-1.234,0.445
			c-0.156,0-0.301-0.007-0.42-0.037v1.619h-0.522L35.807,150.266L35.807,150.266z M36.329,152.215
			c0.113,0.03,0.258,0.042,0.432,0.042c0.63,0,1.014-0.306,1.014-0.862c0-0.535-0.378-0.793-0.954-0.793
			c-0.228,0-0.401,0.019-0.491,0.043V152.215z"/>
		<path fill="#FFFFFF" d="M38.885,152.264c0-0.343-0.006-0.636-0.024-0.906h0.462l0.019,0.57h0.024
			c0.132-0.39,0.449-0.636,0.804-0.636c0.06,0,0.102,0.006,0.149,0.019v0.498c-0.054-0.013-0.107-0.019-0.18-0.019
			c-0.372,0-0.635,0.282-0.708,0.679c-0.012,0.071-0.023,0.155-0.023,0.245v1.548h-0.521L38.885,152.264L38.885,152.264z"/>
		<path fill="#FFFFFF" d="M43.414,152.785c0,1.072-0.744,1.541-1.445,1.541c-0.786,0-1.391-0.576-1.391-1.493
			c0-0.972,0.636-1.541,1.438-1.541C42.85,151.292,43.414,151.896,43.414,152.785z M41.111,152.814c0,0.636,0.366,1.115,0.882,1.115
			c0.504,0,0.881-0.474,0.881-1.127c0-0.492-0.246-1.115-0.869-1.115C41.38,151.688,41.111,152.264,41.111,152.814z"/>
		<path fill="#FFFFFF" d="M46.582,151.357c-0.013,0.209-0.024,0.443-0.024,0.797v1.685c0,0.666-0.132,1.074-0.414,1.325
			c-0.282,0.264-0.688,0.348-1.055,0.348c-0.348,0-0.732-0.084-0.965-0.24l0.132-0.401c0.191,0.12,0.492,0.228,0.852,0.228
			c0.54,0,0.937-0.281,0.937-1.013v-0.323H46.03c-0.161,0.27-0.474,0.484-0.923,0.484c-0.72,0-1.234-0.611-1.234-1.415
			c0-0.983,0.642-1.541,1.307-1.541c0.504,0,0.78,0.265,0.905,0.503h0.012l0.024-0.438h0.462V151.357z M46.036,152.503
			c0-0.09-0.007-0.168-0.03-0.239c-0.096-0.307-0.354-0.559-0.738-0.559c-0.503,0-0.863,0.426-0.863,1.098
			c0,0.569,0.288,1.043,0.857,1.043c0.324,0,0.618-0.203,0.731-0.539c0.029-0.091,0.042-0.193,0.042-0.283L46.036,152.503
			L46.036,152.503z"/>
		<path fill="#FFFFFF" d="M47.399,152.264c0-0.343-0.006-0.636-0.023-0.906h0.462l0.018,0.57h0.024
			c0.132-0.39,0.45-0.636,0.804-0.636c0.061,0,0.103,0.006,0.15,0.019v0.498c-0.055-0.013-0.108-0.019-0.181-0.019
			c-0.372,0-0.635,0.282-0.708,0.679c-0.012,0.071-0.023,0.155-0.023,0.245v1.548H47.4L47.399,152.264L47.399,152.264z"/>
		<path fill="#FFFFFF" d="M49.594,152.904c0.012,0.714,0.468,1.008,0.996,1.008c0.378,0,0.604-0.066,0.804-0.15l0.09,0.377
			c-0.186,0.084-0.504,0.18-0.965,0.18c-0.894,0-1.427-0.588-1.427-1.463s0.516-1.564,1.361-1.564c0.946,0,1.198,0.833,1.198,1.367
			c0,0.107-0.012,0.191-0.018,0.246H49.594z M51.142,152.527c0.006-0.336-0.138-0.858-0.73-0.858c-0.534,0-0.769,0.492-0.811,0.858
			H51.142z"/>
		<path fill="#FFFFFF" d="M52.234,153.721c0.156,0.102,0.433,0.209,0.696,0.209c0.384,0,0.563-0.191,0.563-0.432
			c0-0.252-0.15-0.391-0.54-0.534c-0.522-0.187-0.769-0.474-0.769-0.821c0-0.468,0.378-0.852,1.001-0.852
			c0.294,0,0.552,0.084,0.713,0.18l-0.132,0.385c-0.114-0.072-0.324-0.168-0.594-0.168c-0.313,0-0.485,0.18-0.485,0.396
			c0,0.239,0.174,0.349,0.551,0.492c0.505,0.192,0.763,0.444,0.763,0.875c0,0.51-0.396,0.87-1.085,0.87
			c-0.318,0-0.611-0.078-0.815-0.198L52.234,153.721z"/>
		<path fill="#FFFFFF" d="M54.61,153.721c0.156,0.102,0.433,0.209,0.696,0.209c0.384,0,0.563-0.191,0.563-0.432
			c0-0.252-0.15-0.391-0.54-0.534c-0.522-0.187-0.769-0.474-0.769-0.821c0-0.468,0.378-0.852,1.001-0.852
			c0.294,0,0.552,0.084,0.713,0.18l-0.132,0.385c-0.114-0.072-0.324-0.168-0.594-0.168c-0.313,0-0.485,0.18-0.485,0.396
			c0,0.239,0.174,0.349,0.551,0.492c0.505,0.192,0.763,0.444,0.763,0.875c0,0.51-0.396,0.87-1.085,0.87
			c-0.318,0-0.611-0.078-0.815-0.198L54.61,153.721z"/>
	</g>
	<g>
		<rect x="13.25" y="171.534" fill="none" width="39" height="13.5"/>
		<path fill="#FFFFFF" d="M17.733,174.232h-0.038l-2.146,1.16l-0.323-1.273l2.698-1.444h1.425v12.349h-1.615L17.733,174.232
			L17.733,174.232z"/>
		<path fill="#FFFFFF" d="M24.25,183.105c0.475,0.304,1.577,0.778,2.734,0.778c2.147,0,2.813-1.368,2.793-2.394
			c-0.019-1.729-1.576-2.469-3.191-2.469h-0.932v-1.254h0.932c1.216,0,2.755-0.627,2.755-2.09c0-0.988-0.627-1.863-2.166-1.863
			c-0.988,0-1.938,0.438-2.469,0.817l-0.438-1.216c0.646-0.475,1.899-0.95,3.229-0.95c2.432,0,3.532,1.444,3.532,2.944
			c0,1.273-0.76,2.355-2.278,2.906v0.039c1.52,0.304,2.754,1.443,2.754,3.172c0,1.976-1.539,3.705-4.502,3.705
			c-1.387,0-2.604-0.438-3.21-0.836L24.25,183.105z"/>
		<path fill="#FFFFFF" d="M40.969,174.082h-4.711l-0.475,3.172c0.284-0.038,0.551-0.076,1.007-0.076c0.95,0,1.899,0.209,2.66,0.665
			c0.969,0.552,1.767,1.615,1.767,3.173c0,2.414-1.918,4.217-4.597,4.217c-1.35,0-2.489-0.379-3.078-0.76l0.418-1.272
			c0.513,0.304,1.52,0.684,2.641,0.684c1.577,0,2.926-1.026,2.926-2.679c-0.019-1.596-1.083-2.736-3.553-2.736
			c-0.703,0-1.254,0.076-1.71,0.133l0.798-5.927h5.908L40.969,174.082L40.969,174.082z"/>
		<path fill="#FFFFFF" d="M51.551,178.717c0,4.198-1.558,6.516-4.293,6.516c-2.413,0-4.046-2.26-4.084-6.344
			c0-4.142,1.786-6.422,4.293-6.422C50.07,172.467,51.551,174.785,51.551,178.717z M44.845,178.906c0,3.211,0.988,5.035,2.508,5.035
			c1.71,0,2.527-1.996,2.527-5.148c0-3.04-0.779-5.034-2.508-5.034C45.909,173.759,44.845,175.544,44.845,178.906z"/>
	</g>
</g>
<g>
	<polygon fill="#1DDD6B" points="724.322,-152.284 724.322,-67.324 716.715,-59.716 591.177,-59.716 591.177,-152.284 	"/>
	<rect x="591.25" y="-152.5" fill="#30E278" width="133" height="17"/>
	<polygon fill="#1DB75B" points="724.322,-76.2 724.322,-67.324 716.715,-59.716 591.177,-59.716 591.177,-76.2 	"/>
	<g>
		<rect x="620.082" y="-146.167" fill="none" width="75.334" height="10.367"/>
		<path fill="#FFFFFF" d="M650.715-145.949h0.521v2.705c0,1.074-0.526,1.403-1.224,1.403c-0.192,0-0.426-0.042-0.559-0.096
			l0.078-0.426c0.107,0.042,0.265,0.078,0.438,0.078c0.468,0,0.744-0.21,0.744-1.001L650.715-145.949L650.715-145.949z"/>
		<path fill="#FFFFFF" d="M654.716-143.382c0,1.073-0.743,1.541-1.445,1.541c-0.786,0-1.392-0.576-1.392-1.493
			c0-0.972,0.636-1.541,1.438-1.541C654.152-144.875,654.716-144.27,654.716-143.382z M652.412-143.352
			c0,0.636,0.366,1.116,0.883,1.116c0.504,0,0.881-0.474,0.881-1.127c0-0.492-0.246-1.116-0.869-1.116
			C652.683-144.479,652.412-143.904,652.412-143.352z"/>
		<path fill="#FFFFFF" d="M655.971-145.625c0.006,0.18-0.126,0.324-0.336,0.324c-0.187,0-0.318-0.144-0.318-0.324
			c0-0.186,0.139-0.33,0.33-0.33C655.845-145.955,655.971-145.811,655.971-145.625z M655.383-141.907v-2.902h0.526v2.902H655.383z"
			/>
		<path fill="#FFFFFF" d="M656.786-144.023c0-0.3-0.006-0.546-0.023-0.786h0.468l0.03,0.479h0.012
			c0.145-0.276,0.479-0.545,0.96-0.545c0.401,0,1.025,0.24,1.025,1.235v1.733h-0.527v-1.673c0-0.468-0.175-0.858-0.672-0.858
			c-0.348,0-0.618,0.246-0.708,0.54c-0.024,0.066-0.036,0.156-0.036,0.246v1.745h-0.526v-2.116H656.786z"/>
		<path fill="#FFFFFF" d="M660.409-143.262c0.014,0.714,0.47,1.008,0.996,1.008c0.378,0,0.605-0.066,0.804-0.15l0.091,0.377
			c-0.188,0.084-0.504,0.18-0.966,0.18c-0.894,0-1.428-0.588-1.428-1.463s0.517-1.565,1.361-1.565c0.947,0,1.199,0.833,1.199,1.367
			c0,0.108-0.014,0.192-0.02,0.246H660.409z M661.957-143.64c0.007-0.336-0.138-0.857-0.73-0.857c-0.533,0-0.768,0.492-0.811,0.857
			H661.957z"/>
		<path fill="#FFFFFF" d="M665.629-146.165v3.508c0,0.258,0.006,0.552,0.023,0.75h-0.474l-0.023-0.504h-0.013
			c-0.161,0.324-0.516,0.57-0.989,0.57c-0.701,0-1.241-0.594-1.241-1.475c-0.007-0.965,0.595-1.559,1.303-1.559
			c0.442,0,0.742,0.21,0.875,0.444h0.012v-1.733L665.629-146.165L665.629-146.165z M665.102-143.628
			c0-0.066-0.006-0.156-0.023-0.222c-0.078-0.336-0.365-0.612-0.762-0.612c-0.546,0-0.869,0.48-0.869,1.122
			c0,0.587,0.287,1.073,0.857,1.073c0.354,0,0.678-0.234,0.772-0.629c0.019-0.072,0.023-0.144,0.023-0.228L665.102-143.628
			L665.102-143.628z"/>
	</g>
	<g>
		<rect x="616" y="-124" fill="none" width="83.5" height="29.5"/>
		<path fill="#FFFFFF" d="M644.384-112.429c0.475,0.304,1.577,0.779,2.734,0.779c2.146,0,2.813-1.368,2.793-2.394
			c-0.02-1.729-1.577-2.469-3.191-2.469h-0.932v-1.254h0.932c1.216,0,2.754-0.627,2.754-2.09c0-0.988-0.626-1.862-2.166-1.862
			c-0.988,0-1.938,0.438-2.469,0.817l-0.438-1.216c0.646-0.475,1.899-0.95,3.229-0.95c2.432,0,3.533,1.444,3.533,2.944
			c0,1.273-0.76,2.356-2.279,2.907v0.038c1.52,0.304,2.754,1.444,2.754,3.172c0,1.976-1.539,3.705-4.502,3.705
			c-1.388,0-2.604-0.437-3.21-0.836L644.384-112.429z"/>
		<path fill="#FFFFFF" d="M658.898-110.51v-3.362h-5.736v-1.102l5.509-7.884h1.806v7.675h1.729v1.311h-1.729v3.362H658.898z
			 M658.898-115.184v-4.123c0-0.646,0.021-1.292,0.057-1.938h-0.057c-0.38,0.722-0.684,1.254-1.025,1.824l-3.021,4.198v0.038
			L658.898-115.184L658.898-115.184z"/>
		<path fill="#FFFFFF" d="M670.849-121.453h-4.711l-0.477,3.172c0.285-0.038,0.552-0.076,1.009-0.076
			c0.948,0,1.898,0.209,2.658,0.665c0.97,0.551,1.768,1.615,1.768,3.173c0,2.413-1.918,4.217-4.599,4.217
			c-1.348,0-2.487-0.38-3.076-0.76l0.418-1.273c0.513,0.304,1.52,0.684,2.641,0.684c1.577,0,2.926-1.026,2.926-2.679
			c-0.019-1.596-1.083-2.736-3.553-2.736c-0.702,0-1.254,0.076-1.71,0.133l0.799-5.927h5.907V-121.453z"/>
	</g>
</g>
<g>
	<g>
		<polygon fill="#61B222" points="521.615,264.042 521.615,348.404 514.061,355.959 389.405,355.959 389.405,264.042 		"/>
		<rect x="389.385" y="264.042" fill="#5ACE1D" width="132.21" height="16.369"/>
		<polygon fill="#338C19" points="521.615,339.59 521.615,348.404 514.061,355.959 389.405,355.959 389.405,339.59 		"/>
	</g>
	<g>
		<rect x="417.823" y="270.333" fill="none" width="75.333" height="10.367"/>
		<path fill="#FFFFFF" d="M439.283,273.958c0.234,0.144,0.576,0.265,0.937,0.265c0.534,0,0.846-0.283,0.846-0.69
			c0-0.378-0.216-0.595-0.762-0.804c-0.66-0.233-1.067-0.576-1.067-1.146c0-0.63,0.521-1.099,1.308-1.099
			c0.414,0,0.714,0.097,0.894,0.199l-0.144,0.426c-0.133-0.072-0.402-0.192-0.769-0.192c-0.552,0-0.762,0.33-0.762,0.604
			c0,0.379,0.246,0.563,0.804,0.781c0.685,0.264,1.032,0.592,1.032,1.187c0,0.624-0.462,1.163-1.416,1.163
			c-0.39,0-0.815-0.113-1.031-0.258L439.283,273.958z"/>
		<path fill="#FFFFFF" d="M444.959,273.118c0,1.073-0.744,1.541-1.445,1.541c-0.786,0-1.392-0.576-1.392-1.493
			c0-0.973,0.636-1.541,1.439-1.541C444.395,271.625,444.959,272.23,444.959,273.118z M442.656,273.148
			c0,0.636,0.366,1.115,0.881,1.115c0.505,0,0.882-0.474,0.882-1.127c0-0.492-0.246-1.115-0.869-1.115
			S442.656,272.596,442.656,273.148z"/>
		<path fill="#FFFFFF" d="M448.055,273.803c0,0.299,0.006,0.563,0.023,0.791h-0.468l-0.03-0.474h-0.012
			c-0.138,0.233-0.443,0.54-0.959,0.54c-0.456,0-1.001-0.252-1.001-1.271v-1.697h0.527v1.607c0,0.553,0.168,0.924,0.647,0.924
			c0.354,0,0.601-0.246,0.695-0.479c0.03-0.078,0.048-0.175,0.048-0.271v-1.781h0.527L448.055,273.803L448.055,273.803z"/>
		<path fill="#FFFFFF" d="M448.933,272.596c0-0.342-0.006-0.635-0.024-0.904h0.462l0.019,0.57h0.023
			c0.133-0.391,0.45-0.637,0.805-0.637c0.06,0,0.102,0.006,0.149,0.018v0.498c-0.054-0.012-0.107-0.018-0.18-0.018
			c-0.372,0-0.636,0.281-0.708,0.678c-0.012,0.072-0.024,0.156-0.024,0.246v1.547h-0.521L448.933,272.596L448.933,272.596z"/>
		<path fill="#FFFFFF" d="M452.903,274.484c-0.138,0.072-0.443,0.168-0.834,0.168c-0.875,0-1.445-0.594-1.445-1.48
			c0-0.895,0.611-1.541,1.56-1.541c0.312,0,0.587,0.078,0.73,0.15l-0.119,0.408c-0.125-0.072-0.324-0.139-0.611-0.139
			c-0.666,0-1.025,0.492-1.025,1.098c0,0.672,0.433,1.084,1.007,1.084c0.301,0,0.498-0.078,0.647-0.144L452.903,274.484z"/>
		<path fill="#FFFFFF" d="M453.78,273.238c0.012,0.714,0.468,1.008,0.996,1.008c0.378,0,0.605-0.066,0.804-0.15l0.091,0.377
			c-0.187,0.084-0.505,0.18-0.966,0.18c-0.894,0-1.427-0.588-1.427-1.463s0.517-1.564,1.361-1.564c0.947,0,1.199,0.833,1.199,1.367
			c0,0.107-0.013,0.191-0.019,0.246H453.78z M455.326,272.859c0.006-0.336-0.138-0.856-0.73-0.856c-0.534,0-0.769,0.492-0.811,0.856
			H455.326z"/>
		<path fill="#FFFFFF" d="M458.998,270.335v3.508c0,0.259,0.007,0.552,0.024,0.75h-0.474l-0.024-0.504h-0.012
			c-0.162,0.324-0.517,0.57-0.989,0.57c-0.702,0-1.241-0.595-1.241-1.476c-0.006-0.965,0.595-1.559,1.302-1.559
			c0.443,0,0.743,0.21,0.875,0.443h0.012v-1.732L458.998,270.335L458.998,270.335z M458.471,272.872
			c0-0.065-0.006-0.156-0.024-0.222c-0.078-0.336-0.366-0.612-0.761-0.612c-0.546,0-0.87,0.479-0.87,1.122
			c0,0.587,0.288,1.072,0.857,1.072c0.354,0,0.678-0.233,0.772-0.629c0.019-0.071,0.024-0.144,0.024-0.228L458.471,272.872
			L458.471,272.872z"/>
		<path fill="#FFFFFF" d="M461.165,274.593v-4.042h0.57l1.295,2.045c0.3,0.475,0.534,0.9,0.727,1.313l0.012-0.007
			c-0.048-0.539-0.06-1.031-0.06-1.66v-1.691h0.491v4.042h-0.527l-1.283-2.051c-0.282-0.45-0.552-0.912-0.756-1.349l-0.019,0.006
			c0.03,0.51,0.042,0.994,0.042,1.666v1.728H461.165L461.165,274.593z"/>
		<path fill="#FFFFFF" d="M465.389,273.238c0.012,0.714,0.468,1.008,0.996,1.008c0.378,0,0.604-0.066,0.804-0.15l0.09,0.377
			c-0.186,0.084-0.504,0.18-0.965,0.18c-0.894,0-1.427-0.588-1.427-1.463s0.516-1.564,1.36-1.564c0.947,0,1.199,0.833,1.199,1.367
			c0,0.107-0.012,0.191-0.018,0.246H465.389z M466.937,272.859c0.006-0.336-0.138-0.856-0.731-0.856
			c-0.533,0-0.768,0.492-0.81,0.856H466.937z"/>
		<path fill="#FFFFFF" d="M468.311,271.691l0.384,1.475c0.084,0.324,0.162,0.624,0.216,0.923h0.019
			c0.065-0.293,0.162-0.604,0.258-0.917l0.474-1.48h0.443l0.45,1.451c0.107,0.348,0.191,0.653,0.258,0.946h0.018
			c0.049-0.293,0.125-0.601,0.223-0.94l0.414-1.457h0.521l-0.936,2.902h-0.48l-0.442-1.386c-0.103-0.324-0.187-0.612-0.259-0.954
			h-0.012c-0.072,0.348-0.162,0.648-0.264,0.959l-0.468,1.379h-0.48l-0.875-2.902h0.539V271.691z"/>
	</g>
	<g>
		<rect x="413.74" y="292.5" fill="none" width="83.5" height="29.5"/>
		<path fill="#FFFFFF" d="M445.354,295.199h-0.038l-2.146,1.158l-0.323-1.272l2.698-1.444h1.425v12.348h-1.615L445.354,295.199
			L445.354,295.199z"/>
		<path fill="#FFFFFF" d="M456.639,305.99v-3.362h-5.737v-1.103l5.509-7.883h1.806v7.674h1.729v1.312h-1.729v3.362H456.639z
			 M456.639,301.316v-4.123c0-0.646,0.019-1.293,0.057-1.938h-0.057c-0.38,0.722-0.685,1.255-1.026,1.824l-3.021,4.198v0.037h4.047
			V301.316z"/>
		<path fill="#FFFFFF" d="M466.385,305.99v-3.362h-5.737v-1.103l5.509-7.883h1.806v7.674h1.729v1.312h-1.729v3.362H466.385z
			 M466.385,301.316v-4.123c0-0.646,0.019-1.293,0.057-1.938h-0.057c-0.38,0.722-0.685,1.255-1.026,1.824l-3.021,4.198v0.037h4.047
			V301.316z"/>
	</g>
</g>
<g>
	<g>
		<polygon fill="#E5173A" points="684.996,263.553 684.996,350.648 677.197,358.447 548.502,358.447 548.502,263.553 		"/>
		<rect x="548.502" y="263.553" fill="#F2254D" width="136.494" height="16.898"/>
		<polygon fill="#C61033" points="684.996,341.549 684.996,350.648 677.197,358.447 548.502,358.447 548.502,341.549 		"/>
	</g>
	<g>
		<rect x="580.582" y="270.417" fill="none" width="75.334" height="10.367"/>
		<path fill="#FFFFFF" d="M608.666,270.684c0.253-0.043,0.582-0.078,1.002-0.078c0.516,0,0.894,0.119,1.134,0.336
			c0.222,0.191,0.354,0.486,0.354,0.845c0,0.366-0.107,0.653-0.312,0.864c-0.275,0.293-0.727,0.443-1.235,0.443
			c-0.156,0-0.3-0.006-0.42-0.035v1.619h-0.522V270.684z M609.189,272.631c0.114,0.03,0.258,0.042,0.432,0.042
			c0.631,0,1.015-0.306,1.015-0.862c0-0.535-0.378-0.793-0.954-0.793c-0.229,0-0.402,0.019-0.492,0.043V272.631z"/>
		<path fill="#FFFFFF" d="M612.332,270.958c0.007,0.181-0.125,0.324-0.336,0.324c-0.186,0-0.317-0.144-0.317-0.324
			c0-0.187,0.138-0.33,0.33-0.33C612.206,270.628,612.332,270.771,612.332,270.958z M611.745,274.676v-2.902h0.527v2.902H611.745z"
			/>
		<path fill="#FFFFFF" d="M613.15,272.721c0-0.371-0.012-0.671-0.023-0.947h0.474l0.023,0.498h0.013
			c0.216-0.354,0.558-0.563,1.032-0.563c0.701,0,1.229,0.594,1.229,1.475c0,1.043-0.635,1.56-1.319,1.56
			c-0.384,0-0.719-0.168-0.893-0.456h-0.012v1.576h-0.521v-3.143H613.15z M613.671,273.495c0,0.077,0.012,0.149,0.023,0.216
			c0.097,0.366,0.414,0.618,0.792,0.618c0.559,0,0.882-0.456,0.882-1.122c0-0.582-0.306-1.08-0.863-1.08
			c-0.36,0-0.696,0.258-0.798,0.654c-0.018,0.066-0.035,0.144-0.035,0.216L613.671,273.495L613.671,273.495z"/>
		<path fill="#FFFFFF" d="M616.857,273.32c0.012,0.715,0.468,1.009,0.996,1.009c0.378,0,0.604-0.065,0.804-0.149l0.09,0.377
			c-0.186,0.084-0.504,0.18-0.965,0.18c-0.894,0-1.427-0.588-1.427-1.463s0.516-1.565,1.361-1.565c0.946,0,1.198,0.833,1.198,1.367
			c0,0.108-0.012,0.192-0.018,0.245H616.857z M618.405,272.943c0.006-0.336-0.138-0.857-0.73-0.857
			c-0.534,0-0.769,0.492-0.811,0.857H618.405z"/>
		<path fill="#FFFFFF" d="M619.57,270.418h0.527v4.258h-0.527V270.418z"/>
		<path fill="#FFFFFF" d="M621.573,270.958c0.006,0.181-0.126,0.324-0.336,0.324c-0.186,0-0.317-0.144-0.317-0.324
			c0-0.187,0.138-0.33,0.329-0.33C621.447,270.628,621.573,270.771,621.573,270.958z M620.986,274.676v-2.902h0.527v2.902H620.986z"
			/>
		<path fill="#FFFFFF" d="M622.389,272.561c0-0.301-0.006-0.547-0.024-0.787h0.468l0.03,0.479h0.013
			c0.144-0.276,0.479-0.545,0.959-0.545c0.401,0,1.024,0.239,1.024,1.235v1.732h-0.526v-1.673c0-0.468-0.175-0.858-0.673-0.858
			c-0.348,0-0.617,0.246-0.708,0.541c-0.023,0.065-0.035,0.155-0.035,0.246v1.744h-0.527V272.561L622.389,272.561z"/>
		<path fill="#FFFFFF" d="M626.013,273.32c0.012,0.715,0.468,1.009,0.996,1.009c0.378,0,0.604-0.065,0.804-0.149l0.09,0.377
			c-0.186,0.084-0.504,0.18-0.965,0.18c-0.894,0-1.427-0.588-1.427-1.463s0.516-1.565,1.36-1.565c0.947,0,1.199,0.833,1.199,1.367
			c0,0.108-0.012,0.192-0.018,0.245H626.013z M627.56,272.943c0.006-0.336-0.138-0.857-0.731-0.857c-0.533,0-0.768,0.492-0.81,0.857
			H627.56z"/>
	</g>
	<g>
		<rect x="576.5" y="292.583" fill="none" width="83.5" height="29.501"/>
		<path fill="#FFFFFF" d="M609.652,306.072v-3.361h-5.737v-1.102l5.51-7.885h1.805v7.676h1.729v1.311h-1.729v3.361H609.652z
			 M609.652,301.398v-4.123c0-0.646,0.02-1.291,0.058-1.938h-0.058c-0.38,0.723-0.684,1.254-1.026,1.824l-3.021,4.197v0.039H609.652
			L609.652,301.398z"/>
		<path fill="#FFFFFF" d="M621.279,294.902c-0.342-0.02-0.778,0-1.254,0.076c-2.622,0.437-4.008,2.354-4.293,4.388h0.057
			c0.589-0.779,1.615-1.425,2.982-1.425c2.185,0,3.724,1.576,3.724,3.988c0,2.262-1.539,4.352-4.104,4.352
			c-2.642,0-4.369-2.053-4.369-5.262c0-2.433,0.874-4.352,2.09-5.566c1.025-1.008,2.395-1.635,3.951-1.824
			c0.494-0.076,0.912-0.095,1.216-0.095V294.902L621.279,294.902z M620.804,302.025c0-1.767-1.007-2.83-2.545-2.83
			c-1.007,0-1.938,0.627-2.395,1.52c-0.113,0.189-0.189,0.438-0.189,0.741c0.038,2.032,0.969,3.532,2.716,3.532
			C619.835,304.99,620.804,303.793,620.804,302.025z"/>
		<path fill="#FFFFFF" d="M623.825,302.938c0-1.558,0.932-2.658,2.45-3.305l-0.019-0.057c-1.368-0.646-1.957-1.709-1.957-2.773
			c0-1.957,1.652-3.287,3.817-3.287c2.395,0,3.592,1.502,3.592,3.041c0,1.045-0.514,2.166-2.033,2.887v0.058
			c1.539,0.608,2.487,1.69,2.487,3.192c0,2.146-1.843,3.59-4.197,3.59C625.384,306.282,623.825,304.743,623.825,302.938z
			 M630.475,302.861c0-1.5-1.045-2.223-2.717-2.697c-1.444,0.418-2.224,1.368-2.224,2.546c-0.057,1.253,0.894,2.354,2.471,2.354
			C629.506,305.066,630.475,304.135,630.475,302.861z M625.877,296.688c0,1.235,0.931,1.9,2.355,2.28
			c1.064-0.36,1.881-1.12,1.881-2.241c0-0.988-0.589-2.015-2.09-2.015C626.638,294.712,625.877,295.625,625.877,296.688z"/>
	</g>
</g>
<g>
	<g>
		<polygon fill="#F79B16" points="360.25,262.5 360.25,349.59 352.392,357.5 223.25,357.5 223.25,262.5 		"/>
		<rect x="223.25" y="262.5" fill="#F7A231" width="137" height="16"/>
		<polygon fill="#EF8D0A" points="360.25,340.5 360.25,349.59 352.407,357.5 223.25,357.5 223.25,340.5 		"/>
	</g>
	<g>
		<rect x="254.097" y="268.436" fill="none" width="75.333" height="10.367"/>
		<path fill="#FFFFFF" d="M286.199,270.633c0,1.393-0.846,2.129-1.878,2.129c-1.066,0-1.816-0.828-1.816-2.051
			c0-1.283,0.798-2.123,1.877-2.123C285.486,268.588,286.199,269.434,286.199,270.633z M283.063,270.699
			c0,0.863,0.468,1.637,1.29,1.637c0.828,0,1.295-0.762,1.295-1.679c0-0.804-0.419-1.644-1.289-1.644
			C283.495,269.014,283.063,269.813,283.063,270.699z"/>
		<path fill="#FFFFFF" d="M288.75,272.695v-2.5h-1.217v2.5h-0.522v-2.5h-0.408v-0.401h0.408v-0.097c0-0.407,0.096-0.76,0.324-0.988
			c0.168-0.168,0.408-0.27,0.731-0.27c0.167,0,0.324,0.054,0.414,0.102l-0.107,0.391c-0.078-0.037-0.192-0.072-0.313-0.072
			c-0.414,0-0.526,0.354-0.526,0.81v0.126h1.217v-0.138c0-0.408,0.096-0.779,0.342-1.013c0.198-0.192,0.461-0.271,0.702-0.271
			c0.191,0,0.348,0.042,0.45,0.084l-0.066,0.408c-0.084-0.036-0.186-0.066-0.342-0.066c-0.444,0-0.564,0.396-0.564,0.841v0.155
			h0.702v0.402h-0.696v2.5h-0.528V272.695z"/>
		<path fill="#FFFFFF" d="M290.671,271.34c0.012,0.715,0.468,1.008,0.996,1.008c0.378,0,0.604-0.066,0.804-0.15l0.09,0.378
			c-0.186,0.084-0.504,0.18-0.965,0.18c-0.894,0-1.427-0.588-1.427-1.463s0.516-1.565,1.36-1.565c0.947,0,1.199,0.834,1.199,1.367
			c0,0.108-0.012,0.192-0.018,0.246H290.671z M292.218,270.963c0.006-0.336-0.138-0.857-0.731-0.857
			c-0.533,0-0.768,0.492-0.81,0.857H292.218z"/>
		<path fill="#FFFFFF" d="M293.383,270.699c0-0.342-0.006-0.635-0.024-0.905h0.462l0.019,0.569h0.023
			c0.133-0.389,0.45-0.635,0.805-0.635c0.06,0,0.102,0.006,0.149,0.018v0.498c-0.054-0.012-0.107-0.018-0.18-0.018
			c-0.372,0-0.635,0.281-0.708,0.678c-0.012,0.072-0.024,0.156-0.024,0.246v1.547h-0.521L293.383,270.699L293.383,270.699z"/>
		<path fill="#FFFFFF" d="M295.579,271.34c0.012,0.715,0.468,1.008,0.996,1.008c0.378,0,0.604-0.066,0.804-0.15l0.09,0.378
			c-0.186,0.084-0.504,0.18-0.965,0.18c-0.895,0-1.427-0.588-1.427-1.463s0.516-1.565,1.36-1.565c0.947,0,1.199,0.834,1.199,1.367
			c0,0.108-0.012,0.192-0.018,0.246H295.579z M297.126,270.963c0.006-0.336-0.139-0.857-0.731-0.857
			c-0.534,0-0.768,0.492-0.81,0.857H297.126z"/>
		<path fill="#FFFFFF" d="M300.797,268.438v3.508c0,0.259,0.006,0.553,0.023,0.75h-0.474l-0.024-0.504h-0.012
			c-0.162,0.324-0.516,0.57-0.989,0.57c-0.701,0-1.24-0.594-1.24-1.475c-0.006-0.965,0.594-1.559,1.301-1.559
			c0.444,0,0.744,0.209,0.875,0.443h0.012v-1.732h0.528V268.438z M300.27,270.975c0-0.065-0.006-0.156-0.023-0.222
			c-0.078-0.336-0.366-0.612-0.762-0.612c-0.546,0-0.869,0.48-0.869,1.123c0,0.586,0.287,1.072,0.856,1.072
			c0.354,0,0.678-0.234,0.773-0.629c0.018-0.072,0.023-0.145,0.023-0.229L300.27,270.975L300.27,270.975z"/>
	</g>
	<g>
		<rect x="250.014" y="290.604" fill="none" width="83.5" height="29.5"/>
		<path fill="#FFFFFF" d="M276.753,293.303h-0.038l-2.146,1.158l-0.322-1.273l2.697-1.443h1.426v12.348h-1.615L276.753,293.303
			L276.753,293.303z"/>
		<path fill="#FFFFFF" d="M282.872,304.092v-1.025l1.311-1.273c3.154-3.001,4.579-4.598,4.598-6.459c0-1.254-0.607-2.413-2.45-2.413
			c-1.121,0-2.053,0.57-2.622,1.045l-0.532-1.178c0.854-0.722,2.071-1.254,3.496-1.254c2.66,0,3.78,1.823,3.78,3.59
			c0,2.28-1.652,4.123-4.256,6.63l-0.987,0.912v0.038h5.547v1.387L282.872,304.092L282.872,304.092z"/>
		<path fill="#FFFFFF" d="M292.618,304.092v-1.025l1.311-1.273c3.154-3.001,4.579-4.598,4.598-6.459c0-1.254-0.607-2.413-2.45-2.413
			c-1.121,0-2.053,0.57-2.622,1.045l-0.532-1.178c0.854-0.722,2.071-1.254,3.496-1.254c2.66,0,3.779,1.823,3.779,3.59
			c0,2.28-1.651,4.123-4.255,6.63l-0.987,0.912v0.038h5.547v1.387L292.618,304.092L292.618,304.092z"/>
		<path fill="#FFFFFF" d="M302.764,302.173c0.475,0.304,1.577,0.779,2.735,0.779c2.146,0,2.812-1.368,2.793-2.394
			c-0.02-1.729-1.577-2.47-3.192-2.47h-0.931v-1.254h0.931c1.216,0,2.755-0.627,2.755-2.09c0-0.988-0.627-1.862-2.166-1.862
			c-0.987,0-1.938,0.438-2.469,0.817l-0.437-1.216c0.646-0.476,1.898-0.95,3.229-0.95c2.432,0,3.533,1.444,3.533,2.944
			c0,1.272-0.76,2.355-2.279,2.906v0.038c1.521,0.304,2.754,1.444,2.754,3.173c0,1.975-1.539,3.704-4.502,3.704
			c-1.387,0-2.603-0.437-3.21-0.836L302.764,302.173z"/>
	</g>
</g>
<g>
	<g>
		<polygon fill="#F79B16" points="601.25,157.5 601.25,244.59 593.392,252.5 464.25,252.5 464.25,157.5 		"/>
		<rect x="464.25" y="157.5" fill="#F7A231" width="137" height="16"/>
		<polygon fill="#EF8D0A" points="601.25,235.5 601.25,244.59 593.406,252.5 464.25,252.5 464.25,235.5 		"/>
	</g>
	<g>
		<rect x="495.097" y="163.436" fill="none" width="75.333" height="10.367"/>
		<path fill="#FFFFFF" d="M527.198,165.633c0,1.393-0.845,2.129-1.877,2.129c-1.066,0-1.816-0.828-1.816-2.051
			c0-1.283,0.798-2.123,1.877-2.123C526.486,163.588,527.198,164.434,527.198,165.633z M524.063,165.699
			c0,0.863,0.468,1.637,1.29,1.637c0.828,0,1.295-0.762,1.295-1.68c0-0.803-0.419-1.643-1.289-1.643
			C524.494,164.014,524.063,164.813,524.063,165.699z"/>
		<path fill="#FFFFFF" d="M529.75,167.695v-2.5h-1.218v2.5h-0.521v-2.5h-0.408v-0.401h0.408v-0.097c0-0.407,0.096-0.76,0.324-0.988
			c0.168-0.168,0.407-0.27,0.731-0.27c0.167,0,0.324,0.054,0.414,0.102l-0.107,0.391c-0.078-0.037-0.192-0.072-0.313-0.072
			c-0.414,0-0.527,0.354-0.527,0.81v0.126h1.218v-0.138c0-0.408,0.096-0.779,0.342-1.013c0.198-0.192,0.461-0.271,0.702-0.271
			c0.191,0,0.348,0.042,0.449,0.084l-0.065,0.408c-0.084-0.036-0.187-0.066-0.342-0.066c-0.444,0-0.564,0.396-0.564,0.841v0.155
			h0.702v0.401h-0.696v2.5h-0.528V167.695z"/>
		<path fill="#FFFFFF" d="M531.671,166.34c0.012,0.715,0.468,1.008,0.995,1.008c0.379,0,0.605-0.066,0.805-0.15l0.09,0.378
			c-0.186,0.084-0.504,0.18-0.965,0.18c-0.895,0-1.427-0.588-1.427-1.463s0.516-1.565,1.36-1.565c0.947,0,1.199,0.834,1.199,1.367
			c0,0.108-0.012,0.192-0.018,0.246H531.671z M533.218,165.963c0.006-0.336-0.139-0.857-0.731-0.857
			c-0.534,0-0.768,0.492-0.81,0.857H533.218z"/>
		<path fill="#FFFFFF" d="M534.383,165.699c0-0.342-0.006-0.635-0.024-0.905h0.462l0.019,0.569h0.023
			c0.132-0.389,0.45-0.635,0.804-0.635c0.061,0,0.103,0.006,0.15,0.018v0.498c-0.054-0.012-0.107-0.018-0.18-0.018
			c-0.372,0-0.635,0.281-0.708,0.678c-0.013,0.072-0.024,0.156-0.024,0.246v1.547h-0.521L534.383,165.699L534.383,165.699z"/>
		<path fill="#FFFFFF" d="M536.578,166.34c0.013,0.715,0.469,1.008,0.996,1.008c0.378,0,0.605-0.066,0.805-0.15l0.09,0.378
			c-0.187,0.084-0.504,0.18-0.965,0.18c-0.895,0-1.428-0.588-1.428-1.463s0.517-1.565,1.361-1.565c0.947,0,1.199,0.834,1.199,1.367
			c0,0.108-0.013,0.192-0.019,0.246H536.578z M538.125,165.963c0.007-0.336-0.138-0.857-0.73-0.857
			c-0.534,0-0.768,0.492-0.811,0.857H538.125z"/>
		<path fill="#FFFFFF" d="M541.797,163.438v3.508c0,0.259,0.006,0.553,0.023,0.75h-0.474l-0.024-0.504h-0.012
			c-0.162,0.324-0.516,0.57-0.989,0.57c-0.702,0-1.241-0.594-1.241-1.475c-0.006-0.965,0.595-1.559,1.302-1.559
			c0.443,0,0.743,0.209,0.875,0.443h0.012v-1.732h0.528V163.438z M541.27,165.975c0-0.065-0.006-0.156-0.024-0.222
			c-0.077-0.336-0.365-0.612-0.761-0.612c-0.546,0-0.87,0.48-0.87,1.123c0,0.586,0.288,1.072,0.857,1.072
			c0.354,0,0.678-0.234,0.772-0.629c0.019-0.072,0.024-0.145,0.024-0.229L541.27,165.975L541.27,165.975z"/>
	</g>
	<g>
		<rect x="491.014" y="185.604" fill="none" width="83.5" height="29.5"/>
		<path fill="#FFFFFF" d="M517.753,188.303h-0.038l-2.146,1.158l-0.323-1.273l2.698-1.443h1.425v12.348h-1.614L517.753,188.303
			L517.753,188.303z"/>
		<path fill="#FFFFFF" d="M523.871,199.092v-1.025l1.312-1.273c3.154-3.001,4.579-4.598,4.598-6.459
			c0-1.254-0.607-2.413-2.451-2.413c-1.12,0-2.052,0.57-2.622,1.045l-0.531-1.178c0.854-0.722,2.07-1.254,3.496-1.254
			c2.659,0,3.779,1.823,3.779,3.59c0,2.28-1.651,4.123-4.255,6.63l-0.987,0.912v0.038h5.547v1.387L523.871,199.092L523.871,199.092z
			"/>
		<path fill="#FFFFFF" d="M533.617,199.092v-1.025l1.312-1.273c3.153-3.001,4.579-4.598,4.598-6.459
			c0-1.254-0.607-2.413-2.451-2.413c-1.121,0-2.052,0.57-2.622,1.045l-0.531-1.178c0.854-0.722,2.07-1.254,3.496-1.254
			c2.659,0,3.779,1.823,3.779,3.59c0,2.28-1.651,4.123-4.255,6.63l-0.988,0.912v0.038h5.548v1.387L533.617,199.092L533.617,199.092z
			"/>
		<path fill="#FFFFFF" d="M543.764,197.173c0.475,0.304,1.577,0.779,2.734,0.779c2.147,0,2.813-1.368,2.793-2.394
			c-0.019-1.729-1.576-2.47-3.191-2.47h-0.932v-1.254h0.932c1.216,0,2.755-0.627,2.755-2.09c0-0.988-0.627-1.862-2.166-1.862
			c-0.988,0-1.938,0.438-2.469,0.817l-0.438-1.216c0.646-0.475,1.899-0.95,3.229-0.95c2.432,0,3.533,1.444,3.533,2.944
			c0,1.272-0.761,2.355-2.279,2.906v0.038c1.52,0.304,2.754,1.444,2.754,3.173c0,1.975-1.539,3.704-4.502,3.704
			c-1.387,0-2.604-0.437-3.21-0.836L543.764,197.173z"/>
	</g>
</g>
<g>
	<g>
		<polygon fill="#F79B16" points="319.25,147.5 319.25,234.59 311.392,242.5 182.25,242.5 182.25,147.5 		"/>
		<rect x="182.25" y="147.5" fill="#F7A231" width="137" height="16"/>
		<polygon fill="#EF8D0A" points="319.25,225.5 319.25,234.59 311.407,242.5 182.25,242.5 182.25,225.5 		"/>
	</g>
	<g>
		<rect x="213.097" y="153.436" fill="none" width="75.333" height="10.367"/>
		<path fill="#FFFFFF" d="M245.199,155.633c0,1.393-0.846,2.129-1.878,2.129c-1.066,0-1.816-0.828-1.816-2.051
			c0-1.283,0.798-2.123,1.877-2.123C244.486,153.588,245.199,154.434,245.199,155.633z M242.063,155.699
			c0,0.863,0.468,1.637,1.29,1.637c0.828,0,1.295-0.762,1.295-1.68c0-0.803-0.419-1.643-1.289-1.643
			C242.495,154.014,242.063,154.813,242.063,155.699z"/>
		<path fill="#FFFFFF" d="M247.75,157.695v-2.5h-1.217v2.5h-0.522v-2.5h-0.408v-0.401h0.408v-0.097c0-0.407,0.096-0.76,0.324-0.988
			c0.168-0.168,0.408-0.27,0.731-0.27c0.167,0,0.324,0.054,0.414,0.102l-0.107,0.391c-0.078-0.037-0.192-0.072-0.313-0.072
			c-0.414,0-0.526,0.354-0.526,0.81v0.126h1.217v-0.138c0-0.408,0.096-0.779,0.342-1.013c0.198-0.192,0.461-0.271,0.702-0.271
			c0.191,0,0.348,0.042,0.45,0.084l-0.066,0.408c-0.084-0.036-0.186-0.066-0.342-0.066c-0.444,0-0.564,0.396-0.564,0.841v0.155
			h0.702v0.401h-0.696v2.5h-0.528V157.695z"/>
		<path fill="#FFFFFF" d="M249.671,156.34c0.012,0.715,0.468,1.008,0.996,1.008c0.378,0,0.604-0.066,0.804-0.15l0.09,0.378
			c-0.186,0.084-0.504,0.18-0.965,0.18c-0.894,0-1.427-0.588-1.427-1.463s0.516-1.565,1.36-1.565c0.947,0,1.199,0.834,1.199,1.367
			c0,0.108-0.012,0.192-0.018,0.246H249.671z M251.218,155.963c0.006-0.336-0.138-0.857-0.731-0.857
			c-0.533,0-0.768,0.492-0.81,0.857H251.218z"/>
		<path fill="#FFFFFF" d="M252.383,155.699c0-0.342-0.006-0.635-0.024-0.905h0.462l0.019,0.569h0.023
			c0.133-0.389,0.45-0.635,0.805-0.635c0.06,0,0.102,0.006,0.149,0.018v0.498c-0.054-0.012-0.107-0.018-0.18-0.018
			c-0.372,0-0.635,0.281-0.708,0.678c-0.012,0.072-0.024,0.156-0.024,0.246v1.547h-0.521L252.383,155.699L252.383,155.699z"/>
		<path fill="#FFFFFF" d="M254.579,156.34c0.012,0.715,0.468,1.008,0.996,1.008c0.378,0,0.604-0.066,0.804-0.15l0.09,0.378
			c-0.186,0.084-0.504,0.18-0.965,0.18c-0.895,0-1.427-0.588-1.427-1.463s0.516-1.565,1.36-1.565c0.947,0,1.199,0.834,1.199,1.367
			c0,0.108-0.012,0.192-0.018,0.246H254.579z M256.126,155.963c0.006-0.336-0.139-0.857-0.731-0.857
			c-0.534,0-0.768,0.492-0.81,0.857H256.126z"/>
		<path fill="#FFFFFF" d="M259.797,153.438v3.508c0,0.259,0.006,0.553,0.023,0.75h-0.474l-0.024-0.504h-0.012
			c-0.162,0.324-0.516,0.57-0.989,0.57c-0.701,0-1.24-0.594-1.24-1.475c-0.006-0.965,0.594-1.559,1.301-1.559
			c0.444,0,0.744,0.209,0.875,0.443h0.012v-1.732h0.528V153.438z M259.27,155.975c0-0.065-0.006-0.156-0.023-0.222
			c-0.078-0.336-0.366-0.612-0.762-0.612c-0.546,0-0.869,0.48-0.869,1.123c0,0.586,0.287,1.072,0.856,1.072
			c0.354,0,0.678-0.234,0.773-0.629c0.018-0.072,0.023-0.145,0.023-0.229L259.27,155.975L259.27,155.975z"/>
	</g>
	<g>
		<rect x="209.014" y="175.604" fill="none" width="83.5" height="29.5"/>
		<path fill="#FFFFFF" d="M235.753,178.303h-0.038l-2.146,1.158l-0.322-1.273l2.697-1.443h1.426v12.348h-1.615L235.753,178.303
			L235.753,178.303z"/>
		<path fill="#FFFFFF" d="M241.872,189.092v-1.025l1.311-1.273c3.154-3.001,4.579-4.598,4.598-6.459c0-1.254-0.607-2.413-2.45-2.413
			c-1.121,0-2.053,0.57-2.622,1.045l-0.532-1.178c0.854-0.722,2.071-1.254,3.496-1.254c2.66,0,3.78,1.823,3.78,3.59
			c0,2.28-1.652,4.123-4.256,6.63l-0.987,0.912v0.038h5.547v1.387L241.872,189.092L241.872,189.092z"/>
		<path fill="#FFFFFF" d="M251.618,189.092v-1.025l1.311-1.273c3.154-3.001,4.579-4.598,4.598-6.459c0-1.254-0.607-2.413-2.45-2.413
			c-1.121,0-2.053,0.57-2.622,1.045l-0.532-1.178c0.854-0.722,2.071-1.254,3.496-1.254c2.66,0,3.78,1.823,3.78,3.59
			c0,2.28-1.652,4.123-4.256,6.63l-0.987,0.912v0.038h5.547v1.387L251.618,189.092L251.618,189.092z"/>
		<path fill="#FFFFFF" d="M261.764,187.173c0.475,0.304,1.577,0.779,2.735,0.779c2.146,0,2.812-1.368,2.793-2.394
			c-0.02-1.729-1.577-2.47-3.192-2.47h-0.931v-1.254h0.931c1.216,0,2.755-0.627,2.755-2.09c0-0.988-0.627-1.862-2.166-1.862
			c-0.987,0-1.938,0.438-2.469,0.817l-0.437-1.216c0.646-0.475,1.898-0.95,3.229-0.95c2.432,0,3.533,1.444,3.533,2.944
			c0,1.272-0.76,2.355-2.279,2.906v0.038c1.521,0.304,2.754,1.444,2.754,3.173c0,1.975-1.539,3.704-4.502,3.704
			c-1.387,0-2.603-0.437-3.21-0.836L261.764,187.173z"/>
	</g>
</g>
<path fill="#227FDD" d="M177.44,55.39c-0.189-29.38-23.96-53.14-53.39-53.14c-29.432,0-53.45,23.76-53.641,53.14
	c-0.011,0.06-0.16,0.12-0.16,0.18v0.18c0,0.35,0.2,0.7,0.221,1.04c0.539,29.069,24.379,52.46,53.58,52.46
	c29.199,0,52.789-23.391,53.33-52.46c0.02-0.34-0.131-0.69-0.131-1.04v-0.18C177.25,55.51,177.45,55.45,177.44,55.39z M124.15,17.85
	c20.811,0,37.709,16.78,37.899,37.54c0,0.33,0,0.66-0.01,0.98c-0.33,20.64-17.17,37.28-37.891,37.28S86.588,77.01,86.258,56.37
	c-0.01-0.32-0.01-0.65-0.01-0.98C86.439,34.63,103.34,17.85,124.15,17.85z"/>
<g>
	<path d="M972.27,283.617c0,2.318-1.408,3.548-3.128,3.548c-1.779,0-3.028-1.379-3.028-3.418c0-2.14,1.329-3.538,3.129-3.538
		C971.079,280.209,972.27,281.618,972.27,283.617z M967.043,283.727c0,1.439,0.778,2.729,2.147,2.729
		c1.379,0,2.158-1.271,2.158-2.798c0-1.34-0.699-2.739-2.148-2.739C967.762,280.918,967.043,282.248,967.043,283.727z"/>
	<path d="M973.372,283.797c0-0.619-0.02-1.119-0.04-1.579h0.79l0.039,0.83h0.021c0.36-0.59,0.93-0.938,1.72-0.938
		c1.169,0,2.049,0.988,2.049,2.457c0,1.74-1.061,2.6-2.198,2.6c-0.641,0-1.199-0.279-1.489-0.76h-0.021v2.629h-0.869
		L973.372,283.797L973.372,283.797z M974.241,285.086c0,0.13,0.021,0.25,0.041,0.359c0.159,0.609,0.689,1.029,1.318,1.029
		c0.93,0,1.47-0.76,1.47-1.869c0-0.969-0.51-1.799-1.438-1.799c-0.601,0-1.159,0.43-1.329,1.09c-0.03,0.109-0.062,0.239-0.062,0.359
		V285.086z"/>
	<path d="M979.553,284.796c0.02,1.188,0.778,1.679,1.659,1.679c0.63,0,1.009-0.109,1.339-0.25l0.149,0.631
		c-0.311,0.14-0.84,0.299-1.608,0.299c-1.488,0-2.379-0.979-2.379-2.438c0-1.459,0.858-2.608,2.27-2.608
		c1.578,0,1.998,1.39,1.998,2.279c0,0.18-0.02,0.32-0.029,0.41L979.553,284.796L979.553,284.796z M982.131,284.167
		c0.011-0.56-0.229-1.431-1.22-1.431c-0.89,0-1.278,0.82-1.35,1.431H982.131z"/>
	<path d="M984.072,283.527c0-0.5-0.01-0.91-0.039-1.311h0.779l0.05,0.801h0.021c0.238-0.461,0.799-0.91,1.599-0.91
		c0.67,0,1.709,0.399,1.709,2.059v2.889h-0.88v-2.789c0-0.779-0.289-1.43-1.119-1.43c-0.58,0-1.029,0.41-1.18,0.898
		c-0.039,0.111-0.061,0.261-0.061,0.41v2.908h-0.88V283.527L984.072,283.527z"/>
	<path d="M959.327,290.398c0.42-0.069,0.971-0.129,1.67-0.129c0.859,0,1.488,0.199,1.89,0.56c0.369,0.319,0.59,0.81,0.59,1.409
		c0,0.609-0.18,1.089-0.521,1.438c-0.461,0.49-1.21,0.739-2.06,0.739c-0.26,0-0.499-0.01-0.7-0.061v2.699h-0.869V290.398
		L959.327,290.398z M960.197,293.646c0.19,0.051,0.432,0.07,0.722,0.07c1.049,0,1.688-0.509,1.688-1.439
		c0-0.889-0.63-1.318-1.589-1.318c-0.38,0-0.67,0.029-0.82,0.07V293.646z"/>
	<path d="M968.745,294.598c0,1.789-1.239,2.567-2.407,2.567c-1.312,0-2.319-0.959-2.319-2.489c0-1.619,1.06-2.568,2.397-2.568
		C967.807,292.107,968.745,293.117,968.745,294.598z M964.907,294.646c0,1.06,0.609,1.858,1.47,1.858c0.84,0,1.469-0.79,1.469-1.879
		c0-0.819-0.409-1.858-1.449-1.858S964.907,293.727,964.907,294.646z"/>
	<path d="M969.738,296.156c0.26,0.17,0.719,0.35,1.159,0.35c0.64,0,0.939-0.32,0.939-0.72c0-0.419-0.25-0.649-0.899-0.89
		c-0.869-0.31-1.279-0.789-1.279-1.369c0-0.779,0.629-1.418,1.669-1.418c0.489,0,0.919,0.14,1.189,0.3l-0.22,0.64
		c-0.189-0.119-0.54-0.279-0.99-0.279c-0.521,0-0.81,0.299-0.81,0.66c0,0.399,0.289,0.579,0.92,0.818
		c0.84,0.32,1.27,0.74,1.27,1.459c0,0.85-0.659,1.449-1.81,1.449c-0.529,0-1.021-0.131-1.359-0.33L969.738,296.156z"/>
	<path d="M974.797,290.857c0.011,0.301-0.209,0.541-0.56,0.541c-0.311,0-0.53-0.24-0.53-0.541c0-0.31,0.229-0.549,0.551-0.549
		C974.588,290.309,974.797,290.549,974.797,290.857z M973.818,297.055v-4.837h0.879v4.837H973.818z"/>
	<path d="M977.217,290.829v1.39h1.26v0.67h-1.26v2.607c0,0.6,0.17,0.939,0.66,0.939c0.229,0,0.399-0.031,0.51-0.061l0.04,0.66
		c-0.17,0.07-0.44,0.119-0.78,0.119c-0.409,0-0.739-0.129-0.949-0.369c-0.25-0.26-0.34-0.689-0.34-1.26v-2.637h-0.75v-0.67h0.75
		v-1.16L977.217,290.829z"/>
	<path d="M980.447,290.857c0.011,0.301-0.21,0.541-0.56,0.541c-0.311,0-0.53-0.24-0.53-0.541c0-0.31,0.23-0.549,0.551-0.549
		C980.237,290.309,980.447,290.549,980.447,290.857z M979.468,297.055v-4.837h0.88v4.837H979.468z"/>
	<path d="M986.186,294.598c0,1.789-1.24,2.567-2.408,2.567c-1.311,0-2.318-0.959-2.318-2.489c0-1.619,1.06-2.568,2.397-2.568
		C985.245,292.107,986.186,293.117,986.186,294.598z M982.348,294.646c0,1.06,0.609,1.858,1.469,1.858
		c0.84,0,1.469-0.79,1.469-1.879c0-0.819-0.408-1.858-1.448-1.858S982.348,293.727,982.348,294.646z"/>
	<path d="M987.297,293.527c0-0.5-0.011-0.91-0.039-1.311h0.778l0.051,0.801h0.021c0.239-0.461,0.799-0.91,1.599-0.91
		c0.671,0,1.709,0.399,1.709,2.059v2.889h-0.88v-2.789c0-0.779-0.289-1.43-1.119-1.43c-0.58,0-1.028,0.41-1.18,0.898
		c-0.039,0.111-0.06,0.261-0.06,0.41v2.908h-0.88V293.527L987.297,293.527z"/>
	<path d="M992.728,296.156c0.26,0.17,0.72,0.35,1.159,0.35c0.64,0,0.938-0.32,0.938-0.72c0-0.419-0.25-0.649-0.898-0.89
		c-0.87-0.31-1.279-0.789-1.279-1.369c0-0.779,0.63-1.418,1.669-1.418c0.49,0,0.92,0.14,1.189,0.3l-0.221,0.64
		c-0.189-0.119-0.539-0.279-0.988-0.279c-0.521,0-0.812,0.299-0.812,0.66c0,0.399,0.291,0.579,0.92,0.818
		c0.841,0.32,1.271,0.74,1.271,1.459c0,0.85-0.66,1.449-1.81,1.449c-0.529,0-1.02-0.131-1.358-0.33L992.728,296.156z"/>
</g>
<g>
	<path d="M965.2,325.701c0.343,0.037,0.738,0,1.278-0.053c0.919-0.127,1.782-0.504,2.448-1.135c0.774-0.701,1.333-1.729,1.549-3.115
		h-0.054c-0.648,0.793-1.585,1.26-2.756,1.26c-2.106,0-3.456-1.584-3.456-3.582c0-2.215,1.603-4.158,3.997-4.158
		c2.396,0,3.87,1.943,3.87,4.932c0,2.576-0.863,4.375-2.017,5.492c-0.9,0.883-2.143,1.422-3.402,1.566
		c-0.576,0.09-1.081,0.107-1.459,0.09L965.2,325.701L965.2,325.701z M965.777,318.969c0,1.457,0.883,2.482,2.25,2.482
		c1.063,0,1.892-0.521,2.305-1.223c0.092-0.145,0.146-0.324,0.146-0.576c0-2-0.738-3.529-2.396-3.529
		C966.731,316.123,965.777,317.313,965.777,318.969z"/>
	<path d="M980.503,316.447h-4.467l-0.448,3.006c0.27-0.035,0.521-0.07,0.953-0.07c0.899,0,1.801,0.197,2.521,0.629
		c0.918,0.521,1.674,1.531,1.674,3.008c0,2.287-1.817,3.998-4.356,3.998c-1.277,0-2.357-0.361-2.916-0.721l0.396-1.207
		c0.486,0.289,1.439,0.648,2.502,0.648c1.494,0,2.773-0.973,2.773-2.539c-0.019-1.512-1.027-2.594-3.367-2.594
		c-0.666,0-1.188,0.072-1.621,0.127l0.757-5.619h5.601V316.447L980.503,316.447z"/>
	<path d="M987.648,326.818v-3.188h-5.438v-1.043l5.221-7.473h1.711v7.273h1.639v1.242h-1.639v3.188H987.648z M987.648,322.389
		v-3.906c0-0.613,0.019-1.225,0.054-1.836h-0.054c-0.36,0.684-0.647,1.188-0.973,1.729l-2.863,3.979v0.037h3.836V322.389z"/>
</g>
<path fill="#61B222" d="M307.891,55.39c-0.19-29.38-23.936-53.14-53.365-53.14c-29.431,0-53.487,23.76-53.678,53.14
	c-0.01,0.06-0.197,0.12-0.197,0.18v0.18c0,0.35,0.25,0.7,0.271,1.04c0.54,29.069,24.404,52.46,53.604,52.46
	c29.199,0,52.752-23.391,53.292-52.46c0.021-0.34-0.167-0.69-0.167-1.04v-0.18C307.65,55.51,307.9,55.45,307.891,55.39z
	 M254.65,17.85c20.811,0,37.709,16.78,37.899,37.54c0,0.33,0,0.66-0.01,0.98c-0.33,20.64-17.17,37.28-37.891,37.28
	s-37.561-16.641-37.891-37.28c-0.01-0.32-0.01-0.65-0.01-0.98C216.939,34.63,233.84,17.85,254.65,17.85z"/>
<g>
	<path d="M1091.348,285.996c0.391,0.24,0.96,0.439,1.56,0.439c0.891,0,1.409-0.47,1.409-1.148c0-0.63-0.358-0.989-1.27-1.339
		c-1.101-0.39-1.779-0.96-1.779-1.909c0-1.05,0.87-1.829,2.18-1.829c0.689,0,1.189,0.16,1.488,0.33l-0.239,0.71
		c-0.22-0.12-0.669-0.32-1.278-0.32c-0.919,0-1.27,0.549-1.27,1.01c0,0.629,0.409,0.938,1.338,1.299
		c1.142,0.439,1.721,0.988,1.721,1.979c0,1.04-0.771,1.939-2.358,1.939c-0.65,0-1.359-0.19-1.719-0.43L1091.348,285.996z"/>
	<path d="M1100.807,284.598c0,1.789-1.24,2.567-2.409,2.567c-1.31,0-2.319-0.959-2.319-2.489c0-1.619,1.062-2.568,2.398-2.568
		C1099.865,282.107,1100.807,283.117,1100.807,284.598z M1096.969,284.646c0,1.06,0.608,1.858,1.469,1.858
		c0.84,0,1.469-0.79,1.469-1.879c0-0.819-0.41-1.858-1.449-1.858C1097.419,282.768,1096.969,283.727,1096.969,284.646z"/>
	<path d="M1105.966,285.736c0,0.5,0.011,0.938,0.04,1.318h-0.779l-0.051-0.789h-0.021c-0.229,0.389-0.74,0.898-1.6,0.898
		c-0.761,0-1.668-0.42-1.668-2.119v-2.829h0.879v2.679c0,0.92,0.279,1.539,1.08,1.539c0.589,0,0.999-0.41,1.157-0.8
		c0.052-0.13,0.08-0.29,0.08-0.45v-2.968h0.881L1105.966,285.736L1105.966,285.736z"/>
	<path d="M1107.428,283.727c0-0.57-0.01-1.06-0.04-1.509h0.77l0.03,0.95h0.04c0.22-0.65,0.749-1.061,1.339-1.061
		c0.1,0,0.17,0.011,0.25,0.031v0.829c-0.09-0.021-0.18-0.03-0.3-0.03c-0.62,0-1.061,0.471-1.179,1.129
		c-0.021,0.121-0.041,0.261-0.041,0.41v2.58h-0.869V283.727z"/>
	<path d="M1114.046,286.875c-0.229,0.12-0.739,0.279-1.391,0.279c-1.459,0-2.407-0.989-2.407-2.469c0-1.488,1.02-2.568,2.599-2.568
		c0.52,0,0.979,0.13,1.22,0.25l-0.201,0.68c-0.209-0.119-0.539-0.23-1.019-0.23c-1.109,0-1.709,0.82-1.709,1.83
		c0,1.119,0.72,1.809,1.679,1.809c0.5,0,0.83-0.13,1.08-0.24L1114.046,286.875z"/>
	<path d="M1115.508,284.796c0.02,1.188,0.779,1.679,1.658,1.679c0.631,0,1.01-0.109,1.34-0.25l0.149,0.631
		c-0.311,0.14-0.84,0.299-1.608,0.299c-1.489,0-2.379-0.979-2.379-2.438c0-1.459,0.858-2.608,2.269-2.608
		c1.579,0,1.999,1.39,1.999,2.279c0,0.18-0.02,0.32-0.029,0.41L1115.508,284.796L1115.508,284.796z M1118.086,284.167
		c0.01-0.56-0.23-1.431-1.22-1.431c-0.891,0-1.278,0.82-1.35,1.431H1118.086z"/>
	<path d="M1124.204,279.959v5.848c0,0.43,0.011,0.92,0.04,1.25h-0.79l-0.038-0.84h-0.021c-0.27,0.54-0.859,0.949-1.649,0.949
		c-1.169,0-2.067-0.988-2.067-2.458c-0.01-1.608,0.988-2.599,2.169-2.599c0.739,0,1.239,0.35,1.459,0.74h0.021v-2.89
		L1124.204,279.959L1124.204,279.959z M1123.325,284.188c0-0.11-0.011-0.26-0.041-0.371c-0.129-0.56-0.608-1.02-1.27-1.02
		c-0.908,0-1.448,0.801-1.448,1.869c0,0.979,0.479,1.789,1.429,1.789c0.591,0,1.13-0.391,1.289-1.049
		c0.03-0.12,0.041-0.24,0.041-0.381V284.188L1123.325,284.188z"/>
</g>
<g>
	<path d="M1091.084,325.701c0.343,0.037,0.737,0,1.278-0.053c0.918-0.127,1.782-0.504,2.448-1.135
		c0.774-0.701,1.333-1.729,1.548-3.115h-0.053c-0.648,0.793-1.585,1.26-2.756,1.26c-2.105,0-3.457-1.584-3.457-3.582
		c0-2.215,1.604-4.158,3.998-4.158c2.394,0,3.871,1.943,3.871,4.932c0,2.576-0.865,4.375-2.019,5.492
		c-0.899,0.883-2.143,1.422-3.401,1.566c-0.576,0.09-1.08,0.107-1.459,0.09L1091.084,325.701L1091.084,325.701z M1091.659,318.969
		c0,1.457,0.884,2.482,2.251,2.482c1.063,0,1.892-0.521,2.306-1.223c0.091-0.145,0.144-0.324,0.144-0.576
		c0-2-0.738-3.529-2.395-3.529C1092.615,316.123,1091.659,317.313,1091.659,318.969z"/>
	<path d="M1099.256,323.848c0-1.477,0.883-2.521,2.321-3.133l-0.018-0.055c-1.297-0.611-1.854-1.621-1.854-2.629
		c0-1.854,1.566-3.113,3.619-3.113c2.27,0,3.403,1.422,3.403,2.881c0,0.988-0.486,2.051-1.927,2.736v0.055
		c1.458,0.574,2.357,1.602,2.357,3.023c0,2.035-1.746,3.404-3.979,3.404C1100.732,327.018,1099.256,325.559,1099.256,323.848z
		 M1105.559,323.775c0-1.422-0.99-2.105-2.576-2.557c-1.367,0.395-2.105,1.295-2.105,2.412c-0.055,1.188,0.847,2.232,2.341,2.232
		C1104.64,325.863,1105.559,324.982,1105.559,323.775z M1101.2,317.924c0,1.17,0.882,1.801,2.232,2.162
		c1.008-0.344,1.782-1.064,1.782-2.125c0-0.938-0.559-1.908-1.98-1.908C1101.921,316.051,1101.2,316.916,1101.2,317.924z"/>
	<path d="M1113.531,326.818v-3.188h-5.438v-1.043l5.222-7.473h1.71v7.273h1.64v1.242h-1.64v3.188H1113.531z M1113.531,322.389
		v-3.906c0-0.613,0.019-1.225,0.056-1.836h-0.056c-0.358,0.684-0.647,1.188-0.973,1.729l-2.862,3.979v0.037h3.835V322.389z"/>
	<path d="M1124.854,316.447h-4.465l-0.45,3.006c0.271-0.035,0.522-0.07,0.954-0.07c0.9,0,1.801,0.197,2.521,0.629
		c0.918,0.521,1.674,1.531,1.674,3.008c0,2.287-1.818,3.998-4.357,3.998c-1.278,0-2.358-0.361-2.916-0.721l0.396-1.207
		c0.485,0.289,1.439,0.648,2.503,0.648c1.493,0,2.771-0.973,2.771-2.539c-0.019-1.512-1.026-2.594-3.366-2.594
		c-0.667,0-1.188,0.072-1.621,0.127l0.757-5.619h5.6L1124.854,316.447L1124.854,316.447z"/>
</g>
<path fill="#F79B16" d="M437.94,55.39C437.75,26.01,414.23,2.25,384.8,2.25c-29.432,0-53.825,23.76-54.016,53.14
	c-0.011,0.06-0.535,0.12-0.535,0.18v0.18c0,0.35,0.7,0.7,0.721,1.04c0.539,29.069,24.629,52.46,53.83,52.46
	c29.198,0,52.414-23.391,52.955-52.46c0.02-0.34-0.507-0.69-0.507-1.04v-0.18C437.25,55.51,437.949,55.45,437.94,55.39z
	 M385.15,17.85c20.811,0,37.709,16.78,37.899,37.54c0,0.33,0,0.66-0.011,0.98c-0.329,20.64-17.17,37.28-37.89,37.28
	c-20.721,0-37.561-16.641-37.891-37.28c-0.01-0.32-0.01-0.65-0.01-0.98C347.439,34.63,364.34,17.85,385.15,17.85z"/>
<g>
	<path d="M1220.303,277.32v6.736h-0.869v-6.736H1220.303z"/>
	<path d="M1221.893,280.527c0-0.5-0.01-0.909-0.039-1.309h0.779l0.05,0.799h0.021c0.239-0.459,0.8-0.91,1.6-0.91
		c0.67,0,1.709,0.4,1.709,2.06v2.888h-0.88v-2.789c0-0.779-0.289-1.429-1.119-1.429c-0.58,0-1.029,0.41-1.181,0.899
		c-0.038,0.109-0.06,0.26-0.06,0.41v2.908h-0.88V280.527z"/>
	<path d="M1228.463,277.83v1.389h1.259v0.67h-1.259v2.608c0,0.601,0.17,0.938,0.658,0.938c0.229,0,0.399-0.029,0.511-0.06l0.04,0.66
		c-0.17,0.069-0.439,0.12-0.779,0.12c-0.41,0-0.74-0.131-0.949-0.37c-0.25-0.261-0.34-0.688-0.34-1.259v-2.639h-0.75v-0.67h0.75
		v-1.158L1228.463,277.83z"/>
	<path d="M1231.143,281.797c0.02,1.189,0.779,1.68,1.659,1.68c0.63,0,1.009-0.11,1.339-0.25l0.15,0.629
		c-0.312,0.141-0.841,0.301-1.609,0.301c-1.488,0-2.379-0.979-2.379-2.439c0-1.459,0.858-2.607,2.27-2.607
		c1.578,0,1.998,1.389,1.998,2.279c0,0.18-0.02,0.319-0.029,0.409L1231.143,281.797L1231.143,281.797z M1233.721,281.168
		c0.011-0.561-0.229-1.43-1.219-1.43c-0.891,0-1.279,0.82-1.351,1.43H1233.721z"/>
	<path d="M1235.661,280.729c0-0.57-0.01-1.061-0.038-1.51h0.77l0.029,0.95h0.041c0.219-0.649,0.749-1.06,1.339-1.06
		c0.1,0,0.169,0.01,0.249,0.029v0.83c-0.09-0.02-0.18-0.029-0.299-0.029c-0.62,0-1.062,0.47-1.181,1.129
		c-0.02,0.119-0.04,0.26-0.04,0.41v2.578h-0.869L1235.661,280.729L1235.661,280.729z"/>
	<path d="M1239.522,279.219l0.95,2.719c0.159,0.439,0.289,0.84,0.389,1.24h0.03c0.109-0.4,0.25-0.801,0.41-1.24l0.938-2.719h0.919
		l-1.897,4.838h-0.84l-1.839-4.838H1239.522z"/>
	<path d="M1244.973,277.859c0.01,0.3-0.211,0.539-0.562,0.539c-0.31,0-0.528-0.239-0.528-0.539c0-0.311,0.229-0.549,0.55-0.549
		C1244.762,277.311,1244.973,277.55,1244.973,277.859z M1243.991,284.057v-4.838h0.88v4.838H1243.991z"/>
	<path d="M1246.822,281.797c0.021,1.189,0.779,1.68,1.659,1.68c0.63,0,1.009-0.11,1.339-0.25l0.15,0.629
		c-0.312,0.141-0.84,0.301-1.609,0.301c-1.487,0-2.379-0.979-2.379-2.439c0-1.459,0.859-2.607,2.271-2.607
		c1.578,0,1.998,1.389,1.998,2.279c0,0.18-0.021,0.319-0.029,0.409L1246.822,281.797L1246.822,281.797z M1249.4,281.168
		c0.011-0.561-0.229-1.43-1.219-1.43c-0.89,0-1.279,0.82-1.351,1.43H1249.4z"/>
	<path d="M1251.692,279.219l0.641,2.459c0.14,0.539,0.27,1.039,0.358,1.539h0.03c0.109-0.49,0.271-1.01,0.43-1.529l0.79-2.469h0.739
		l0.749,2.42c0.18,0.58,0.32,1.088,0.43,1.578h0.031c0.079-0.49,0.209-1,0.369-1.568l0.688-2.43h0.869l-1.559,4.838h-0.8
		l-0.739-2.31c-0.17-0.54-0.311-1.021-0.43-1.589h-0.021c-0.121,0.58-0.271,1.08-0.439,1.6l-0.78,2.299h-0.799l-1.459-4.838
		H1251.692L1251.692,279.219z"/>
	<path d="M1236.088,287.859c0.01,0.3-0.211,0.539-0.562,0.539c-0.31,0-0.529-0.239-0.529-0.539c0-0.311,0.23-0.549,0.551-0.549
		C1235.877,287.311,1236.088,287.55,1236.088,287.859z M1235.107,294.057v-4.838h0.88v4.838H1235.107z"/>
	<path d="M1237.447,290.527c0-0.5-0.01-0.909-0.039-1.309h0.779l0.05,0.799h0.021c0.239-0.459,0.799-0.91,1.599-0.91
		c0.67,0,1.709,0.4,1.709,2.06v2.888h-0.88v-2.789c0-0.779-0.289-1.429-1.119-1.429c-0.58,0-1.029,0.41-1.18,0.899
		c-0.039,0.109-0.061,0.26-0.061,0.41v2.908h-0.88V290.527z"/>
	<path d="M1221.357,297.4c0.42-0.07,0.97-0.131,1.67-0.131c0.859,0,1.488,0.201,1.89,0.561c0.369,0.32,0.59,0.811,0.59,1.408
		c0,0.611-0.181,1.09-0.521,1.439c-0.461,0.49-1.21,0.739-2.06,0.739c-0.26,0-0.499-0.011-0.7-0.06v2.699h-0.869V297.4z
		 M1222.227,300.648c0.189,0.049,0.431,0.07,0.721,0.07c1.049,0,1.688-0.51,1.688-1.439c0-0.891-0.63-1.319-1.589-1.319
		c-0.381,0-0.67,0.03-0.82,0.069V300.648z"/>
	<path d="M1226.488,300.729c0-0.57-0.01-1.061-0.041-1.51h0.771l0.031,0.95h0.038c0.222-0.649,0.75-1.06,1.341-1.06
		c0.1,0,0.17,0.01,0.25,0.029v0.83c-0.091-0.02-0.181-0.029-0.302-0.029c-0.619,0-1.059,0.47-1.179,1.129
		c-0.021,0.119-0.04,0.26-0.04,0.41v2.578h-0.869V300.729L1226.488,300.729z"/>
	<path d="M1234.034,301.598c0,1.789-1.238,2.568-2.407,2.568c-1.311,0-2.318-0.959-2.318-2.489c0-1.618,1.059-2.567,2.398-2.567
		C1233.096,299.109,1234.034,300.118,1234.034,301.598z M1230.197,301.646c0,1.061,0.609,1.859,1.47,1.859
		c0.84,0,1.47-0.79,1.47-1.879c0-0.818-0.409-1.859-1.449-1.859C1230.647,299.77,1230.197,300.729,1230.197,301.646z"/>
	<path d="M1239.315,299.219c-0.021,0.35-0.04,0.74-0.04,1.329v2.81c0,1.108-0.221,1.789-0.688,2.209
		c-0.472,0.438-1.149,0.58-1.761,0.58c-0.579,0-1.219-0.141-1.608-0.4l0.221-0.669c0.32,0.2,0.818,0.38,1.419,0.38
		c0.899,0,1.56-0.471,1.56-1.689v-0.539h-0.02c-0.271,0.449-0.79,0.81-1.54,0.81c-1.199,0-2.06-1.021-2.06-2.358
		c0-1.64,1.069-2.568,2.18-2.568c0.84,0,1.299,0.439,1.51,0.839h0.02l0.041-0.729h0.768V299.219z M1238.406,301.128
		c0-0.149-0.01-0.28-0.051-0.399c-0.16-0.511-0.59-0.931-1.229-0.931c-0.84,0-1.438,0.71-1.438,1.829c0,0.95,0.479,1.739,1.43,1.739
		c0.539,0,1.029-0.341,1.22-0.9c0.05-0.149,0.069-0.319,0.069-0.47V301.128z"/>
	<path d="M1240.678,300.729c0-0.57-0.01-1.061-0.041-1.51h0.77l0.031,0.95h0.039c0.221-0.649,0.75-1.06,1.34-1.06
		c0.1,0,0.17,0.01,0.25,0.029v0.83c-0.09-0.02-0.18-0.029-0.301-0.029c-0.619,0-1.06,0.47-1.18,1.129
		c-0.021,0.119-0.039,0.26-0.039,0.41v2.578h-0.869V300.729L1240.678,300.729z"/>
	<path d="M1244.337,301.797c0.021,1.189,0.779,1.68,1.659,1.68c0.63,0,1.01-0.11,1.34-0.25l0.148,0.629
		c-0.31,0.141-0.84,0.301-1.608,0.301c-1.489,0-2.378-0.979-2.378-2.439c0-1.459,0.858-2.607,2.268-2.607c1.58,0,2,1.389,2,2.279
		c0,0.18-0.021,0.319-0.03,0.409L1244.337,301.797L1244.337,301.797z M1246.916,301.168c0.01-0.561-0.23-1.43-1.221-1.43
		c-0.89,0-1.279,0.82-1.349,1.43H1246.916z"/>
	<path d="M1248.737,303.157c0.26,0.17,0.721,0.35,1.159,0.35c0.64,0,0.939-0.319,0.939-0.72c0-0.419-0.25-0.648-0.899-0.889
		c-0.87-0.311-1.279-0.791-1.279-1.369c0-0.78,0.63-1.42,1.669-1.42c0.49,0,0.92,0.141,1.189,0.301l-0.22,0.64
		c-0.19-0.12-0.541-0.28-0.989-0.28c-0.521,0-0.812,0.301-0.812,0.66c0,0.4,0.291,0.58,0.92,0.819
		c0.84,0.319,1.271,0.739,1.271,1.459c0,0.851-0.66,1.449-1.81,1.449c-0.529,0-1.02-0.13-1.358-0.33L1248.737,303.157z"/>
	<path d="M1252.697,303.157c0.261,0.17,0.72,0.35,1.159,0.35c0.641,0,0.939-0.319,0.939-0.72c0-0.419-0.25-0.648-0.899-0.889
		c-0.869-0.311-1.279-0.791-1.279-1.369c0-0.78,0.629-1.42,1.669-1.42c0.489,0,0.919,0.141,1.189,0.301l-0.221,0.64
		c-0.188-0.12-0.539-0.28-0.989-0.28c-0.521,0-0.81,0.301-0.81,0.66c0,0.4,0.289,0.58,0.919,0.819
		c0.841,0.319,1.271,0.739,1.271,1.459c0,0.851-0.659,1.449-1.811,1.449c-0.528,0-1.02-0.13-1.358-0.33L1252.697,303.157z"/>
</g>
<g>
	<path d="M1224.105,316.592h-0.036l-2.034,1.098l-0.307-1.207l2.557-1.369h1.352v11.705h-1.53L1224.105,316.592L1224.105,316.592z"
		/>
	<path d="M1236.579,316.23c-0.323-0.018-0.737,0-1.188,0.072c-2.485,0.414-3.799,2.232-4.069,4.16h0.056
		c0.558-0.738,1.528-1.352,2.825-1.352c2.07,0,3.529,1.494,3.529,3.781c0,2.143-1.459,4.123-3.889,4.123
		c-2.504,0-4.143-1.945-4.143-4.988c0-2.305,0.828-4.123,1.98-5.273c0.972-0.955,2.27-1.549,3.745-1.73
		c0.469-0.072,0.864-0.09,1.151-0.09L1236.579,316.23L1236.579,316.23z M1236.13,322.982c0-1.674-0.954-2.682-2.413-2.682
		c-0.953,0-1.836,0.594-2.269,1.439c-0.108,0.18-0.181,0.414-0.181,0.701c0.036,1.928,0.919,3.35,2.575,3.35
		C1235.211,325.793,1236.13,324.658,1236.13,322.982z"/>
	<path d="M1246.732,315.115v1.043l-5.096,10.66h-1.64l5.078-10.354v-0.035h-5.727v-1.314H1246.732z"/>
	<path d="M1255.354,316.447h-4.465l-0.45,3.006c0.271-0.035,0.522-0.07,0.954-0.07c0.9,0,1.801,0.197,2.521,0.629
		c0.918,0.521,1.674,1.531,1.674,3.008c0,2.287-1.818,3.998-4.357,3.998c-1.278,0-2.358-0.361-2.916-0.721l0.396-1.207
		c0.485,0.289,1.439,0.648,2.503,0.648c1.493,0,2.771-0.973,2.771-2.539c-0.019-1.512-1.026-2.594-3.366-2.594
		c-0.667,0-1.188,0.072-1.621,0.127l0.757-5.619h5.6L1255.354,316.447L1255.354,316.447z"/>
</g>
<path fill="#C42BCC" d="M785.724,194.641c-0.191-29.381-23.687-53.141-53.115-53.141c-29.431,0-53.863,23.76-54.053,53.141
	c-0.01,0.06-0.572,0.119-0.572,0.18V195c0,0.35,0.75,0.7,0.771,1.04c0.54,29.069,24.653,52.46,53.854,52.46
	c29.199,0,52.377-23.391,52.917-52.46c0.021-0.34-0.542-0.69-0.542-1.04v-0.18C784.983,194.76,785.733,194.7,785.724,194.641z
	 M732.983,157.1c20.811,0,37.709,16.78,37.899,37.541c0,0.33,0,0.659-0.011,0.979c-0.329,20.64-17.17,37.28-37.89,37.28
	c-20.721,0-37.561-16.641-37.891-37.28c-0.011-0.32-0.011-0.649-0.011-0.979C695.272,173.88,712.173,157.1,732.983,157.1z"/>
<g>
	<path d="M1359.551,283.617c0,2.318-1.41,3.548-3.129,3.548c-1.779,0-3.028-1.379-3.028-3.418c0-2.14,1.329-3.538,3.128-3.538
		C1358.361,280.209,1359.551,281.618,1359.551,283.617z M1354.322,283.727c0,1.439,0.78,2.729,2.149,2.729
		c1.38,0,2.159-1.271,2.159-2.798c0-1.34-0.699-2.739-2.148-2.739C1355.043,280.918,1354.322,282.248,1354.322,283.727z"/>
	<path d="M1363.801,287.055v-4.166h-2.028v4.166h-0.87v-4.166h-0.679v-0.671h0.679v-0.159c0-0.681,0.16-1.271,0.541-1.649
		c0.279-0.28,0.681-0.45,1.219-0.45c0.279,0,0.539,0.09,0.689,0.17l-0.18,0.65c-0.131-0.061-0.32-0.12-0.521-0.12
		c-0.688,0-0.88,0.59-0.88,1.349v0.21h2.028v-0.229c0-0.68,0.159-1.299,0.569-1.689c0.33-0.32,0.771-0.449,1.17-0.449
		c0.319,0,0.579,0.069,0.749,0.139l-0.109,0.68c-0.141-0.061-0.311-0.109-0.569-0.109c-0.739,0-0.938,0.659-0.938,1.398v0.26h1.169
		v0.67h-1.158v4.168H1363.801L1363.801,287.055z"/>
	<path d="M1367.004,284.796c0.02,1.188,0.778,1.679,1.657,1.679c0.632,0,1.011-0.109,1.341-0.25l0.149,0.631
		c-0.311,0.14-0.84,0.299-1.608,0.299c-1.489,0-2.38-0.979-2.38-2.438c0-1.459,0.859-2.608,2.27-2.608
		c1.579,0,1.999,1.39,1.999,2.279c0,0.18-0.021,0.32-0.029,0.41L1367.004,284.796L1367.004,284.796z M1369.582,284.167
		c0.01-0.56-0.23-1.431-1.22-1.431c-0.891,0-1.278,0.82-1.35,1.431H1369.582z"/>
	<path d="M1371.523,283.727c0-0.57-0.01-1.06-0.04-1.509h0.77l0.03,0.95h0.04c0.221-0.65,0.749-1.061,1.339-1.061
		c0.101,0,0.171,0.011,0.25,0.031v0.829c-0.09-0.021-0.18-0.03-0.3-0.03c-0.62,0-1.06,0.471-1.179,1.129
		c-0.021,0.121-0.041,0.261-0.041,0.41v2.58h-0.869V283.727z"/>
	<path d="M1375.184,284.796c0.02,1.188,0.779,1.679,1.658,1.679c0.631,0,1.01-0.109,1.34-0.25l0.149,0.631
		c-0.311,0.14-0.84,0.299-1.608,0.299c-1.489,0-2.379-0.979-2.379-2.438c0-1.459,0.858-2.608,2.269-2.608
		c1.579,0,1.999,1.39,1.999,2.279c0,0.18-0.02,0.32-0.029,0.41L1375.184,284.796L1375.184,284.796z M1377.762,284.167
		c0.01-0.56-0.23-1.431-1.219-1.431c-0.892,0-1.279,0.82-1.351,1.431H1377.762z"/>
	<path d="M1383.881,279.959v5.848c0,0.43,0.01,0.92,0.04,1.25h-0.79l-0.039-0.84h-0.021c-0.27,0.54-0.858,0.949-1.648,0.949
		c-1.169,0-2.068-0.988-2.068-2.458c-0.01-1.608,0.989-2.599,2.169-2.599c0.739,0,1.239,0.35,1.459,0.74h0.021v-2.89
		L1383.881,279.959L1383.881,279.959z M1383.002,284.188c0-0.11-0.012-0.26-0.041-0.371c-0.13-0.56-0.609-1.02-1.271-1.02
		c-0.908,0-1.448,0.801-1.448,1.869c0,0.979,0.479,1.789,1.43,1.789c0.59,0,1.13-0.391,1.288-1.049
		c0.03-0.12,0.041-0.24,0.041-0.381L1383.002,284.188L1383.002,284.188z"/>
</g>
<g>
	<path d="M1359.223,316.592h-0.037l-2.034,1.098l-0.306-1.207l2.557-1.369h1.35v11.705h-1.528L1359.223,316.592L1359.223,316.592z"
		/>
	<path d="M1365.017,326.818v-0.973l1.243-1.207c2.988-2.844,4.339-4.357,4.356-6.121c0-1.189-0.575-2.287-2.322-2.287
		c-1.063,0-1.944,0.541-2.485,0.99l-0.504-1.117c0.811-0.684,1.963-1.188,3.313-1.188c2.521,0,3.584,1.729,3.584,3.402
		c0,2.162-1.565,3.908-4.032,6.285l-0.938,0.863v0.037h5.257v1.313h-7.472V326.818z"/>
	<path d="M1381.85,315.115v1.043l-5.096,10.66h-1.64l5.077-10.354v-0.035h-5.726v-1.314H1381.85z"/>
</g>
<g>
	<rect x="-276.845" y="-59.299" fill="none" width="42.667" height="20.667"/>
	<path d="M-263.584-58.935h0.87v4.507c0,1.789-0.879,2.339-2.039,2.339c-0.32,0-0.709-0.07-0.929-0.16l0.13-0.71
		c0.18,0.07,0.439,0.13,0.729,0.13c0.78,0,1.239-0.35,1.239-1.669V-58.935z"/>
	<path d="M-260.174-54.318l-0.7,2.119h-0.899l2.289-6.736h1.05l2.299,6.736h-0.931l-0.719-2.119H-260.174z M-257.965-54.997
		l-0.66-1.939c-0.15-0.44-0.25-0.84-0.35-1.229h-0.021c-0.1,0.4-0.21,0.81-0.34,1.219l-0.66,1.949H-257.965z"/>
	<path d="M-254.194-52.199l-2.198-6.736h0.938l1.049,3.318c0.29,0.909,0.54,1.729,0.721,2.519h0.02
		c0.19-0.78,0.47-1.629,0.771-2.509l1.139-3.328h0.93l-2.409,6.736H-254.194L-254.194-52.199z"/>
	<path d="M-249.573-54.318l-0.7,2.119h-0.898l2.289-6.736h1.049l2.299,6.736h-0.93l-0.719-2.119H-249.573z M-247.365-54.997
		l-0.66-1.939c-0.149-0.44-0.25-0.84-0.35-1.229h-0.02c-0.101,0.4-0.21,0.81-0.341,1.219l-0.659,1.949H-247.365z"/>
</g>
<g>
	<rect x="-276.178" y="-27.966" fill="none" width="42.667" height="20.667"/>
	<path d="M-272.17-18.026v-0.756l0.966-0.938c2.325-2.213,3.376-3.391,3.391-4.764c0-0.924-0.448-1.778-1.808-1.778
		c-0.826,0-1.513,0.42-1.933,0.771l-0.393-0.869c0.63-0.531,1.527-0.924,2.577-0.924c1.961,0,2.788,1.346,2.788,2.647
		c0,1.681-1.219,3.04-3.138,4.89l-0.729,0.672v0.027h4.09v1.021H-272.17z"/>
	<path d="M-258.936-22.676c0,3.097-1.148,4.806-3.166,4.806c-1.779,0-2.984-1.668-3.013-4.68c0-3.055,1.316-4.734,3.166-4.734
		C-260.03-27.284-258.936-25.575-258.936-22.676z M-263.882-22.536c0,2.367,0.729,3.713,1.849,3.713
		c1.262,0,1.863-1.472,1.863-3.797c0-2.24-0.574-3.711-1.849-3.711C-263.096-26.332-263.882-25.015-263.882-22.536z"/>
	<path d="M-253.997-18.026v-2.479h-4.229v-0.813l4.063-5.813h1.331v5.659h1.275v0.966h-1.275v2.479H-253.997L-253.997-18.026z
		 M-253.997-21.471v-3.04c0-0.477,0.014-0.953,0.042-1.43h-0.042c-0.28,0.533-0.504,0.925-0.756,1.346l-2.227,3.095v0.028
		L-253.997-21.471L-253.997-21.471z"/>
	<path d="M-245.428-26.262c-0.252-0.015-0.574,0-0.924,0.056c-1.934,0.322-2.956,1.737-3.166,3.235h0.042
		c0.435-0.574,1.19-1.05,2.198-1.05c1.611,0,2.746,1.162,2.746,2.941c0,1.666-1.135,3.207-3.024,3.207
		c-1.947,0-3.223-1.513-3.223-3.88c0-1.793,0.646-3.208,1.541-4.104c0.757-0.742,1.766-1.205,2.914-1.344
		c0.364-0.057,0.672-0.07,0.896-0.07L-245.428-26.262L-245.428-26.262z M-245.779-21.009c0-1.303-0.742-2.087-1.877-2.087
		c-0.743,0-1.429,0.462-1.765,1.121c-0.084,0.14-0.14,0.321-0.14,0.546c0.027,1.499,0.714,2.605,2.003,2.605
		C-246.493-18.823-245.779-19.706-245.779-21.009z"/>
	<path d="M-238.247-26.262c-0.252-0.015-0.574,0-0.924,0.056c-1.933,0.322-2.956,1.737-3.166,3.235h0.042
		c0.435-0.574,1.191-1.05,2.199-1.05c1.61,0,2.746,1.162,2.746,2.941c0,1.666-1.136,3.207-3.025,3.207
		c-1.947,0-3.222-1.513-3.222-3.88c0-1.793,0.645-3.208,1.541-4.104c0.756-0.742,1.765-1.205,2.914-1.344
		c0.363-0.057,0.672-0.07,0.896-0.07L-238.247-26.262L-238.247-26.262z M-238.596-21.009c0-1.303-0.743-2.087-1.877-2.087
		c-0.743,0-1.43,0.462-1.766,1.121c-0.084,0.14-0.14,0.321-0.14,0.546c0.028,1.499,0.714,2.605,2.003,2.605
		C-239.31-18.823-238.596-19.706-238.596-21.009z"/>
</g>
<g>
	<rect x="-147.492" y="-59.716" fill="none" width="42.667" height="20.667"/>
	<path d="M-134.989-53.135c0-0.37,0.25-0.63,0.601-0.63c0.35,0,0.59,0.26,0.59,0.63c0,0.36-0.23,0.629-0.601,0.629
		C-134.749-52.506-134.989-52.776-134.989-53.135z"/>
	<path d="M-132.678-52.616v-6.736h0.949l2.158,3.408c0.5,0.79,0.891,1.499,1.209,2.189l0.021-0.01
		c-0.08-0.899-0.101-1.719-0.101-2.769v-2.818h0.82v6.736h-0.879l-2.139-3.418c-0.471-0.75-0.919-1.52-1.26-2.249l-0.029,0.01
		c0.05,0.85,0.069,1.659,0.069,2.778v2.878L-132.678-52.616L-132.678-52.616z"/>
	<path d="M-122.611-55.774h-2.619v2.429h2.919v0.729h-3.788v-6.736h3.638v0.729h-2.77v2.129h2.619L-122.611-55.774L-122.611-55.774z
		"/>
	<path d="M-119.74-58.612h-2.049v-0.74h4.987v0.74h-2.06v5.997h-0.879V-58.612z"/>
</g>
<g>
	<rect x="-146.825" y="-28.383" fill="none" width="42.667" height="20.667"/>
	<path d="M-140.14-26.399h-0.028l-1.583,0.854l-0.238-0.938l1.989-1.063h1.051v9.104h-1.19V-26.399z"/>
	<path d="M-135.341-19.856c0.351,0.224,1.163,0.574,2.017,0.574c1.583,0,2.073-1.01,2.06-1.766c-0.015-1.273-1.163-1.82-2.354-1.82
		h-0.687v-0.926h0.687c0.896,0,2.031-0.462,2.031-1.541c0-0.729-0.462-1.373-1.597-1.373c-0.729,0-1.43,0.322-1.821,0.604
		l-0.322-0.896c0.477-0.35,1.401-0.699,2.381-0.699c1.793,0,2.605,1.063,2.605,2.17c0,0.938-0.562,1.737-1.681,2.144v0.028
		c1.12,0.224,2.03,1.063,2.03,2.338c0,1.457-1.135,2.732-3.319,2.732c-1.022,0-1.919-0.322-2.367-0.617L-135.341-19.856z"/>
	<path d="M-122.542-27.548v0.813l-3.964,8.293h-1.274l3.95-8.055v-0.027h-4.455v-1.022L-122.542-27.548L-122.542-27.548z"/>
	<path d="M-117.461-18.442v-2.479h-4.23v-0.813l4.063-5.813h1.331v5.659h1.274v0.966h-1.274v2.479h-1.164V-18.442z M-117.461-21.888
		v-3.04c0-0.478,0.014-0.953,0.042-1.429h-0.042c-0.28,0.531-0.504,0.924-0.756,1.345l-2.228,3.095v0.028L-117.461-21.888
		L-117.461-21.888z"/>
	<path d="M-113.375-19.312c0.266,0.029,0.574,0,0.995-0.041c0.714-0.098,1.387-0.393,1.905-0.883
		c0.603-0.545,1.037-1.344,1.205-2.422h-0.042c-0.505,0.615-1.232,0.979-2.144,0.979c-1.639,0-2.688-1.231-2.688-2.788
		c0-1.723,1.247-3.234,3.109-3.234c1.863,0,3.012,1.512,3.012,3.838c0,2.002-0.672,3.403-1.568,4.271
		c-0.701,0.686-1.667,1.105-2.647,1.219c-0.447,0.069-0.841,0.084-1.135,0.069v-1.009H-113.375z M-112.927-24.55
		c0,1.135,0.687,1.934,1.751,1.934c0.826,0,1.471-0.406,1.793-0.953c0.07-0.112,0.112-0.252,0.112-0.449
		c0-1.555-0.574-2.744-1.863-2.744C-112.184-26.763-112.927-25.839-112.927-24.55z"/>
</g>
<g>
	<rect x="-65.821" y="-55.984" fill="none" width="42.667" height="20.667"/>
	<path d="M-52.731-51.842c-0.05-0.939-0.109-2.069-0.1-2.908h-0.03c-0.229,0.79-0.51,1.629-0.85,2.559l-1.189,3.268h-0.66
		l-1.089-3.208c-0.32-0.95-0.59-1.819-0.779-2.619h-0.02c-0.02,0.839-0.07,1.969-0.13,2.979l-0.18,2.888h-0.83l0.47-6.736h1.109
		l1.148,3.258c0.28,0.83,0.51,1.569,0.68,2.269h0.03c0.17-0.68,0.41-1.419,0.71-2.269l1.199-3.258h1.109l0.42,6.736h-0.851
		L-52.731-51.842z"/>
	<path d="M-50.009-53.721l1.06,2.858c0.11,0.32,0.229,0.7,0.31,0.99h0.021c0.09-0.29,0.189-0.66,0.31-1.01l0.959-2.838h0.93
		l-1.319,3.448c-0.63,1.659-1.06,2.509-1.659,3.028c-0.43,0.38-0.859,0.53-1.08,0.57l-0.22-0.74c0.22-0.07,0.51-0.21,0.77-0.43
		c0.24-0.19,0.54-0.53,0.74-0.979c0.04-0.09,0.07-0.16,0.07-0.21c0-0.05-0.021-0.12-0.061-0.23l-1.789-4.458L-50.009-53.721
		L-50.009-53.721z"/>
	<path d="M-45.708-49.943c0.39,0.24,0.959,0.44,1.559,0.44c0.891,0,1.409-0.47,1.409-1.149c0-0.63-0.36-0.989-1.27-1.339
		c-1.1-0.39-1.778-0.959-1.778-1.909c0-1.05,0.87-1.829,2.179-1.829c0.69,0,1.189,0.16,1.489,0.33l-0.24,0.71
		c-0.22-0.12-0.669-0.32-1.279-0.32c-0.919,0-1.27,0.549-1.27,1.009c0,0.63,0.41,0.939,1.339,1.299
		c1.14,0.44,1.719,0.989,1.719,1.979c0,1.04-0.77,1.939-2.358,1.939c-0.649,0-1.359-0.19-1.72-0.43L-45.708-49.943z"/>
	<path d="M-35.102-47.895c-0.909-0.24-1.799-0.509-2.579-0.779c-0.14-0.05-0.279-0.1-0.409-0.1c-1.6-0.06-2.969-1.239-2.969-3.408
		c0-2.159,1.319-3.548,3.139-3.548c1.829,0,3.019,1.419,3.019,3.408c0,1.729-0.8,2.838-1.919,3.228v0.04
		c0.669,0.17,1.399,0.33,1.969,0.43L-35.102-47.895z M-35.821-52.282c0-1.35-0.699-2.739-2.128-2.739
		c-1.469,0-2.189,1.359-2.179,2.818c-0.011,1.429,0.779,2.719,2.139,2.719C-36.601-49.484-35.821-50.743-35.821-52.282z"/>
	<path d="M-33.768-55.62h0.869v6.007h2.878v0.729h-3.748L-33.768-55.62L-33.768-55.62z"/>
</g>
<g>
	<rect x="-65.155" y="-24.651" fill="none" width="42.667" height="20.667"/>
	<path d="M-56.84-15.58c0.266,0.029,0.573,0,0.994-0.041c0.715-0.098,1.388-0.393,1.905-0.883c0.604-0.545,1.037-1.344,1.205-2.422
		h-0.042c-0.504,0.615-1.231,0.979-2.143,0.979c-1.64,0-2.689-1.231-2.689-2.788c0-1.723,1.247-3.234,3.11-3.234
		c1.862,0,3.012,1.512,3.012,3.838c0,2.002-0.672,3.403-1.569,4.271c-0.7,0.686-1.667,1.105-2.646,1.219
		c-0.448,0.069-0.841,0.084-1.135,0.069v-1.009H-56.84z M-56.392-20.818c0,1.135,0.688,1.934,1.751,1.934
		c0.826,0,1.472-0.406,1.793-0.953c0.07-0.112,0.112-0.252,0.112-0.449c0-1.555-0.574-2.744-1.863-2.744
		C-55.65-23.031-56.392-22.107-56.392-20.818z"/>
	<path d="M-44.322-19.361c0,3.096-1.148,4.805-3.166,4.805c-1.779,0-2.984-1.666-3.012-4.679c0-3.054,1.315-4.733,3.166-4.733
		C-45.415-23.968-44.322-22.261-44.322-19.361z M-49.267-19.22c0,2.366,0.729,3.711,1.85,3.711c1.261,0,1.862-1.471,1.862-3.795
		c0-2.242-0.573-3.713-1.849-3.713C-48.482-23.017-49.267-21.7-49.267-19.22z"/>
	<path d="M-37.995-22.947c-0.252-0.014-0.574,0-0.924,0.057c-1.934,0.321-2.956,1.736-3.166,3.234h0.042
		c0.435-0.574,1.19-1.051,2.198-1.051c1.611,0,2.746,1.164,2.746,2.941c0,1.668-1.135,3.209-3.024,3.209
		c-1.947,0-3.223-1.514-3.223-3.881c0-1.793,0.646-3.208,1.541-4.104c0.757-0.743,1.766-1.205,2.914-1.346
		c0.364-0.056,0.673-0.07,0.896-0.07L-37.995-22.947L-37.995-22.947z M-38.345-17.694c0-1.304-0.742-2.087-1.877-2.087
		c-0.742,0-1.429,0.462-1.765,1.121c-0.084,0.14-0.14,0.322-0.14,0.546c0.027,1.499,0.714,2.604,2.003,2.604
		C-39.059-15.509-38.345-16.392-38.345-17.694z"/>
	<path d="M-30.099-23.816v0.813l-3.964,8.293h-1.273l3.949-8.055v-0.027h-4.454v-1.022L-30.099-23.816L-30.099-23.816z"/>
</g>
<g>
	<rect x="710.187" y="169" fill="none" width="42.667" height="20.667"/>
	<path d="M717.865,169.454c0.439-0.091,1.069-0.14,1.669-0.14c0.93,0,1.529,0.17,1.949,0.549c0.34,0.3,0.53,0.76,0.53,1.279
		c0,0.889-0.561,1.479-1.27,1.719v0.029c0.521,0.18,0.83,0.659,0.989,1.359c0.22,0.939,0.38,1.589,0.521,1.85h-0.899
		c-0.11-0.19-0.26-0.771-0.45-1.609c-0.2-0.93-0.56-1.279-1.349-1.311h-0.82v2.918h-0.869L717.865,169.454L717.865,169.454z
		 M718.734,172.521h0.891c0.93,0,1.519-0.51,1.519-1.278c0-0.87-0.629-1.249-1.549-1.259c-0.42,0-0.72,0.039-0.86,0.08V172.521z"/>
	<path d="M725.365,169.443c0.419-0.069,0.969-0.129,1.669-0.129c0.859,0,1.489,0.199,1.89,0.56c0.37,0.319,0.589,0.81,0.589,1.409
		c0,0.609-0.181,1.089-0.521,1.439c-0.46,0.489-1.209,0.738-2.059,0.738c-0.26,0-0.5-0.01-0.7-0.061v2.699h-0.869L725.365,169.443
		L725.365,169.443z M726.234,172.691c0.19,0.051,0.43,0.07,0.72,0.07c1.05,0,1.689-0.509,1.689-1.439
		c0-0.889-0.629-1.318-1.589-1.318c-0.38,0-0.67,0.03-0.82,0.07V172.691z"/>
	<path d="M730.494,172.771c0-0.569-0.01-1.06-0.04-1.508h0.771l0.03,0.949h0.04c0.22-0.65,0.75-1.061,1.339-1.061
		c0.1,0,0.169,0.011,0.25,0.031v0.83c-0.09-0.021-0.181-0.031-0.3-0.031c-0.62,0-1.061,0.471-1.18,1.129
		c-0.02,0.121-0.04,0.261-0.04,0.41v2.58h-0.87V172.771L730.494,172.771z"/>
	<path d="M738.043,173.643c0,1.789-1.24,2.567-2.409,2.567c-1.311,0-2.319-0.959-2.319-2.489c0-1.619,1.06-2.568,2.398-2.568
		C737.103,171.152,738.043,172.162,738.043,173.643z M734.204,173.691c0,1.06,0.609,1.858,1.47,1.858c0.84,0,1.469-0.79,1.469-1.879
		c0-0.819-0.41-1.858-1.449-1.858S734.204,172.771,734.204,173.691z"/>
	<path d="M743.323,171.264c-0.02,0.35-0.04,0.739-0.04,1.328v2.809c0,1.109-0.22,1.789-0.689,2.209
		c-0.471,0.439-1.149,0.58-1.759,0.58c-0.58,0-1.22-0.14-1.609-0.399l0.22-0.669c0.32,0.199,0.819,0.38,1.419,0.38
		c0.9,0,1.561-0.47,1.561-1.688v-0.541h-0.021c-0.27,0.451-0.79,0.811-1.54,0.811c-1.198,0-2.059-1.02-2.059-2.359
		c0-1.639,1.068-2.568,2.179-2.568c0.839,0,1.299,0.441,1.509,0.84h0.021l0.04-0.729h0.77V171.264z M742.412,173.172
		c0-0.15-0.01-0.279-0.05-0.4c-0.16-0.51-0.59-0.93-1.229-0.93c-0.839,0-1.439,0.711-1.439,1.829c0,0.95,0.479,1.739,1.43,1.739
		c0.539,0,1.028-0.34,1.219-0.9c0.05-0.15,0.069-0.32,0.069-0.47V173.172z"/>
	<path d="M744.385,175.581c0-0.37,0.25-0.63,0.6-0.63c0.351,0,0.589,0.26,0.589,0.63c0,0.36-0.229,0.629-0.6,0.629
		C744.624,176.21,744.385,175.939,744.385,175.581z"/>
</g>
<g>
	<rect x="710.854" y="200.333" fill="none" width="42.667" height="20.667"/>
	<path d="M721.129,202.316h-0.028l-1.583,0.854l-0.238-0.938l1.989-1.063h1.051v9.104h-1.19V202.316L721.129,202.316z"/>
	<path d="M725.929,208.859c0.351,0.224,1.163,0.574,2.017,0.574c1.583,0,2.073-1.01,2.06-1.766c-0.015-1.273-1.163-1.82-2.354-1.82
		h-0.687v-0.926h0.687c0.896,0,2.031-0.462,2.031-1.541c0-0.729-0.462-1.373-1.597-1.373c-0.729,0-1.43,0.322-1.821,0.604
		l-0.322-0.896c0.477-0.35,1.401-0.699,2.381-0.699c1.793,0,2.605,1.063,2.605,2.17c0,0.938-0.562,1.737-1.682,2.144v0.028
		c1.121,0.224,2.031,1.063,2.031,2.338c0,1.457-1.135,2.732-3.32,2.732c-1.021,0-1.919-0.322-2.366-0.617L725.929,208.859z"/>
	<path d="M738.728,201.168v0.813l-3.964,8.293h-1.274l3.95-8.055v-0.027h-4.455v-1.022L738.728,201.168L738.728,201.168z"/>
	<path d="M739.886,207.962c0-1.149,0.687-1.961,1.807-2.438l-0.014-0.041c-1.008-0.478-1.442-1.262-1.442-2.045
		c0-1.443,1.218-2.424,2.815-2.424c1.765,0,2.646,1.106,2.646,2.241c0,0.771-0.378,1.597-1.499,2.129v0.042
		c1.136,0.448,1.835,1.247,1.835,2.354c0,1.584-1.357,2.648-3.096,2.648C741.034,210.428,739.886,209.293,739.886,207.962z
		 M744.788,207.906c0-1.107-0.771-1.639-2.003-1.989c-1.063,0.308-1.639,1.009-1.639,1.877c-0.042,0.925,0.659,1.737,1.821,1.737
		C744.074,209.531,744.788,208.846,744.788,207.906z M741.399,203.354c0,0.912,0.687,1.401,1.737,1.682
		c0.784-0.266,1.387-0.827,1.387-1.653c0-0.729-0.434-1.485-1.541-1.485C741.958,201.896,741.399,202.568,741.399,203.354z"/>
</g>
<g>
	<path d="M105.378,56.998c0.468,0.288,1.151,0.528,1.871,0.528c1.067,0,1.691-0.564,1.691-1.38c0-0.756-0.432-1.188-1.523-1.606
		c-1.319-0.468-2.135-1.151-2.135-2.291c0-1.26,1.043-2.195,2.614-2.195c0.828,0,1.427,0.192,1.787,0.396l-0.288,0.852
		c-0.264-0.145-0.803-0.384-1.535-0.384c-1.103,0-1.523,0.659-1.523,1.211c0,0.756,0.492,1.127,1.607,1.56
		c1.367,0.527,2.063,1.187,2.063,2.374c0,1.248-0.923,2.327-2.831,2.327c-0.779,0-1.631-0.229-2.063-0.516L105.378,56.998z"/>
	<path d="M116.727,55.319c0,2.146-1.487,3.082-2.89,3.082c-1.571,0-2.783-1.151-2.783-2.986c0-1.942,1.271-3.082,2.878-3.082
		C115.6,52.333,116.727,53.544,116.727,55.319z M112.121,55.379c0,1.271,0.732,2.231,1.763,2.231c1.007,0,1.763-0.948,1.763-2.255
		c0-0.983-0.492-2.231-1.739-2.231C112.661,53.124,112.121,54.275,112.121,55.379z"/>
	<path d="M122.919,56.687c0,0.6,0.012,1.127,0.048,1.583h-0.936l-0.06-0.947h-0.024c-0.276,0.468-0.887,1.079-1.919,1.079
		c-0.911,0-2.003-0.504-2.003-2.543v-3.394h1.056v3.214c0,1.104,0.336,1.848,1.295,1.848c0.708,0,1.199-0.492,1.391-0.96
		c0.06-0.156,0.096-0.348,0.096-0.54v-3.562h1.056V56.687z"/>
	<path d="M124.674,54.275c0-0.684-0.012-1.271-0.048-1.811h0.923l0.036,1.14h0.048c0.264-0.78,0.899-1.271,1.607-1.271
		c0.12,0,0.204,0.012,0.3,0.036v0.995c-0.108-0.024-0.216-0.036-0.36-0.036c-0.744,0-1.271,0.563-1.416,1.355
		c-0.024,0.144-0.048,0.312-0.048,0.491v3.095h-1.043V54.275z"/>
	<path d="M132.615,58.054c-0.276,0.144-0.888,0.336-1.667,0.336c-1.751,0-2.891-1.188-2.891-2.963c0-1.787,1.224-3.082,3.119-3.082
		c0.624,0,1.175,0.156,1.463,0.3l-0.24,0.815c-0.252-0.144-0.647-0.275-1.223-0.275c-1.332,0-2.051,0.983-2.051,2.194
		c0,1.344,0.864,2.171,2.015,2.171c0.6,0,0.996-0.156,1.295-0.288L132.615,58.054z"/>
	<path d="M134.369,55.559c0.024,1.428,0.936,2.016,1.991,2.016c0.755,0,1.211-0.132,1.607-0.3l0.18,0.755
		c-0.372,0.168-1.007,0.36-1.931,0.36c-1.787,0-2.854-1.176-2.854-2.927s1.032-3.13,2.723-3.13c1.895,0,2.399,1.667,2.399,2.734
		c0,0.216-0.024,0.384-0.036,0.491H134.369z M137.464,54.804c0.012-0.672-0.276-1.716-1.463-1.716c-1.067,0-1.535,0.984-1.619,1.716
		H137.464z"/>
</g>
<g>
	<path d="M236.542,55.848c-0.384,0.191-1.151,0.384-2.135,0.384c-2.279,0-3.994-1.439-3.994-4.09c0-2.53,1.715-4.246,4.222-4.246
		c1.007,0,1.643,0.216,1.919,0.36l-0.252,0.852c-0.396-0.192-0.959-0.336-1.631-0.336c-1.895,0-3.154,1.211-3.154,3.334
		c0,1.979,1.139,3.25,3.106,3.25c0.635,0,1.283-0.132,1.703-0.336L236.542,55.848z"/>
	<path d="M242.938,53.162c0,2.146-1.487,3.082-2.89,3.082c-1.571,0-2.783-1.151-2.783-2.986c0-1.942,1.271-3.082,2.878-3.082
		C241.811,50.175,242.938,51.386,242.938,53.162z M238.333,53.221c0,1.271,0.732,2.231,1.763,2.231c1.007,0,1.763-0.948,1.763-2.255
		c0-0.983-0.492-2.231-1.739-2.231C238.873,50.966,238.333,52.118,238.333,53.221z"/>
	<path d="M244.273,51.878c0-0.6-0.012-1.092-0.048-1.571h0.923l0.048,0.936h0.036c0.324-0.552,0.864-1.067,1.823-1.067
		c0.792,0,1.391,0.479,1.643,1.163h0.024c0.18-0.324,0.408-0.575,0.647-0.756c0.348-0.264,0.731-0.407,1.283-0.407
		c0.768,0,1.907,0.504,1.907,2.519v3.418h-1.032v-3.286c0-1.115-0.408-1.787-1.259-1.787c-0.6,0-1.067,0.443-1.247,0.96
		c-0.048,0.144-0.084,0.335-0.084,0.527v3.586h-1.032v-3.479c0-0.923-0.408-1.595-1.211-1.595c-0.66,0-1.14,0.527-1.308,1.056
		c-0.06,0.155-0.084,0.336-0.084,0.516v3.502h-1.031V51.878z"/>
	<path d="M254.281,52.202c0-0.743-0.024-1.343-0.048-1.895h0.947l0.048,0.995h0.024c0.432-0.707,1.115-1.127,2.063-1.127
		c1.403,0,2.459,1.188,2.459,2.95c0,2.087-1.271,3.118-2.639,3.118c-0.768,0-1.439-0.336-1.787-0.911h-0.024v3.154h-1.043V52.202z
		 M255.324,53.75c0,0.155,0.024,0.3,0.048,0.432c0.192,0.731,0.828,1.235,1.583,1.235c1.115,0,1.763-0.912,1.763-2.243
		c0-1.163-0.611-2.159-1.727-2.159c-0.72,0-1.391,0.517-1.595,1.308c-0.036,0.132-0.072,0.288-0.072,0.432V53.75z"/>
	<path d="M264.323,56.112l-0.084-0.731h-0.036c-0.324,0.456-0.947,0.863-1.775,0.863c-1.175,0-1.775-0.827-1.775-1.667
		c0-1.403,1.247-2.171,3.49-2.159v-0.119c0-0.48-0.132-1.344-1.319-1.344c-0.54,0-1.104,0.168-1.511,0.432l-0.24-0.695
		c0.48-0.312,1.175-0.516,1.907-0.516c1.775,0,2.207,1.211,2.207,2.374v2.171c0,0.504,0.024,0.996,0.096,1.392H264.323z
		 M264.167,53.15c-1.151-0.024-2.458,0.18-2.458,1.307c0,0.684,0.456,1.008,0.996,1.008c0.755,0,1.235-0.479,1.403-0.972
		c0.036-0.107,0.06-0.228,0.06-0.336V53.15z"/>
	<path d="M266.893,51.878c0-0.6-0.012-1.092-0.048-1.571h0.936l0.06,0.959h0.024c0.288-0.552,0.959-1.091,1.919-1.091
		c0.803,0,2.051,0.479,2.051,2.471v3.466h-1.056v-3.346c0-0.936-0.348-1.716-1.343-1.716c-0.695,0-1.235,0.492-1.415,1.08
		c-0.048,0.132-0.072,0.312-0.072,0.491v3.49h-1.056V51.878z"/>
	<path d="M273.781,50.307l1.271,3.43c0.132,0.384,0.276,0.84,0.372,1.188h0.024c0.108-0.348,0.228-0.791,0.372-1.211l1.151-3.406
		h1.115l-1.583,4.138c-0.756,1.991-1.271,3.01-1.991,3.633c-0.516,0.457-1.031,0.637-1.295,0.684l-0.264-0.887
		c0.264-0.084,0.612-0.252,0.924-0.516c0.288-0.229,0.647-0.637,0.887-1.175c0.048-0.108,0.084-0.192,0.084-0.252
		c0-0.061-0.024-0.145-0.072-0.276l-2.147-5.349H273.781z"/>
	<path d="M247.242,63.316h-2.459v-0.889h5.985v0.889h-2.471v7.195h-1.055V63.316z"/>
	<path d="M252.666,63.076c0.012,0.359-0.252,0.648-0.671,0.648c-0.372,0-0.636-0.289-0.636-0.648c0-0.371,0.276-0.66,0.66-0.66
		C252.414,62.416,252.666,62.705,252.666,63.076z M251.491,70.512v-5.805h1.056v5.805H251.491z"/>
	<path d="M254.887,67.801c0.024,1.428,0.935,2.016,1.991,2.016c0.755,0,1.211-0.131,1.607-0.299l0.18,0.754
		c-0.372,0.168-1.007,0.361-1.931,0.361c-1.787,0-2.854-1.176-2.854-2.928c0-1.75,1.032-3.129,2.723-3.129
		c1.895,0,2.399,1.666,2.399,2.734c0,0.215-0.024,0.383-0.036,0.49H254.887z M257.981,67.047c0.012-0.672-0.276-1.717-1.463-1.717
		c-1.067,0-1.535,0.984-1.619,1.717H257.981z"/>
	<path d="M260.311,66.518c0-0.684-0.012-1.27-0.048-1.811h0.923l0.036,1.141h0.048c0.264-0.781,0.899-1.271,1.607-1.271
		c0.12,0,0.204,0.012,0.3,0.035v0.996c-0.108-0.025-0.216-0.037-0.36-0.037c-0.744,0-1.271,0.564-1.416,1.355
		c-0.024,0.145-0.048,0.313-0.048,0.492v3.094h-1.043V66.518z"/>
</g>
<g>
	<path d="M371.75,54.175c-0.385,0.191-1.152,0.384-2.135,0.384c-2.279,0-3.994-1.439-3.994-4.09c0-2.53,1.715-4.246,4.221-4.246
		c1.008,0,1.644,0.216,1.92,0.36l-0.252,0.852c-0.396-0.192-0.96-0.336-1.631-0.336c-1.896,0-3.154,1.211-3.154,3.334
		c0,1.979,1.139,3.25,3.105,3.25c0.636,0,1.283-0.132,1.703-0.336L371.75,54.175z"/>
	<path d="M378.146,51.488c0,2.146-1.487,3.082-2.89,3.082c-1.572,0-2.783-1.151-2.783-2.986c0-1.942,1.271-3.082,2.879-3.082
		C377.019,48.502,378.146,49.713,378.146,51.488z M373.54,51.548c0,1.271,0.731,2.231,1.763,2.231c1.008,0,1.764-0.948,1.764-2.255
		c0-0.983-0.492-2.231-1.739-2.231S373.54,50.444,373.54,51.548z"/>
	<path d="M379.481,45.923h1.056v8.516h-1.056V45.923z"/>
	<path d="M382.313,45.923h1.056v8.516h-1.056V45.923z"/>
	<path d="M385.733,51.728c0.023,1.428,0.936,2.016,1.99,2.016c0.756,0,1.212-0.132,1.607-0.3l0.18,0.755
		c-0.371,0.168-1.007,0.36-1.931,0.36c-1.787,0-2.854-1.176-2.854-2.927s1.031-3.13,2.723-3.13c1.895,0,2.398,1.667,2.398,2.734
		c0,0.216-0.023,0.384-0.035,0.491H385.733z M388.826,50.973c0.012-0.672-0.275-1.716-1.463-1.716c-1.067,0-1.535,0.984-1.619,1.716
		H388.826z"/>
	<path d="M396.158,48.634c-0.024,0.42-0.049,0.888-0.049,1.595v3.37c0,1.332-0.264,2.147-0.827,2.65
		c-0.563,0.528-1.38,0.696-2.11,0.696c-0.696,0-1.464-0.168-1.932-0.479l0.264-0.804c0.384,0.239,0.983,0.455,1.703,0.455
		c1.08,0,1.871-0.563,1.871-2.026v-0.647h-0.023c-0.324,0.539-0.948,0.971-1.848,0.971c-1.439,0-2.471-1.223-2.471-2.83
		c0-1.967,1.283-3.082,2.615-3.082c1.007,0,1.559,0.527,1.811,1.007h0.023l0.049-0.875H396.158z M395.067,50.925
		c0-0.181-0.012-0.336-0.061-0.48c-0.191-0.611-0.707-1.115-1.475-1.115c-1.008,0-1.728,0.852-1.728,2.195
		c0,1.139,0.575,2.087,1.716,2.087c0.646,0,1.234-0.408,1.463-1.08c0.06-0.18,0.084-0.384,0.084-0.563V50.925z"/>
	<path d="M398.452,51.728c0.024,1.428,0.936,2.016,1.991,2.016c0.755,0,1.211-0.132,1.606-0.3l0.181,0.755
		c-0.373,0.168-1.008,0.36-1.932,0.36c-1.787,0-2.854-1.176-2.854-2.927s1.032-3.13,2.723-3.13c1.896,0,2.399,1.667,2.399,2.734
		c0,0.216-0.025,0.384-0.037,0.491H398.452z M401.547,50.973c0.012-0.672-0.276-1.716-1.464-1.716c-1.067,0-1.535,0.984-1.619,1.716
		H401.547z"/>
	<path d="M377.26,61.643h-2.459v-0.888h5.984v0.888h-2.471v7.196h-1.055V61.643z"/>
	<path d="M382.684,61.403c0.012,0.359-0.252,0.647-0.672,0.647c-0.371,0-0.635-0.288-0.635-0.647c0-0.372,0.275-0.66,0.659-0.66
		C382.432,60.743,382.684,61.031,382.684,61.403z M381.508,68.839v-5.805h1.057v5.805H381.508z"/>
	<path d="M384.905,66.128c0.023,1.428,0.936,2.016,1.99,2.016c0.756,0,1.212-0.132,1.607-0.3l0.18,0.755
		c-0.371,0.168-1.007,0.36-1.931,0.36c-1.787,0-2.854-1.176-2.854-2.927s1.031-3.13,2.723-3.13c1.895,0,2.398,1.667,2.398,2.734
		c0,0.216-0.023,0.384-0.035,0.491H384.905z M387.998,65.373c0.012-0.672-0.275-1.716-1.463-1.716c-1.067,0-1.535,0.984-1.619,1.716
		H387.998z"/>
	<path d="M390.328,64.845c0-0.684-0.012-1.271-0.048-1.811h0.923l0.037,1.14h0.047c0.264-0.78,0.9-1.271,1.607-1.271
		c0.12,0,0.204,0.012,0.3,0.036v0.995c-0.108-0.024-0.216-0.036-0.359-0.036c-0.743,0-1.271,0.563-1.415,1.355
		c-0.024,0.144-0.049,0.312-0.049,0.491v3.095h-1.043V64.845z"/>
</g>
</svg>
