<?xml version="1.0" encoding="utf-8"?>
<!-- Generator: Adobe Illustrator 16.0.0, SVG Export Plug-In . SVG Version: 6.00 Build 0)  -->
<!DOCTYPE svg PUBLIC "-//W3C//DTD SVG 1.1//EN" "http://www.w3.org/Graphics/SVG/1.1/DTD/svg11.dtd">
<svg version="1.1" id="Layer_1" xmlns="http://www.w3.org/2000/svg" xmlns:xlink="http://www.w3.org/1999/xlink" x="0px" y="0px"
	 width="5352px" height="2216px" viewBox="0 0 5352 2216" enable-background="new 0 0 5352 2216" xml:space="preserve">
<rect x="71.955" y="87.244" fill="#FFFFFF" width="5224.045" height="2059.191"/>
<rect x="308.098" y="326.11" fill="#EC1C24" width="1171.669" height="1404.884"/>
<g>
	<path fill="#FFFFFF" d="M1017.081,858.319h372.095v35.01h-372.095v536.218c0,64.498,17.511,110.563,52.579,138.205
		c18.494,15.359,42.824,27.342,72.993,35.932c30.17,8.609,62.786,12.904,97.831,12.904c43.812,0,80.32-5.676,109.527-17.05
		c29.207-11.36,61.322-32.09,96.367-62.186l21.904,11.969c-32.228,36.86-77.411,64.195-135.504,82.004
		c-58.119,17.807-130.632,26.72-217.546,26.72c-115.249,0-199.231-14.14-251.967-42.383c-28.337-14.743-46.879-32.395-55.669-52.977
		c-8.788-20.572-13.185-57.586-13.185-111.019V893.33H637.661v-14.74c63.474-12.899,122.118-37.777,175.931-74.63
		c32.413-22.718,58.459-45.293,78.122-67.718c19.662-22.416,38.341-51.437,56.058-87.066l14.741-30.407h54.569V858.319z"/>
</g>
<g>
	<path fill="#020202" d="M1689.803,1237.848c-2.448,24.515-3.665,42.275-3.665,53.273c0,43.522,7.754,86.048,23.26,127.561
		c15.502,41.526,36.645,76.043,63.41,103.553c27.375,28.017,61.275,50.021,101.724,66.024
		c40.452,16.02,82.876,24.015,127.275,24.015c32.84,0,64.008-4.499,93.499-13.51c29.498-9.002,53.982-21.501,73.449-37.518
		c21.9-17.498,40.751-45.512,56.569-84.037l19.227,5.251c-15.878,58.534-49.89,102.68-102.071,132.442
		c-52.178,29.762-121.61,44.646-208.259,44.646c-75.066,0-139.457-9.758-193.158-29.265
		c-53.708-19.509-99.178-49.525-136.396-90.047c-51.879-56.521-77.813-126.055-77.813-208.598
		c0-112.548,49.118-200.835,147.385-264.874c71.403-46.52,152.879-69.781,244.42-69.781c48.818,0,93.973,7.126,135.482,21.384
		c41.495,14.256,76.582,34.896,105.276,61.907c44.538,42.017,66.824,94.543,66.824,157.573H1689.803z M2088.929,1208.586
		c-4.264-50.019-15.492-88.541-33.713-115.557c-16.406-24.506-38.275-43.898-65.611-58.149c-27.35-14.259-56.5-21.391-87.481-21.391
		c-52.25,0-97.963,18.515-137.144,55.525c-39.189,37.03-62.422,83.548-69.717,139.571H2088.929z"/>
	<path fill="#020202" d="M3090.539,1573.254l15.559,7.504c-21.968,52.526-72.32,78.79-151.047,78.79
		c-43.397,0-79.455-8.763-108.174-26.264c-18.953-11.5-38.51-31.517-58.675-60.03c-40.97,30.013-71.835,49.782-92.599,59.275
		c-39.739,18.009-85.884,27.019-138.438,27.019c-67.241,0-120.561-13.267-159.982-39.77c-39.42-26.509-59.13-62.28-59.13-107.302
		c0-41.517,16.159-76.28,48.517-104.3c18.309-15.499,39.359-27.883,63.163-37.142c23.803-9.25,58.273-18.633,103.44-28.143
		c53.1-10.996,92.305-20.256,117.636-27.756c25.32-7.505,46.532-16.512,63.623-27.017c19.525-11.503,32.955-25.009,40.277-40.518
		c7.324-15.503,10.989-37.014,10.989-64.534c0-58.527-13.431-101.295-40.278-128.308c-12.217-12.501-27.923-22.509-47.149-30.014
		c-19.224-7.508-39.218-11.258-59.957-11.258c-25.031,0-47.307,5.255-66.828,15.758c-19.539,10.505-34.189,25.021-43.943,43.522
		l-22.882,43.521c-12.216,23.518-34.189,35.268-65.91,35.268c-20.756,0-38.149-5.631-52.181-16.883
		c-14.045-11.257-21.056-25.381-21.056-42.396c0-25.514,21.998-47.018,66.024-64.53c23.831-9.004,53.322-16.377,88.481-22.136
		c35.146-5.745,69.53-8.629,103.146-8.629c37.9,0,77.324,4.008,118.291,12.005c40.952,8.009,75.18,18.267,102.7,30.764
		c39.718,18.514,64.48,42.525,74.263,72.034c4.892,15.009,7.337,40.271,7.337,75.79v277.625c0,47.028,2.427,79.048,7.323,96.045
		c10.373,35.528,35.39,53.276,75.066,53.276c18.913,0,33.716-2.743,44.398-8.255
		C3063.217,1600.771,3075.889,1589.762,3090.539,1573.254z M2787.525,1277.619c-32.852,22.505-69.055,42.277-108.592,59.278
		c-44.409,19.508-75.136,34.266-92.168,44.267c-17.039,10.012-32.541,22.019-46.534,36.019
		c-28.604,29.019-42.896,62.78-42.896,101.295c0,33.016,11.097,60.288,33.299,81.792c22.2,21.515,50.35,32.26,84.421,32.26
		c29.808,0,57.942-7.62,84.409-22.882c26.459-15.255,46.385-35.646,59.772-61.156c18.852-33.507,28.289-82.034,28.289-145.568
		V1277.619z"/>
	<path fill="#020202" d="M3302.126,1709.816l-16.482,3.753c-10.38-14.011-20.75-23.764-31.123-29.267
		c-10.38-5.512-23.196-8.251-38.444-8.251c-25.633,0-46.545,7.994-62.712,24.011c-16.177,16.003-24.254,36.767-24.254,62.28
		c0,40.518,24.717,73.779,74.15,99.797c49.432,26.001,112.599,39.02,189.489,39.02c81.777,0,147.848-14.39,198.192-43.147
		c50.353-28.771,75.525-66.16,75.525-112.176c0-37.027-16.793-65.413-50.349-85.164c-33.571-19.755-81.475-29.638-143.727-29.638
		h-145.549c-59.822,0-108.024-11.535-144.643-34.624c-37.843-24.082-56.753-52.943-56.753-86.573
		c0-35.619,20.138-63.719,60.416-84.298c20.739-10.036,58.59-20.822,113.515-32.371c-53.096-19.968-94.285-46.294-123.585-79.006
		c-29.29-32.705-43.937-68.778-43.937-108.233c0-50.421,22.897-95.36,68.695-134.804c26.861-23.458,58.621-41.676,95.263-54.665
		c36.634-12.981,74.196-19.477,112.67-19.477c58.614,0,118.445,17.013,179.522,51.021c28.754-18.496,54.611-31.63,77.559-39.392
		c22.943-7.75,47.873-11.63,74.792-11.63c29.964,0,54.125,5.252,72.489,15.759c22.029,13.013,33.038,29.014,33.038,48.023
		c0,11.511-4.316,21.137-12.939,28.887c-8.628,7.759-19.396,11.629-32.325,11.629c-19.713,0-37.58-8.499-53.597-25.51
		l-21.001-22.509c-11.568-12.008-28.002-18.011-49.301-18.011c-22.517,0-46.26,9.262-71.207,27.762
		c49.779,49.523,74.681,100.547,74.681,153.069c0,65.545-35.501,117.316-106.474,155.323
		c-35.504,19.018-73.752,31.776-114.742,38.269c-12.247,1.503-51.097,4.013-116.576,7.508
		c-89.712,4.5-134.566,25.017-134.566,61.525c0,32.022,38.205,48.026,114.609,48.026h151.276c53.183,0,98.11,3.88,134.782,11.627
		c36.673,7.762,68.756,19.884,96.278,36.396c53.78,32.522,80.688,78.278,80.688,137.313c0,65.02-31.167,115.8-93.488,152.319
		c-64.167,37.518-158.283,56.277-282.323,56.277c-133.226,0-227.629-22.015-283.226-66.031
		c-35.444-28.515-53.168-64.035-53.168-106.548c0-33.524,13.115-61.906,39.363-85.17c26.236-23.258,58.273-34.889,96.121-34.889
		c27.46,0,49.89,6.754,67.28,20.259c17.397,13.506,26.094,31.259,26.094,53.273V1709.816z M3262.763,1211.197
		c0,53.92,13.829,97.85,41.51,131.803c27.675,33.953,63.124,50.923,106.315,50.923c43.799,0,77.859-16.852,102.201-50.548
		c24.33-33.695,36.502-80.507,36.502-140.419c0-61.904-15.818-111.324-47.445-148.278c-23.129-27.458-52.936-41.188-89.429-41.188
		c-43.808,0-79.099,17.977-105.857,53.923c-13.392,17.971-24.032,39.944-31.939,65.899
		C3266.709,1159.273,3262.763,1185.239,3262.763,1211.197z"/>
	<path fill="#020202" d="M3821.297,618.805l263.645-27.012v836.785l0.914,56.99c0,33.998,2.43,58.868,7.327,74.614
		c4.875,15.746,14.33,28.861,28.376,39.356c17.08,13.502,48.52,23.754,94.288,30.744v15.756h-404.62v-15.756
		c36.62-3.988,62.851-9.608,78.728-16.852c15.864-7.247,28.679-19.603,38.446-37.093c6.711-11.493,11.443-28.845,14.19-52.067
		c2.748-23.229,4.122-56.82,4.122-100.771V835.353c0-50.943-1.535-86.901-4.58-107.887c-3.058-20.974-9.771-37.952-20.142-50.941
		c-10.384-13.987-22.885-23.978-37.528-29.969c-14.646-5.99-35.701-9.743-63.166-11.244V618.805z"/>
	<path fill="#020202" d="M4425.604,1237.848c-2.448,24.515-3.665,42.275-3.665,53.273c0,43.522,7.754,86.048,23.26,127.561
		c15.506,41.526,36.647,76.043,63.406,103.553c27.377,28.017,61.277,50.021,101.73,66.024
		c40.452,16.02,82.873,24.015,127.274,24.015c32.837,0,64.005-4.499,93.5-13.51c29.496-9.002,53.979-21.501,73.446-37.518
		c21.899-17.498,40.754-45.512,56.572-84.037l19.224,5.251c-15.878,58.534-49.89,102.68-102.071,132.442
		c-52.178,29.762-121.604,44.646-208.26,44.646c-75.062,0-139.461-9.758-193.15-29.265c-53.715-19.509-99.186-49.525-136.402-90.047
		c-51.883-56.521-77.811-126.055-77.811-208.598c0-112.548,49.115-200.835,147.386-264.874
		c71.401-46.52,152.875-69.781,244.42-69.781c48.819,0,93.973,7.126,135.482,21.384c41.49,14.256,76.582,34.896,105.273,61.907
		c44.541,42.017,66.828,94.543,66.828,157.573H4425.604z M4824.73,1208.586c-4.264-50.019-15.492-88.541-33.713-115.557
		c-16.406-24.506-38.28-43.898-65.608-58.149c-27.35-14.259-56.5-21.391-87.483-21.391c-52.251,0-97.965,18.515-137.141,55.525
		c-39.192,37.03-62.422,83.548-69.722,139.571H4824.73z"/>
</g>
</svg>
